STARTFONT 2.1
FONT -FontForge-Pacifico-Book-R-Normal--20-200-72-72-P-117-ISO10646-1
SIZE 20 72 72
FONTBOUNDINGBOX 45 38 -12 -9
COMMENT "Generated by fontforge, http://fontforge.sourceforge.net"
COMMENT "Copyright 2018 The Pacifico Project Authors (https://github.com/googlefonts/Pacifico)"
STARTPROPERTIES 40
FOUNDRY "FontForge"
FAMILY_NAME "Pacifico"
WEIGHT_NAME "Book"
SLANT "R"
SETWIDTH_NAME "Normal"
ADD_STYLE_NAME ""
PIXEL_SIZE 20
POINT_SIZE 200
RESOLUTION_X 72
RESOLUTION_Y 72
SPACING "P"
AVERAGE_WIDTH 117
CHARSET_REGISTRY "ISO10646"
CHARSET_ENCODING "1"
FONTNAME_REGISTRY ""
CHARSET_COLLECTIONS "ISO8859-2 ISO8859-5 ISO8859-9 ISO8859-4 ISO10646-1"
FONT_NAME "Pacifico-Regular"
FACE_NAME "Pacifico Regular"
COPYRIGHT "Copyright 2018 The Pacifico Project Authors (https://github.com/googlefonts/Pacifico)"
FONT_VERSION "3.001"
FONT_ASCENT 16
FONT_DESCENT 4
UNDERLINE_POSITION -2
UNDERLINE_THICKNESS 1
X_HEIGHT 8
CAP_HEIGHT 15
DEFAULT_CHAR 1
RAW_ASCENT 800
RAW_DESCENT 200
NORM_SPACE 5
RELATIVE_WEIGHT 40
RELATIVE_SETWIDTH 50
SUPERSCRIPT_X 0
SUPERSCRIPT_Y 7
SUPERSCRIPT_SIZE 12
SUBSCRIPT_X 0
SUBSCRIPT_Y 1
SUBSCRIPT_SIZE 12
AVG_LOWERCASE_WIDTH 94
AVG_UPPERCASE_WIDTH 163
ENDPROPERTIES
CHARS 1514
STARTCHAR NULL.dup1
ENCODING 0
SWIDTH 0 0
DWIDTH 0 0
BBX 1 1 0 0
BITMAP
00
ENDCHAR
STARTCHAR nonmarkingreturn
ENCODING 13
SWIDTH 265 0
DWIDTH 5 0
BBX 1 1 0 0
BITMAP
00
ENDCHAR
STARTCHAR space
ENCODING 32
SWIDTH 265 0
DWIDTH 5 0
BBX 1 1 0 0
BITMAP
00
ENDCHAR
STARTCHAR exclam
ENCODING 33
SWIDTH 340 0
DWIDTH 7 0
BBX 6 16 1 0
BITMAP
0C
1C
1C
1C
38
38
38
30
30
70
60
00
E0
E0
E0
E0
ENDCHAR
STARTCHAR quotedbl
ENCODING 34
SWIDTH 510 0
DWIDTH 10 0
BBX 8 6 2 10
BITMAP
73
77
67
E7
E6
E6
ENDCHAR
STARTCHAR numbersign
ENCODING 35
SWIDTH 700 0
DWIDTH 14 0
BBX 13 12 1 0
BITMAP
0440
0C60
1CE0
7FF8
FFF8
19C0
39C0
3980
FFF0
FFF0
7300
6300
ENDCHAR
STARTCHAR dollar
ENCODING 36
SWIDTH 524 0
DWIDTH 10 0
BBX 9 17 1 -3
BITMAP
0400
0400
0400
3E00
7F00
6F80
6900
7800
7C00
1F00
DB00
DB00
FF00
7E00
1000
1000
1000
ENDCHAR
STARTCHAR percent
ENCODING 37
SWIDTH 896 0
DWIDTH 18 0
BBX 17 15 1 0
BITMAP
381800
7C3800
EE7800
CFF000
CFE000
CCE000
7DC000
31CE00
039F00
033300
073380
063380
0E3300
1C3F00
081E00
ENDCHAR
STARTCHAR ampersand
ENCODING 38
SWIDTH 851 0
DWIDTH 17 0
BBX 16 18 1 -1
BITMAP
07C0
0FE0
1CE0
1860
1860
18E0
1DC0
1F80
1F00
3F02
7787
E38E
E1DC
E0F8
F0F0
7FF8
3F3C
001C
ENDCHAR
STARTCHAR quotesingle
ENCODING 39
SWIDTH 290 0
DWIDTH 6 0
BBX 4 6 2 10
BITMAP
70
70
60
E0
E0
E0
ENDCHAR
STARTCHAR parenleft
ENCODING 40
SWIDTH 613 0
DWIDTH 12 0
BBX 13 21 2 -3
BITMAP
01E0
07F8
0E38
1C00
3800
3800
7000
7000
7000
6000
E000
E000
E000
E000
E000
E000
E000
E180
E380
7F00
3E00
ENDCHAR
STARTCHAR parenright
ENCODING 41
SWIDTH 613 0
DWIDTH 12 0
BBX 13 21 -2 -3
BITMAP
03E0
07F0
0E38
0C38
0018
0018
0018
0018
0038
0038
0038
0038
0030
0070
0070
00E0
00E0
01C0
6380
FF00
3E00
ENDCHAR
STARTCHAR asterisk
ENCODING 42
SWIDTH 520 0
DWIDTH 10 0
BBX 9 8 2 10
BITMAP
0C00
6C00
7B80
1F00
FC00
FF00
1B00
1800
ENDCHAR
STARTCHAR plus
ENCODING 43
SWIDTH 700 0
DWIDTH 14 0
BBX 11 12 2 0
BITMAP
0400
0600
0E00
0E00
0C00
FFE0
FFC0
0C00
0C00
0C00
1C00
1800
ENDCHAR
STARTCHAR comma
ENCODING 44
SWIDTH 257 0
DWIDTH 5 0
BBX 4 7 0 -3
BITMAP
20
70
70
70
60
E0
C0
ENDCHAR
STARTCHAR hyphen
ENCODING 45
SWIDTH 403 0
DWIDTH 8 0
BBX 6 3 1 5
BITMAP
0C
FC
FC
ENDCHAR
STARTCHAR period
ENCODING 46
SWIDTH 257 0
DWIDTH 5 0
BBX 3 4 1 0
BITMAP
E0
E0
E0
E0
ENDCHAR
STARTCHAR slash
ENCODING 47
SWIDTH 509 0
DWIDTH 10 0
BBX 11 18 0 0
BITMAP
0060
00E0
00E0
01C0
01C0
0380
0300
0700
0600
0E00
1C00
1C00
3800
3800
7000
6000
E000
C000
ENDCHAR
STARTCHAR zero
ENCODING 48
SWIDTH 543 0
DWIDTH 11 0
BBX 9 11 1 0
BITMAP
1E00
3F00
7380
E180
E180
E180
E380
E380
E700
7F00
3C00
ENDCHAR
STARTCHAR one
ENCODING 49
SWIDTH 376 0
DWIDTH 8 0
BBX 6 12 1 0
BITMAP
08
7C
F8
98
38
38
38
38
38
38
30
30
ENDCHAR
STARTCHAR two
ENCODING 50
SWIDTH 560 0
DWIDTH 11 0
BBX 9 11 1 0
BITMAP
1F00
7F80
6380
6380
6380
0700
0E00
1C00
7800
FF80
FF80
ENDCHAR
STARTCHAR three
ENCODING 51
SWIDTH 520 0
DWIDTH 10 0
BBX 9 11 1 0
BITMAP
3F00
7F00
E380
C380
0700
1C00
1F00
C380
C700
FF00
7E00
ENDCHAR
STARTCHAR four
ENCODING 52
SWIDTH 577 0
DWIDTH 12 0
BBX 10 12 1 0
BITMAP
0800
1C00
3800
3180
7380
6380
E300
FFC0
FFC0
0700
0700
0300
ENDCHAR
STARTCHAR five
ENCODING 53
SWIDTH 518 0
DWIDTH 10 0
BBX 9 11 1 0
BITMAP
7F80
FF80
7000
6000
7C00
7F00
0700
C380
E700
FF00
7C00
ENDCHAR
STARTCHAR six
ENCODING 54
SWIDTH 541 0
DWIDTH 11 0
BBX 9 11 1 0
BITMAP
1F00
3F80
7180
E000
FE00
FF00
E380
E380
E300
7F00
3E00
ENDCHAR
STARTCHAR seven
ENCODING 55
SWIDTH 497 0
DWIDTH 10 0
BBX 9 11 1 0
BITMAP
FF80
FF80
0700
0E00
1C00
1800
3800
3800
3000
7000
3000
ENDCHAR
STARTCHAR eight
ENCODING 56
SWIDTH 512 0
DWIDTH 10 0
BBX 9 11 1 0
BITMAP
3F00
7F80
6380
6380
7700
3E00
6F00
C380
C300
FF00
7E00
ENDCHAR
STARTCHAR nine
ENCODING 57
SWIDTH 541 0
DWIDTH 11 0
BBX 9 11 1 0
BITMAP
3E00
7F00
6380
E380
E380
7F80
3F80
4380
C700
FE00
7C00
ENDCHAR
STARTCHAR colon
ENCODING 58
SWIDTH 257 0
DWIDTH 5 0
BBX 4 10 1 0
BITMAP
70
F0
F0
60
00
00
E0
E0
E0
E0
ENDCHAR
STARTCHAR semicolon
ENCODING 59
SWIDTH 257 0
DWIDTH 5 0
BBX 5 13 0 -3
BITMAP
38
78
78
30
00
00
20
70
70
70
60
E0
C0
ENDCHAR
STARTCHAR less
ENCODING 60
SWIDTH 700 0
DWIDTH 14 0
BBX 11 9 2 1
BITMAP
0020
01E0
0FC0
7E00
F000
F800
3F00
07C0
01C0
ENDCHAR
STARTCHAR equal
ENCODING 61
SWIDTH 700 0
DWIDTH 14 0
BBX 12 6 1 3
BITMAP
7FF0
7FF0
0000
0000
7FE0
FFE0
ENDCHAR
STARTCHAR greater
ENCODING 62
SWIDTH 700 0
DWIDTH 14 0
BBX 12 9 1 1
BITMAP
2000
7800
3F00
07E0
01F0
03E0
1F80
7C00
E000
ENDCHAR
STARTCHAR question
ENCODING 63
SWIDTH 476 0
DWIDTH 10 0
BBX 9 16 1 0
BITMAP
1F00
7F80
7380
6180
6380
0700
0E00
1C00
1800
3000
3000
0000
7000
F000
F000
6000
ENDCHAR
STARTCHAR at
ENCODING 64
SWIDTH 1015 0
DWIDTH 20 0
BBX 19 19 1 -5
BITMAP
01FE00
07FF00
0F0380
1C01C0
3800C0
70E0E0
61F8E0
E398E0
E338E0
C738C0
C731C0
C77180
E3DF80
E3DE00
E00000
700100
3C0780
1FFF00
07FC00
ENDCHAR
STARTCHAR A
ENCODING 65
SWIDTH 786 0
DWIDTH 16 0
BBX 17 16 1 0
BITMAP
00FE00
07FF00
0F8600
1C1800
381C00
701800
703800
703800
E03800
E07000
E07000
E07000
E0F080
71F980
7F3F00
1E1E00
ENDCHAR
STARTCHAR B
ENCODING 66
SWIDTH 827 0
DWIDTH 17 0
BBX 17 17 0 -1
BITMAP
07FC00
3FFF00
7C0780
E00380
0E0380
0E0380
0E0F00
0CFE00
1CF800
1C1E00
1C0E00
1C0E00
180E00
383C00
3FF800
3FE000
380000
ENDCHAR
STARTCHAR C
ENCODING 67
SWIDTH 686 0
DWIDTH 14 0
BBX 15 16 1 0
BITMAP
03E0
0FF0
1E38
3838
7038
7038
7000
E000
E000
E000
E000
7000
7002
3C1E
1FFE
07F0
ENDCHAR
STARTCHAR D
ENCODING 68
SWIDTH 836 0
DWIDTH 17 0
BBX 15 16 1 0
BITMAP
0FE0
7FF8
F83C
C01E
1C0E
1C0E
180E
380E
380E
380E
380E
301C
703C
70F8
7FE0
3F80
ENDCHAR
STARTCHAR E
ENCODING 69
SWIDTH 686 0
DWIDTH 14 0
BBX 15 16 1 0
BITMAP
07E0
1FF8
3C38
3818
3838
3810
1F80
3F00
7800
E000
E000
E000
E002
F01E
7FFE
1FF0
ENDCHAR
STARTCHAR F
ENCODING 70
SWIDTH 712 0
DWIDTH 14 0
BBX 19 16 0 0
BITMAP
03FFC0
1FFFE0
3CE000
30E000
30E000
38E000
10C000
07FE00
07FE00
01C000
01C000
01C000
C38000
E38000
7F0000
3E0000
ENDCHAR
STARTCHAR G
ENCODING 71
SWIDTH 811 0
DWIDTH 16 0
BBX 17 25 1 -9
BITMAP
03F000
0FF800
1E3800
381C00
701C00
701800
700000
E00000
E00000
E0FC00
E0FC00
701C00
701C80
3C1F80
1FFF00
07FC00
003800
007800
00F800
01B000
033000
037000
036000
03E000
03C000
ENDCHAR
STARTCHAR H
ENCODING 72
SWIDTH 873 0
DWIDTH 17 0
BBX 20 17 0 0
BITMAP
0001C0
1E03E0
7F0760
E70660
C70660
870E60
070CC0
070D80
060F00
3FFC00
3FFC00
0E1C00
0E1C00
0C1C10
1C0E70
1C0FE0
1807C0
ENDCHAR
STARTCHAR I
ENCODING 73
SWIDTH 495 0
DWIDTH 10 0
BBX 11 16 0 0
BITMAP
3FE0
3FE0
0700
0700
0600
0E00
0E00
0E00
0E00
0E00
0C00
1C00
1C00
1C00
FF80
FF80
ENDCHAR
STARTCHAR J
ENCODING 74
SWIDTH 743 0
DWIDTH 15 0
BBX 14 18 1 -2
BITMAP
0FF8
3FFC
7038
6038
E038
6038
6038
0038
01F0
03F0
0F70
1C70
1860
38E0
38C0
39C0
3F80
1F00
ENDCHAR
STARTCHAR K
ENCODING 75
SWIDTH 937 0
DWIDTH 19 0
BBX 20 16 1 0
BITMAP
1FC0C0
7FE1C0
71C1C0
E1C380
E1C380
618700
039E00
07F800
07F000
03B800
039C00
831C10
C70E10
C70F70
FE07E0
7C03C0
ENDCHAR
STARTCHAR L
ENCODING 76
SWIDTH 673 0
DWIDTH 13 0
BBX 17 16 -1 0
BITMAP
00FC00
01FE00
038700
070700
070700
0E0600
0E0000
0E0000
0E0000
0E0000
0E0000
0E0000
7E0180
FFC380
FFFF00
787C00
ENDCHAR
STARTCHAR M
ENCODING 77
SWIDTH 1232 0
DWIDTH 25 0
BBX 27 16 0 0
BITMAP
1E1C3C00
3E7E7E00
66E6CE00
C6868700
87878600
07070E00
0F070E00
0F0F0E00
0E0E0E00
0E0E1C00
0E0E1C00
0E0E1C00
1C1C1C20
1C1C1C60
1C1C0FC0
1C1C0780
ENDCHAR
STARTCHAR N
ENCODING 78
SWIDTH 884 0
DWIDTH 18 0
BBX 20 16 0 0
BITMAP
1E1E00
3E3F00
666780
C6C380
868300
070700
0F0700
0F0700
0E0700
0E0E00
0E0E00
0E0E00
1C0E10
1C0E30
1C07E0
1C03C0
ENDCHAR
STARTCHAR O
ENCODING 79
SWIDTH 816 0
DWIDTH 16 0
BBX 15 16 1 0
BITMAP
03E0
0FF8
1E3C
381C
700E
700E
700E
E00E
E00E
E00E
E01C
701C
7038
7870
3FE0
0F80
ENDCHAR
STARTCHAR P
ENCODING 80
SWIDTH 805 0
DWIDTH 16 0
BBX 15 18 1 -2
BITMAP
01F0
07FC
1E1E
380E
318E
738E
638E
E38E
C31C
CFF8
CFE0
C700
C700
C700
E600
EE00
7E00
3C00
ENDCHAR
STARTCHAR Q
ENCODING 81
SWIDTH 816 0
DWIDTH 16 0
BBX 17 22 1 -6
BITMAP
03E000
0FF800
1E3C00
381C00
700E00
700E00
700E00
E00E00
E00E00
E00E00
E01C00
F01C00
703800
787800
3FE000
0FC000
03C000
01C000
00E180
00F300
007F00
003C00
ENDCHAR
STARTCHAR R
ENCODING 82
SWIDTH 880 0
DWIDTH 18 0
BBX 19 16 1 0
BITMAP
03F800
0FFC00
1C1E00
380E00
738E00
638E00
638E00
E33C00
CFF000
CFE000
C77000
C73800
E63820
6E1C60
7E1FC0
1C0780
ENDCHAR
STARTCHAR S
ENCODING 83
SWIDTH 693 0
DWIDTH 14 0
BBX 13 16 1 0
BITMAP
0FC0
1FF0
3878
7038
7038
7030
3C00
1F00
0FC0
01E0
C070
C070
C070
E0F0
7FE0
3F80
ENDCHAR
STARTCHAR T
ENCODING 84
SWIDTH 697 0
DWIDTH 14 0
BBX 17 16 1 0
BITMAP
0FFF80
7FFF80
F1C000
C1C000
C1C000
E18000
438000
038000
038000
038000
030000
070000
070000
070000
070000
070000
ENDCHAR
STARTCHAR U
ENCODING 85
SWIDTH 890 0
DWIDTH 18 0
BBX 20 16 0 0
BITMAP
1E0300
3F0380
670380
C70300
870700
070700
0E0700
0E0700
0E0F00
0E0E00
0C1E00
1C1600
1C3E10
1EEF70
0FC7E0
0783C0
ENDCHAR
STARTCHAR V
ENCODING 86
SWIDTH 763 0
DWIDTH 15 0
BBX 16 16 2 0
BITMAP
7078
70FC
70DC
719C
619C
61DC
E0D8
E0F8
E07F
607F
6070
70E0
71C0
7F80
3F00
1E00
ENDCHAR
STARTCHAR W
ENCODING 87
SWIDTH 1217 0
DWIDTH 24 0
BBX 25 16 2 0
BITMAP
70183C00
70387E00
70386E00
7038EE00
6038CE00
E0786E00
E0786C00
E0787C00
E0F83F80
E0F81F80
60F83800
71B87000
7398E000
7F1FC000
3E1F8000
1C0F0000
ENDCHAR
STARTCHAR X
ENCODING 88
SWIDTH 712 0
DWIDTH 14 0
BBX 17 16 0 0
BITMAP
3E0600
7F0E00
E71C00
83B800
03F000
03E000
01C000
03C000
03C000
07C000
0EE000
1CE000
38E180
707380
E07F00
E03C00
ENDCHAR
STARTCHAR Y
ENCODING 89
SWIDTH 851 0
DWIDTH 17 0
BBX 19 22 0 -6
BITMAP
1E0380
3F0380
670380
C70300
870700
070700
0E0700
0E0F00
0E0F00
0E1F00
0E1E00
0E3600
0FE7E0
07CFE0
007E00
01CE00
030C00
071C00
061C00
073800
07F000
03E000
ENDCHAR
STARTCHAR Z
ENCODING 90
SWIDTH 721 0
DWIDTH 14 0
BBX 17 16 0 0
BITMAP
0FFC00
3FFF00
381E00
701C00
703800
707800
207000
00E000
01E000
03C000
038000
070000
7F0180
FFC380
FFFF00
787C00
ENDCHAR
STARTCHAR bracketleft
ENCODING 91
SWIDTH 405 0
DWIDTH 8 0
BBX 9 19 1 -1
BITMAP
1F80
1F80
1800
3800
3800
3800
3800
3000
3000
7000
7000
7000
7000
7000
6000
6000
E000
FE00
7E00
ENDCHAR
STARTCHAR backslash
ENCODING 92
SWIDTH 509 0
DWIDTH 10 0
BBX 7 18 2 0
BITMAP
C0
E0
E0
60
70
70
30
38
38
38
18
1C
1C
0C
0E
0E
06
06
ENDCHAR
STARTCHAR bracketright
ENCODING 93
SWIDTH 405 0
DWIDTH 8 0
BBX 9 19 -1 -1
BITMAP
3F00
3F80
0380
0300
0300
0700
0700
0700
0700
0700
0600
0600
0E00
0E00
0E00
0E00
0E00
FC00
FC00
ENDCHAR
STARTCHAR asciicircum
ENCODING 94
SWIDTH 700 0
DWIDTH 14 0
BBX 10 10 2 1
BITMAP
0600
0E00
0E00
1B00
3B00
3300
7180
6180
C1C0
C080
ENDCHAR
STARTCHAR underscore
ENCODING 95
SWIDTH 354 0
DWIDTH 7 0
BBX 7 2 0 -2
BITMAP
FE
FC
ENDCHAR
STARTCHAR grave
ENCODING 96
SWIDTH 600 0
DWIDTH 12 0
BBX 5 6 2 10
BITMAP
60
E0
70
30
18
18
ENDCHAR
STARTCHAR a
ENCODING 97
SWIDTH 470 0
DWIDTH 9 0
BBX 11 9 1 0
BITMAP
1C00
3F00
7700
E600
C600
CE60
CEE0
FFC0
7380
ENDCHAR
STARTCHAR b
ENCODING 98
SWIDTH 473 0
DWIDTH 9 0
BBX 11 18 1 0
BITMAP
0E00
1E00
3B00
3300
7600
6600
6600
6C00
E800
FE00
FF00
E700
E7E0
E3E0
E300
6600
7E00
3C00
ENDCHAR
STARTCHAR c
ENCODING 99
SWIDTH 368 0
DWIDTH 7 0
BBX 9 9 1 0
BITMAP
3C00
7C00
EC00
CC00
C000
C180
E380
FF00
7C00
ENDCHAR
STARTCHAR d
ENCODING 100
SWIDTH 515 0
DWIDTH 10 0
BBX 12 18 1 0
BITMAP
00C0
01E0
03E0
0360
0360
0760
0760
0640
06C0
1E80
3F80
7700
E700
C600
C630
CF70
FBE0
7380
ENDCHAR
STARTCHAR e
ENCODING 101
SWIDTH 393 0
DWIDTH 8 0
BBX 9 9 1 0
BITMAP
3C00
7E00
E600
CE00
DC00
F080
E380
FF00
3E00
ENDCHAR
STARTCHAR f
ENCODING 102
SWIDTH 371 0
DWIDTH 7 0
BBX 9 24 1 -6
BITMAP
0700
0F00
1B00
1B00
3B00
3300
7200
7600
6400
6C00
7800
F000
E000
FF80
FF00
F800
F800
E800
E800
E800
E800
6800
7800
7000
ENDCHAR
STARTCHAR g
ENCODING 103
SWIDTH 479 0
DWIDTH 10 0
BBX 12 18 0 -9
BITMAP
0E00
1F80
3B80
7300
6300
6330
67E0
7FC0
3F80
0E00
1E00
3600
6E00
6C00
CC00
D800
F800
7000
ENDCHAR
STARTCHAR h
ENCODING 104
SWIDTH 502 0
DWIDTH 10 0
BBX 12 18 1 0
BITMAP
0E00
1E00
3B00
3300
3200
7600
6600
6C00
7800
F700
FF00
EF00
FB00
F700
F730
E760
E7C0
C380
ENDCHAR
STARTCHAR i
ENCODING 105
SWIDTH 246 0
DWIDTH 5 0
BBX 7 13 1 0
BITMAP
70
70
70
00
60
60
E0
E0
E0
C6
CC
F8
70
ENDCHAR
STARTCHAR j
ENCODING 106
SWIDTH 254 0
DWIDTH 5 0
BBX 12 22 -5 -9
BITMAP
01C0
03C0
01C0
0000
0180
0180
0380
0380
0380
03B0
0370
03E0
0380
0700
0F00
1E00
3600
6600
6C00
CC00
7800
7000
ENDCHAR
STARTCHAR k
ENCODING 107
SWIDTH 525 0
DWIDTH 11 0
BBX 12 18 1 0
BITMAP
0E00
1E00
3B00
3300
3600
6600
6400
6C00
7800
F780
EF80
F980
F980
F700
FE30
EE70
E7E0
63C0
ENDCHAR
STARTCHAR l
ENCODING 108
SWIDTH 326 0
DWIDTH 7 0
BBX 8 18 1 0
BITMAP
0E
1E
3B
33
72
66
66
66
EC
EC
F8
F8
F0
E0
E3
67
7E
3C
ENDCHAR
STARTCHAR m
ENCODING 109
SWIDTH 744 0
DWIDTH 15 0
BBX 16 9 1 0
BITMAP
6738
6F78
FFF8
F7F8
F7B8
E731
E733
E73E
C63C
ENDCHAR
STARTCHAR n
ENCODING 110
SWIDTH 496 0
DWIDTH 10 0
BBX 12 9 1 0
BITMAP
6700
6F00
FF00
FF00
F700
E630
E660
E7C0
C380
ENDCHAR
STARTCHAR o
ENCODING 111
SWIDTH 451 0
DWIDTH 9 0
BBX 11 9 1 0
BITMAP
3C00
7E00
EF00
CFE0
C7C0
C600
E600
FC00
7800
ENDCHAR
STARTCHAR p
ENCODING 112
SWIDTH 481 0
DWIDTH 10 0
BBX 14 18 -2 -9
BITMAP
0DC0
1FE0
1EE0
1CE0
1CE0
1CC4
3DCC
3FF8
7FF0
7C00
5800
D800
D800
9800
9800
F000
F000
E000
ENDCHAR
STARTCHAR q
ENCODING 113
SWIDTH 500 0
DWIDTH 10 0
BBX 12 18 1 -8
BITMAP
0380
1F00
3F00
7700
E700
C600
CEF0
CFE0
FF80
7C80
0C80
0C80
0D80
0D80
0D80
0D00
0F00
0600
ENDCHAR
STARTCHAR r
ENCODING 114
SWIDTH 455 0
DWIDTH 9 0
BBX 11 9 1 0
BITMAP
6700
6F00
FF00
FB60
F7E0
E3C0
E000
E000
C000
ENDCHAR
STARTCHAR s
ENCODING 115
SWIDTH 427 0
DWIDTH 9 0
BBX 11 9 0 0
BITMAP
0C00
1C00
1C00
3C00
3E20
6760
DFE0
9FC0
1F80
ENDCHAR
STARTCHAR t
ENCODING 116
SWIDTH 393 0
DWIDTH 8 0
BBX 10 17 0 0
BITMAP
0700
0F80
0D80
1980
1900
1B00
3A00
3600
FF80
FF80
3000
3000
3000
3040
38C0
1F80
0F00
ENDCHAR
STARTCHAR u
ENCODING 117
SWIDTH 462 0
DWIDTH 9 0
BBX 11 9 1 0
BITMAP
6300
6700
E600
E600
CE00
CE60
FEE0
F7C0
6700
ENDCHAR
STARTCHAR v
ENCODING 118
SWIDTH 449 0
DWIDTH 9 0
BBX 11 9 1 0
BITMAP
C700
CF00
CF00
CFE0
EFC0
FC00
F800
F000
7000
ENDCHAR
STARTCHAR w
ENCODING 119
SWIDTH 700 0
DWIDTH 14 0
BBX 16 9 1 0
BITMAP
C638
C678
C678
CF7F
EF7E
FFE0
FFC0
F380
6380
ENDCHAR
STARTCHAR x
ENCODING 120
SWIDTH 529 0
DWIDTH 11 0
BBX 13 9 0 0
BITMAP
3CE0
3FE0
3760
0700
2608
6E18
EF38
FFF0
73E0
ENDCHAR
STARTCHAR y
ENCODING 121
SWIDTH 479 0
DWIDTH 10 0
BBX 12 18 0 -9
BITMAP
3180
3380
7300
7300
6700
6730
7FE0
7FC0
3700
0E00
1E00
3600
6E00
4C00
CC00
D800
F800
7000
ENDCHAR
STARTCHAR z
ENCODING 122
SWIDTH 445 0
DWIDTH 9 0
BBX 11 9 1 0
BITMAP
FF00
FF00
1E00
3800
7000
E060
E1C0
7F80
3E00
ENDCHAR
STARTCHAR braceleft
ENCODING 123
SWIDTH 490 0
DWIDTH 10 0
BBX 11 20 1 -2
BITMAP
03C0
07E0
0E00
0E00
0E00
0E00
0C00
0C00
1C00
F800
F800
1C00
1C00
1800
1800
3800
3800
3800
1F80
0F00
ENDCHAR
STARTCHAR bar
ENCODING 124
SWIDTH 326 0
DWIDTH 7 0
BBX 5 24 1 -6
BITMAP
18
18
18
18
38
38
38
30
30
30
70
70
70
60
60
60
60
E0
E0
E0
C0
C0
C0
C0
ENDCHAR
STARTCHAR braceright
ENCODING 125
SWIDTH 490 0
DWIDTH 10 0
BBX 11 20 -1 -2
BITMAP
3E00
3F00
0700
0300
0300
0700
0700
0700
03E0
03E0
0700
0600
0E00
0E00
0E00
0E00
0E00
1C00
FC00
F800
ENDCHAR
STARTCHAR asciitilde
ENCODING 126
SWIDTH 700 0
DWIDTH 14 0
BBX 11 5 2 3
BITMAP
2040
78E0
FEC0
C7C0
8380
ENDCHAR
STARTCHAR uni00A0
ENCODING 160
SWIDTH 265 0
DWIDTH 5 0
BBX 1 1 0 0
BITMAP
00
ENDCHAR
STARTCHAR exclamdown
ENCODING 161
SWIDTH 340 0
DWIDTH 7 0
BBX 7 17 -1 -8
BITMAP
0E
1E
1E
0E
00
0C
18
18
18
38
38
30
70
70
70
70
E0
ENDCHAR
STARTCHAR cent
ENCODING 162
SWIDTH 466 0
DWIDTH 9 0
BBX 8 14 1 -3
BITMAP
08
08
08
3E
7E
EB
DE
D8
D3
F7
7E
18
10
30
ENDCHAR
STARTCHAR sterling
ENCODING 163
SWIDTH 525 0
DWIDTH 11 0
BBX 10 11 0 0
BITMAP
0F80
1FC0
38C0
3840
3000
7F00
7F00
3000
3000
7FC0
FFC0
ENDCHAR
STARTCHAR currency
ENCODING 164
SWIDTH 700 0
DWIDTH 14 0
BBX 10 9 2 1
BITMAP
DEC0
7F80
3380
6180
6180
6180
7180
7F80
FEC0
ENDCHAR
STARTCHAR yen
ENCODING 165
SWIDTH 497 0
DWIDTH 10 0
BBX 10 12 1 0
BITMAP
8080
C1C0
E380
6300
7700
3E00
3C00
FF00
1800
FF00
3800
3800
ENDCHAR
STARTCHAR brokenbar
ENCODING 166
SWIDTH 326 0
DWIDTH 7 0
BBX 5 24 1 -6
BITMAP
18
18
18
38
38
38
38
30
30
30
00
00
00
00
60
60
60
E0
E0
E0
C0
C0
C0
C0
ENDCHAR
STARTCHAR section
ENCODING 167
SWIDTH 607 0
DWIDTH 12 0
BBX 10 16 1 0
BITMAP
0F80
1FC0
38C0
30C0
38C0
1E00
3F80
73C0
71C0
3D80
1F80
4380
E180
E380
7F00
3E00
ENDCHAR
STARTCHAR dieresis
ENCODING 168
SWIDTH 600 0
DWIDTH 12 0
BBX 7 3 3 10
BITMAP
CE
EE
CC
ENDCHAR
STARTCHAR copyright
ENCODING 169
SWIDTH 647 0
DWIDTH 13 0
BBX 11 11 2 7
BITMAP
1F00
7180
4E40
D960
9320
B020
9020
D160
CE40
60C0
1F00
ENDCHAR
STARTCHAR ordfeminine
ENCODING 170
SWIDTH 393 0
DWIDTH 8 0
BBX 7 8 2 9
BITMAP
38
7E
EC
CC
CC
DC
FC
EC
ENDCHAR
STARTCHAR guillemotleft
ENCODING 171
SWIDTH 615 0
DWIDTH 12 0
BBX 10 7 1 1
BITMAP
18C0
79C0
E780
C700
F780
79C0
18C0
ENDCHAR
STARTCHAR logicalnot
ENCODING 172
SWIDTH 700 0
DWIDTH 14 0
BBX 11 6 2 0
BITMAP
FFC0
FFE0
00C0
00C0
00C0
00C0
ENDCHAR
STARTCHAR uni00AD
ENCODING 173
SWIDTH 403 0
DWIDTH 8 0
BBX 6 3 1 5
BITMAP
0C
FC
FC
ENDCHAR
STARTCHAR registered
ENCODING 174
SWIDTH 647 0
DWIDTH 13 0
BBX 11 11 2 7
BITMAP
1F00
7180
5E40
C960
8B20
9C20
9E20
D260
D340
60C0
1F00
ENDCHAR
STARTCHAR macron
ENCODING 175
SWIDTH 600 0
DWIDTH 12 0
BBX 6 2 3 10
BITMAP
FC
FC
ENDCHAR
STARTCHAR degree
ENCODING 176
SWIDTH 385 0
DWIDTH 8 0
BBX 6 6 2 10
BITMAP
78
FC
CC
CC
FC
78
ENDCHAR
STARTCHAR plusminus
ENCODING 177
SWIDTH 700 0
DWIDTH 14 0
BBX 10 11 2 0
BITMAP
0600
0E00
0E00
7FC0
7FC0
0C00
0C00
0C00
0000
FF80
FF80
ENDCHAR
STARTCHAR uni00B2
ENCODING 178
SWIDTH 450 0
DWIDTH 9 0
BBX 8 10 1 7
BITMAP
3E
7F
67
67
06
0E
1C
38
FF
FF
ENDCHAR
STARTCHAR uni00B3
ENCODING 179
SWIDTH 450 0
DWIDTH 9 0
BBX 8 10 1 7
BITMAP
3E
7F
63
47
1E
1E
07
C7
7F
3C
ENDCHAR
STARTCHAR acute
ENCODING 180
SWIDTH 600 0
DWIDTH 12 0
BBX 5 6 5 10
BITMAP
30
38
30
60
60
C0
ENDCHAR
STARTCHAR uni00B5
ENCODING 181
SWIDTH 462 0
DWIDTH 9 0
BBX 11 14 1 -5
BITMAP
6300
6700
E600
E600
CE00
CE60
FEE0
F7C0
E700
C000
C000
C000
C000
C000
ENDCHAR
STARTCHAR paragraph
ENCODING 182
SWIDTH 739 0
DWIDTH 15 0
BBX 12 16 2 0
BITMAP
1FE0
7FF0
FE70
FE70
FE70
FE60
7E60
0EE0
0CE0
0CE0
1CE0
1CC0
1CC0
1DC0
1DC0
19C0
ENDCHAR
STARTCHAR periodcentered
ENCODING 183
SWIDTH 257 0
DWIDTH 5 0
BBX 4 4 1 3
BITMAP
60
F0
F0
E0
ENDCHAR
STARTCHAR cedilla
ENCODING 184
SWIDTH 600 0
DWIDTH 12 0
BBX 6 6 1 -5
BITMAP
78
7C
0C
0C
F8
F0
ENDCHAR
STARTCHAR uni00B9
ENCODING 185
SWIDTH 450 0
DWIDTH 9 0
BBX 6 10 2 7
BITMAP
3C
FC
D8
18
18
18
38
38
38
30
ENDCHAR
STARTCHAR ordmasculine
ENCODING 186
SWIDTH 408 0
DWIDTH 8 0
BBX 7 8 2 9
BITMAP
38
FC
CC
CE
CC
CC
FC
70
ENDCHAR
STARTCHAR guillemotright
ENCODING 187
SWIDTH 615 0
DWIDTH 12 0
BBX 11 7 1 1
BITMAP
C300
F780
79C0
18E0
39E0
F780
C600
ENDCHAR
STARTCHAR onequarter
ENCODING 188
SWIDTH 955 0
DWIDTH 19 0
BBX 17 17 2 0
BITMAP
3C0000
FC0000
D80000
183000
187000
186000
38E000
38CC00
399800
339B00
033700
073600
0E6600
0C7F80
0C7F00
000600
000600
ENDCHAR
STARTCHAR onehalf
ENCODING 189
SWIDTH 1024 0
DWIDTH 20 0
BBX 18 17 2 0
BITMAP
3C0000
FC0000
D80000
183000
187000
186000
38E000
38CF00
399F80
33B180
033180
070180
0E0300
0C0700
0C1C00
003FC0
003F80
ENDCHAR
STARTCHAR threequarters
ENCODING 190
SWIDTH 1035 0
DWIDTH 21 0
BBX 19 17 1 0
BITMAP
3E0000
7F0000
630000
470400
1E0E00
1E1C00
071800
C73B00
7F7300
3C66C0
00E6C0
00CCC0
018CC0
038FE0
030FE0
0001C0
000180
ENDCHAR
STARTCHAR questiondown
ENCODING 191
SWIDTH 476 0
DWIDTH 10 0
BBX 9 17 -1 -8
BITMAP
0380
0380
0380
0380
0000
0200
0600
0600
0E00
1C00
3800
7000
E380
E380
E380
7F00
3E00
ENDCHAR
STARTCHAR Agrave
ENCODING 192
SWIDTH 786 0
DWIDTH 16 0
BBX 17 23 1 0
BITMAP
020000
030000
03C000
01E000
007000
000000
000000
00FE00
07FF00
0F8600
1C1800
381C00
701800
703800
703800
E03800
E07000
E07000
E07000
E0F080
71F980
7F3F00
1E1E00
ENDCHAR
STARTCHAR Aacute
ENCODING 193
SWIDTH 786 0
DWIDTH 16 0
BBX 17 23 1 0
BITMAP
000200
000700
000F00
001C00
003000
000000
000000
00FE00
07FF00
0F8600
1C1800
381C00
701800
703800
703800
E03800
E07000
E07000
E07000
E0F080
71F980
7F3F00
1E1E00
ENDCHAR
STARTCHAR Acircumflex
ENCODING 194
SWIDTH 786 0
DWIDTH 16 0
BBX 17 23 1 0
BITMAP
003800
006800
006C00
00CC00
00CC00
000000
000000
00FE00
07FF00
0F8600
1C1800
381C00
701800
703800
703800
E03800
E07000
E07000
E07000
E0F080
71F980
7F3F00
1E1E00
ENDCHAR
STARTCHAR Atilde
ENCODING 195
SWIDTH 786 0
DWIDTH 16 0
BBX 17 22 1 0
BITMAP
00E200
01F700
01BE00
010C00
000000
000000
00FE00
07FF00
0F8600
1C1800
381C00
701800
703800
703800
E03800
E07000
E07000
E07000
E0F080
71F980
7F3F00
1E1E00
ENDCHAR
STARTCHAR Adieresis
ENCODING 196
SWIDTH 786 0
DWIDTH 16 0
BBX 17 21 1 0
BITMAP
00CE00
00EE00
00CC00
000000
000000
00FE00
07FF00
0F8600
1C1800
381C00
701800
703800
703800
E03800
E07000
E07000
E07000
E0F080
71F980
7F3F00
1E1E00
ENDCHAR
STARTCHAR Aring
ENCODING 197
SWIDTH 786 0
DWIDTH 16 0
BBX 17 24 1 0
BITMAP
003800
007C00
006C00
006C00
007C00
003800
000000
000000
00FE00
07FF00
0F8600
1C1800
381C00
701800
703800
703800
E03800
E07000
E07000
E07000
E0F080
71F980
7F3F00
1E1E00
ENDCHAR
STARTCHAR AE
ENCODING 198
SWIDTH 1015 0
DWIDTH 20 0
BBX 22 16 1 0
BITMAP
01E7F8
07EFF0
0F0C00
1C1C00
381C00
701C00
703800
703FE0
E03FE0
E07800
E07800
E07800
E0F804
71FC1C
7F9FF8
1E07E0
ENDCHAR
STARTCHAR Ccedilla
ENCODING 199
SWIDTH 686 0
DWIDTH 14 0
BBX 15 21 1 -5
BITMAP
03E0
0FF0
1E38
3838
7038
7038
7000
E000
E000
E000
E000
7000
7002
3C1E
1FFE
0FF0
0F80
0180
0180
1F00
1E00
ENDCHAR
STARTCHAR Egrave
ENCODING 200
SWIDTH 686 0
DWIDTH 14 0
BBX 15 23 1 0
BITMAP
0800
1C00
1E00
0700
0180
0000
0000
07E0
1FF8
3C38
3818
3838
3810
1F80
3F00
7800
E000
E000
E000
E002
F01E
7FFE
1FF0
ENDCHAR
STARTCHAR Eacute
ENCODING 201
SWIDTH 686 0
DWIDTH 14 0
BBX 15 23 1 0
BITMAP
0008
001C
0078
00F0
00C0
0000
0000
07E0
1FF8
3C38
3818
3838
3810
1F80
3F00
7800
E000
E000
E000
E002
F01E
7FFE
1FF0
ENDCHAR
STARTCHAR Ecircumflex
ENCODING 202
SWIDTH 686 0
DWIDTH 14 0
BBX 15 23 1 0
BITMAP
00C0
01E0
0360
0730
0630
0000
0000
07E0
1FF8
3C38
3818
3838
3810
1F80
3F00
7800
E000
E000
E000
E002
F01E
7FFE
1FF0
ENDCHAR
STARTCHAR Edieresis
ENCODING 203
SWIDTH 686 0
DWIDTH 14 0
BBX 15 21 1 0
BITMAP
0730
0770
0770
0000
0000
07E0
1FF8
3C38
3818
3838
3810
1F80
3F00
7800
E000
E000
E000
E002
F01E
7FFE
1FF0
ENDCHAR
STARTCHAR Igrave
ENCODING 204
SWIDTH 495 0
DWIDTH 10 0
BBX 11 23 0 0
BITMAP
2000
7000
3C00
1E00
0600
0000
0000
3FE0
3FE0
0700
0700
0600
0E00
0E00
0E00
0E00
0E00
0C00
1C00
1C00
1C00
FF80
FF80
ENDCHAR
STARTCHAR Iacute
ENCODING 205
SWIDTH 495 0
DWIDTH 10 0
BBX 12 23 0 0
BITMAP
0020
0070
00F0
01C0
0300
0000
0000
3FE0
3FE0
0700
0700
0600
0E00
0E00
0E00
0E00
0E00
0C00
1C00
1C00
1C00
FF80
FF80
ENDCHAR
STARTCHAR Icircumflex
ENCODING 206
SWIDTH 495 0
DWIDTH 10 0
BBX 11 23 0 0
BITMAP
0380
0780
0EC0
0CC0
1CC0
0000
0000
3FE0
3FE0
0700
0700
0600
0E00
0E00
0E00
0E00
0E00
0C00
1C00
1C00
1C00
FF80
FF80
ENDCHAR
STARTCHAR Idieresis
ENCODING 207
SWIDTH 495 0
DWIDTH 10 0
BBX 11 21 0 0
BITMAP
0CC0
0EE0
0CC0
0000
0000
3FE0
3FE0
0700
0700
0600
0E00
0E00
0E00
0E00
0E00
0C00
1C00
1C00
1C00
FF80
FF80
ENDCHAR
STARTCHAR Eth
ENCODING 208
SWIDTH 821 0
DWIDTH 16 0
BBX 16 16 0 0
BITMAP
07F0
07FC
0E1E
0E0E
0C07
1C07
7FC7
FFC7
1807
3807
380E
380E
381C
3878
3FF0
3FC0
ENDCHAR
STARTCHAR Ntilde
ENCODING 209
SWIDTH 884 0
DWIDTH 18 0
BBX 20 22 0 0
BITMAP
00E200
00F300
01BE00
010E00
000000
000000
1E1E00
3E3F00
666780
C6C380
868300
070700
0F0700
0F0700
0E0700
0E0E00
0E0E00
0E0E00
1C0E10
1C0E30
1C07E0
1C03C0
ENDCHAR
STARTCHAR Ograve
ENCODING 210
SWIDTH 816 0
DWIDTH 16 0
BBX 15 23 1 0
BITMAP
0800
1C00
0F00
0780
0180
0000
0000
03E0
0FF8
1E3C
381C
700E
700E
700E
E00E
E00E
E00E
E01C
701C
7038
7870
3FE0
0F80
ENDCHAR
STARTCHAR Oacute
ENCODING 211
SWIDTH 816 0
DWIDTH 16 0
BBX 15 23 1 0
BITMAP
0008
001C
003C
0070
00C0
0000
0000
03E0
0FF8
1E3C
381C
700E
700E
700E
E00E
E00E
E00E
E01C
701C
7038
7870
3FE0
0F80
ENDCHAR
STARTCHAR Ocircumflex
ENCODING 212
SWIDTH 816 0
DWIDTH 16 0
BBX 15 23 1 0
BITMAP
00E0
01E0
03B0
0330
0630
0000
0000
03E0
0FF8
1E3C
381C
700E
700E
700E
E00E
E00E
E00E
E01C
701C
7038
7870
3FE0
0F80
ENDCHAR
STARTCHAR Otilde
ENCODING 213
SWIDTH 816 0
DWIDTH 16 0
BBX 15 22 1 0
BITMAP
0388
07DC
06F8
0430
0000
0000
03E0
0FF8
1E3C
381C
700E
700E
700E
E00E
E00E
E00E
E01C
701C
7038
7870
3FE0
0F80
ENDCHAR
STARTCHAR Odieresis
ENCODING 214
SWIDTH 816 0
DWIDTH 16 0
BBX 15 21 1 0
BITMAP
0330
0738
0330
0000
0000
03E0
0FF8
1E3C
381C
700E
700E
700E
E00E
E00E
E00E
E01C
701C
7038
7870
3FE0
0F80
ENDCHAR
STARTCHAR multiply
ENCODING 215
SWIDTH 700 0
DWIDTH 14 0
BBX 10 9 2 1
BITMAP
2040
71C0
7B80
3F00
1E00
1E00
7F00
E380
C180
ENDCHAR
STARTCHAR Oslash
ENCODING 216
SWIDTH 816 0
DWIDTH 16 0
BBX 15 20 1 -2
BITMAP
0060
0060
03E0
0FF8
1CFC
38DC
70CE
718E
718E
E18E
E38E
E30E
E31C
F31C
7638
7E70
3FE0
0F80
0C00
0C00
ENDCHAR
STARTCHAR Ugrave
ENCODING 217
SWIDTH 890 0
DWIDTH 18 0
BBX 20 23 0 0
BITMAP
020000
070000
03C000
01E000
006000
000000
000000
1E0300
3F0380
670380
C70300
870700
070700
0E0700
0E0700
0E0F00
0E0E00
0C1E00
1C1600
1C3E10
1EEF70
0FC7E0
0783C0
ENDCHAR
STARTCHAR Uacute
ENCODING 218
SWIDTH 890 0
DWIDTH 18 0
BBX 20 23 0 0
BITMAP
000200
000700
000F00
001C00
003000
000000
000000
1E0300
3F0380
670380
C70300
870700
070700
0E0700
0E0700
0E0F00
0E0E00
0C1E00
1C1600
1C3E10
1EEF70
0FC7E0
0783C0
ENDCHAR
STARTCHAR Ucircumflex
ENCODING 219
SWIDTH 890 0
DWIDTH 18 0
BBX 20 23 0 0
BITMAP
003800
007800
00EC00
00CC00
01CC00
000000
000000
1E0300
3F0380
670380
C70300
870700
070700
0E0700
0E0700
0E0F00
0E0E00
0C1E00
1C1600
1C3E10
1EEF70
0FC7E0
0783C0
ENDCHAR
STARTCHAR Udieresis
ENCODING 220
SWIDTH 890 0
DWIDTH 18 0
BBX 20 21 0 0
BITMAP
00CC00
01CE00
00CC00
000000
000000
1E0300
3F0380
670380
C70300
870700
070700
0E0700
0E0700
0E0F00
0E0E00
0C1E00
1C1600
1C3E10
1EEF70
0FC7E0
0783C0
ENDCHAR
STARTCHAR Yacute
ENCODING 221
SWIDTH 851 0
DWIDTH 17 0
BBX 19 29 0 -6
BITMAP
000100
000700
000F00
001C00
003000
000000
000000
1E0380
3F0380
670380
C70300
870700
070700
0E0700
0E0F00
0E0F00
0E1F00
0E1E00
0E3600
0FE7E0
07CFE0
007E00
01CE00
030C00
071C00
061C00
073800
07F000
03E000
ENDCHAR
STARTCHAR Thorn
ENCODING 222
SWIDTH 776 0
DWIDTH 16 0
BBX 15 20 1 -2
BITMAP
0180
0380
0380
0380
07F0
0FF8
3F3C
371E
670E
670E
E71C
C73C
DFF8
DFE0
CE00
CE00
CE00
EE00
7C00
3C00
ENDCHAR
STARTCHAR germandbls
ENCODING 223
SWIDTH 596 0
DWIDTH 12 0
BBX 13 19 1 -4
BITMAP
0F80
1FC0
38C0
70C0
61C0
6380
E700
EE00
EF00
E7F0
EFF8
FCE0
DCC0
DFC0
CF80
C000
C000
C000
C000
ENDCHAR
STARTCHAR agrave
ENCODING 224
SWIDTH 470 0
DWIDTH 9 0
BBX 11 16 1 0
BITMAP
3000
3000
3800
1800
0C00
0C00
0000
1C00
3F00
7700
E600
C600
CE60
CEE0
FFC0
7380
ENDCHAR
STARTCHAR aacute
ENCODING 225
SWIDTH 470 0
DWIDTH 9 0
BBX 11 16 1 0
BITMAP
0180
0380
0300
0700
0600
0C00
0000
1C00
3F00
7700
E600
C600
CE60
CEE0
FFC0
7380
ENDCHAR
STARTCHAR acircumflex
ENCODING 226
SWIDTH 470 0
DWIDTH 9 0
BBX 11 17 1 0
BITMAP
0200
0E00
0F00
1B00
1B00
3380
3300
0000
1C00
3F00
7700
E600
C600
CE60
CEE0
FFC0
7380
ENDCHAR
STARTCHAR atilde
ENCODING 227
SWIDTH 470 0
DWIDTH 9 0
BBX 11 14 1 0
BITMAP
3880
3CC0
6F80
4300
0000
1C00
3F00
7700
E600
C600
CE60
CEE0
FFC0
7380
ENDCHAR
STARTCHAR adieresis
ENCODING 228
SWIDTH 470 0
DWIDTH 9 0
BBX 11 13 1 0
BITMAP
3B80
3B80
3380
0000
1C00
3F00
7700
E600
C600
CE60
CEE0
FFC0
7380
ENDCHAR
STARTCHAR aring
ENCODING 229
SWIDTH 470 0
DWIDTH 9 0
BBX 11 16 1 0
BITMAP
0E00
1F00
1B00
1B00
1F00
0E00
0000
1C00
3F00
7700
E600
C600
CE60
CEE0
FFC0
7380
ENDCHAR
STARTCHAR ae
ENCODING 230
SWIDTH 653 0
DWIDTH 13 0
BBX 15 9 1 0
BITMAP
1DE0
3FF0
7330
E630
C6E0
C7C6
CF1C
FBF8
71F0
ENDCHAR
STARTCHAR ccedilla
ENCODING 231
SWIDTH 368 0
DWIDTH 7 0
BBX 9 14 1 -5
BITMAP
3C00
7C00
EC00
EC00
C400
C080
C180
E300
7E00
7800
0C00
0C00
FC00
F800
ENDCHAR
STARTCHAR egrave
ENCODING 232
SWIDTH 393 0
DWIDTH 8 0
BBX 9 16 1 0
BITMAP
6000
6000
7000
3000
1800
0800
0000
3C00
7E00
E600
CE00
DC00
F080
E380
FF00
3E00
ENDCHAR
STARTCHAR eacute
ENCODING 233
SWIDTH 393 0
DWIDTH 8 0
BBX 9 16 1 0
BITMAP
0300
0700
0600
0E00
0C00
0800
0000
3C00
7E00
E600
CE00
DC00
F080
E380
FF00
3E00
ENDCHAR
STARTCHAR ecircumflex
ENCODING 234
SWIDTH 393 0
DWIDTH 8 0
BBX 9 17 1 0
BITMAP
0400
0E00
1E00
3E00
3600
7700
6300
0000
3C00
7E00
E600
CE00
DC00
F080
E380
FF00
3E00
ENDCHAR
STARTCHAR edieresis
ENCODING 235
SWIDTH 393 0
DWIDTH 8 0
BBX 9 13 1 0
BITMAP
7300
7700
7700
0000
3C00
7E00
E600
CE00
DC00
F080
E380
FF00
3E00
ENDCHAR
STARTCHAR igrave
ENCODING 236
SWIDTH 246 0
DWIDTH 5 0
BBX 8 16 0 0
BITMAP
C0
C0
E0
60
30
10
00
30
30
70
70
70
63
66
7C
38
ENDCHAR
STARTCHAR iacute
ENCODING 237
SWIDTH 246 0
DWIDTH 5 0
BBX 7 16 1 0
BITMAP
0C
1C
18
38
30
20
00
60
60
E0
E0
E0
C6
CC
F8
70
ENDCHAR
STARTCHAR icircumflex
ENCODING 238
SWIDTH 246 0
DWIDTH 5 0
BBX 8 17 0 0
BITMAP
08
1C
3C
7C
6C
EE
C6
00
30
30
70
70
70
63
66
7C
38
ENDCHAR
STARTCHAR idieresis
ENCODING 239
SWIDTH 246 0
DWIDTH 5 0
BBX 8 13 0 0
BITMAP
E6
EE
EE
00
30
30
70
70
70
63
66
7C
38
ENDCHAR
STARTCHAR eth
ENCODING 240
SWIDTH 451 0
DWIDTH 9 0
BBX 9 18 1 0
BITMAP
3000
3980
1F80
0F00
3E00
3600
0700
0700
0700
3F00
7F00
E700
C700
C700
C600
EE00
FC00
7800
ENDCHAR
STARTCHAR ntilde
ENCODING 241
SWIDTH 496 0
DWIDTH 10 0
BBX 12 14 1 0
BITMAP
1840
3EC0
6780
2380
0000
6700
6F00
FF00
FF00
F700
E630
E660
E7C0
C380
ENDCHAR
STARTCHAR ograve
ENCODING 242
SWIDTH 451 0
DWIDTH 9 0
BBX 11 16 1 0
BITMAP
6000
6000
7000
3000
1800
0800
0000
3C00
7E00
EF00
CFE0
C7C0
C600
E600
FC00
7800
ENDCHAR
STARTCHAR oacute
ENCODING 243
SWIDTH 451 0
DWIDTH 9 0
BBX 11 16 1 0
BITMAP
0300
0700
0600
0E00
0C00
0800
0000
3C00
7E00
EF00
CFE0
C7C0
C600
E600
FC00
7800
ENDCHAR
STARTCHAR ocircumflex
ENCODING 244
SWIDTH 451 0
DWIDTH 9 0
BBX 11 17 1 0
BITMAP
0400
1E00
1E00
3600
3600
6700
6200
0000
3C00
7E00
EF00
CFE0
C7C0
C600
E600
FC00
7800
ENDCHAR
STARTCHAR otilde
ENCODING 245
SWIDTH 451 0
DWIDTH 9 0
BBX 11 14 1 0
BITMAP
3080
7980
CF00
4600
0000
3C00
7E00
EF00
CFE0
C7C0
C600
E600
FC00
7800
ENDCHAR
STARTCHAR odieresis
ENCODING 246
SWIDTH 451 0
DWIDTH 9 0
BBX 11 13 1 0
BITMAP
7700
7700
6700
0000
3C00
7E00
EF00
CFE0
C7C0
C600
E600
FC00
7800
ENDCHAR
STARTCHAR divide
ENCODING 247
SWIDTH 700 0
DWIDTH 14 0
BBX 11 11 2 0
BITMAP
0E00
0E00
0E00
0000
0000
FFE0
FFC0
0000
1C00
1C00
1C00
ENDCHAR
STARTCHAR oslash
ENCODING 248
SWIDTH 459 0
DWIDTH 9 0
BBX 11 14 1 -2
BITMAP
0400
0C00
0800
3C00
7E00
FF00
DFE0
D3E0
D700
D600
FE00
7C00
3000
2000
ENDCHAR
STARTCHAR ugrave
ENCODING 249
SWIDTH 462 0
DWIDTH 9 0
BBX 11 16 1 0
BITMAP
3000
7000
3000
1800
1800
0C00
0000
6300
6700
E600
E600
CE00
CE60
FEE0
F7C0
6700
ENDCHAR
STARTCHAR uacute
ENCODING 250
SWIDTH 462 0
DWIDTH 9 0
BBX 11 16 1 0
BITMAP
0300
0380
0700
0600
0400
0C00
0000
6300
6700
E600
E600
CE00
CE60
FEE0
F7C0
6700
ENDCHAR
STARTCHAR ucircumflex
ENCODING 251
SWIDTH 462 0
DWIDTH 9 0
BBX 11 17 1 0
BITMAP
0400
0E00
0E00
1B00
3B00
3300
7300
0000
6300
6700
E600
E600
CE00
CE60
FEE0
F7C0
6700
ENDCHAR
STARTCHAR udieresis
ENCODING 252
SWIDTH 462 0
DWIDTH 9 0
BBX 11 13 1 0
BITMAP
3300
3B80
3300
0000
6300
6700
E600
E600
CE00
CE60
FEE0
F7C0
6700
ENDCHAR
STARTCHAR yacute
ENCODING 253
SWIDTH 479 0
DWIDTH 10 0
BBX 12 25 0 -9
BITMAP
0180
01C0
0380
0300
0200
0600
0000
3180
3380
7300
7300
6700
6730
7FE0
7FC0
3700
0E00
1E00
3600
6E00
4C00
CC00
D800
F800
7000
ENDCHAR
STARTCHAR thorn
ENCODING 254
SWIDTH 508 0
DWIDTH 10 0
BBX 13 21 0 -6
BITMAP
1800
1800
3800
3800
3000
3000
3380
7780
7D80
7980
7188
7398
7730
7FF0
7DC0
6000
6000
6000
6000
E000
E000
ENDCHAR
STARTCHAR ydieresis
ENCODING 255
SWIDTH 479 0
DWIDTH 10 0
BBX 12 22 0 -9
BITMAP
1980
1DC0
1980
0000
3180
3380
7300
7300
6700
6730
7FE0
7FC0
3700
0E00
1E00
3600
6E00
4C00
CC00
D800
F800
7000
ENDCHAR
STARTCHAR Amacron
ENCODING 256
SWIDTH 786 0
DWIDTH 16 0
BBX 17 20 1 0
BITMAP
00FC00
00FC00
000000
000000
00FE00
07FF00
0F8600
1C1800
381C00
701800
703800
703800
E03800
E07000
E07000
E07000
E0F080
71F980
7F3F00
1E1E00
ENDCHAR
STARTCHAR amacron
ENCODING 257
SWIDTH 470 0
DWIDTH 9 0
BBX 11 12 1 0
BITMAP
3F00
3F00
0000
1C00
3F00
7700
E600
C600
CE60
CEE0
FFC0
7380
ENDCHAR
STARTCHAR Abreve
ENCODING 258
SWIDTH 786 0
DWIDTH 16 0
BBX 17 22 1 0
BITMAP
008200
01C600
01FE00
007C00
000000
000000
00FE00
07FF00
0F8600
1C1800
381C00
701800
703800
703800
E03800
E07000
E07000
E07000
E0F080
71F980
7F3F00
1E1E00
ENDCHAR
STARTCHAR abreve
ENCODING 259
SWIDTH 470 0
DWIDTH 9 0
BBX 11 15 1 0
BITMAP
2080
71C0
7180
3F80
1E00
0000
1C00
3F00
7700
E600
C600
CE60
CEE0
FFC0
7380
ENDCHAR
STARTCHAR Aogonek
ENCODING 260
SWIDTH 786 0
DWIDTH 16 0
BBX 17 21 1 -5
BITMAP
00FE00
07FF00
0F0200
1C1800
381C00
703800
703800
703800
E03800
E07000
E07000
E07000
E0F080
71F980
7F3F00
1E1E00
001800
003000
003800
001F00
000E00
ENDCHAR
STARTCHAR aogonek
ENCODING 261
SWIDTH 470 0
DWIDTH 9 0
BBX 11 14 1 -5
BITMAP
1C00
3F00
7700
E600
C600
CE60
CEE0
FFC0
7380
0600
0C00
0C00
0F80
0300
ENDCHAR
STARTCHAR Cacute
ENCODING 262
SWIDTH 686 0
DWIDTH 14 0
BBX 15 23 1 0
BITMAP
0008
001C
003C
0070
00C0
0000
0000
03E0
0FF0
1E38
3838
7038
7038
7000
E000
E000
E000
E000
7000
7002
3C1E
1FFE
07F0
ENDCHAR
STARTCHAR cacute
ENCODING 263
SWIDTH 368 0
DWIDTH 7 0
BBX 9 16 1 0
BITMAP
0300
0700
0600
0E00
0C00
0800
0000
3C00
7C00
EC00
CC00
C000
C180
E380
FF00
7C00
ENDCHAR
STARTCHAR Ccircumflex
ENCODING 264
SWIDTH 686 0
DWIDTH 14 0
BBX 15 23 1 0
BITMAP
00E0
01E0
03B0
0330
0630
0000
0000
03E0
0FF0
1E38
3838
7038
7038
7000
E000
E000
E000
E000
7000
7002
3C1E
1FFE
07F0
ENDCHAR
STARTCHAR ccircumflex
ENCODING 265
SWIDTH 368 0
DWIDTH 7 0
BBX 9 17 1 0
BITMAP
0400
1C00
1E00
3600
3600
6700
6200
0000
3C00
7C00
EC00
CC00
C000
C180
E380
FF00
7C00
ENDCHAR
STARTCHAR Cdotaccent
ENCODING 266
SWIDTH 686 0
DWIDTH 14 0
BBX 15 21 1 0
BITMAP
00C0
01E0
01C0
0000
0000
03E0
0FF0
1E38
3838
7038
7038
7000
E000
E000
E000
E000
7000
7002
3C1E
1FFE
07F0
ENDCHAR
STARTCHAR cdotaccent
ENCODING 267
SWIDTH 368 0
DWIDTH 7 0
BBX 9 13 1 0
BITMAP
1C00
1C00
1C00
0000
3C00
7C00
EC00
CC00
C000
C180
E380
FF00
7C00
ENDCHAR
STARTCHAR Ccaron
ENCODING 268
SWIDTH 686 0
DWIDTH 14 0
BBX 15 23 1 0
BITMAP
0318
0330
01F0
01E0
00C0
0000
0000
03E0
0FF0
1E38
3838
7038
7038
7000
E000
E000
E000
E000
7000
7002
3C1E
1FFE
07F0
ENDCHAR
STARTCHAR ccaron
ENCODING 269
SWIDTH 368 0
DWIDTH 7 0
BBX 9 17 1 0
BITMAP
2100
3300
3300
3600
3600
1C00
1800
0000
3C00
7C00
EC00
CC00
C000
C180
E380
FF00
7C00
ENDCHAR
STARTCHAR Dcaron
ENCODING 270
SWIDTH 836 0
DWIDTH 17 0
BBX 15 23 1 0
BITMAP
0630
0770
0360
03C0
0180
0000
0000
0FE0
7FF8
F83C
C01E
1C0E
1C0E
180E
380E
380E
380E
380E
301C
703C
70F8
7FE0
3F80
ENDCHAR
STARTCHAR dcaron
ENCODING 271
SWIDTH 470 0
DWIDTH 9 0
BBX 12 19 1 0
BITMAP
0010
0030
0030
01B0
01A0
0380
0380
0380
0300
0300
1F00
3F00
7700
E600
C600
CE60
CEE0
FFC0
7380
ENDCHAR
STARTCHAR Dcroat
ENCODING 272
SWIDTH 821 0
DWIDTH 16 0
BBX 16 16 0 0
BITMAP
07F0
07FC
0E1E
0E0E
0C07
1C07
7FC7
FFC7
1807
3807
380E
380E
381C
3878
3FF0
3FC0
ENDCHAR
STARTCHAR dcroat
ENCODING 273
SWIDTH 470 0
DWIDTH 9 0
BBX 11 16 1 0
BITMAP
0180
0380
0380
3FC0
3FC0
0300
0300
1F00
3F00
7700
E600
C600
CE60
CEE0
FFC0
7380
ENDCHAR
STARTCHAR Emacron
ENCODING 274
SWIDTH 686 0
DWIDTH 14 0
BBX 15 20 1 0
BITMAP
07F0
07F0
0000
0000
07E0
1FF8
3C38
3818
3838
3810
1F80
3F00
7800
E000
E000
E000
E002
F01E
7FFE
1FF0
ENDCHAR
STARTCHAR emacron
ENCODING 275
SWIDTH 393 0
DWIDTH 8 0
BBX 9 12 1 0
BITMAP
7F00
7E00
0000
3C00
7E00
E600
CE00
DC00
F080
E380
FF00
3E00
ENDCHAR
STARTCHAR Ebreve
ENCODING 276
SWIDTH 686 0
DWIDTH 14 0
BBX 15 22 1 0
BITMAP
0408
0638
07F0
03E0
0000
0000
07E0
1FF8
3C38
3818
3838
3810
1F80
3F00
7800
E000
E000
E000
E002
F01E
7FFE
1FF0
ENDCHAR
STARTCHAR ebreve
ENCODING 277
SWIDTH 393 0
DWIDTH 8 0
BBX 9 15 1 0
BITMAP
4100
E180
6300
7F00
3E00
0000
3C00
7E00
E600
CE00
DC00
F080
E380
FF00
3E00
ENDCHAR
STARTCHAR Edotaccent
ENCODING 278
SWIDTH 686 0
DWIDTH 14 0
BBX 15 21 1 0
BITMAP
01C0
01C0
01C0
0000
0000
07E0
1FF8
3C38
3818
3838
3810
1F80
3F00
7800
E000
E000
E000
E002
F01E
7FFE
1FF0
ENDCHAR
STARTCHAR edotaccent
ENCODING 279
SWIDTH 393 0
DWIDTH 8 0
BBX 9 13 1 0
BITMAP
1C00
1C00
1C00
0000
3C00
7E00
E600
CE00
DC00
F080
E380
FF00
3E00
ENDCHAR
STARTCHAR Eogonek
ENCODING 280
SWIDTH 686 0
DWIDTH 14 0
BBX 15 21 1 -5
BITMAP
07E0
1FF8
3C38
3818
3838
3810
1F80
3F00
7800
E000
E000
E000
E002
F01E
7FFE
1FF0
0300
0300
0300
03E0
01E0
ENDCHAR
STARTCHAR eogonek
ENCODING 281
SWIDTH 393 0
DWIDTH 8 0
BBX 9 14 1 -5
BITMAP
3C00
7E00
E600
CE00
DC00
F880
C180
FF80
7E00
1800
3000
3000
3E00
1E00
ENDCHAR
STARTCHAR Ecaron
ENCODING 282
SWIDTH 686 0
DWIDTH 14 0
BBX 15 23 1 0
BITMAP
0330
0330
0360
01E0
01C0
0000
0000
07E0
1FF8
3C38
3818
3838
3810
1F80
3F00
7800
E000
E000
E000
E002
F01E
7FFE
1FF0
ENDCHAR
STARTCHAR ecaron
ENCODING 283
SWIDTH 393 0
DWIDTH 8 0
BBX 9 17 1 0
BITMAP
2100
3380
3300
3600
1600
1C00
1C00
0000
3C00
7E00
E600
CE00
DC00
F080
E380
FF00
3E00
ENDCHAR
STARTCHAR Gcircumflex
ENCODING 284
SWIDTH 811 0
DWIDTH 16 0
BBX 17 32 1 -9
BITMAP
00E000
01B000
01B000
033000
033800
000000
000000
03F000
0FF800
1E3800
381C00
701C00
701800
700000
E00000
E00000
E0FC00
E0FC00
701C00
701C80
3C1F80
1FFF00
07FC00
003800
007800
00F800
01B000
033000
037000
036000
03E000
03C000
ENDCHAR
STARTCHAR gcircumflex
ENCODING 285
SWIDTH 479 0
DWIDTH 10 0
BBX 12 26 0 -9
BITMAP
0100
0700
0780
0D80
0D80
19C0
1980
0000
0E00
1F80
3B80
7300
6300
6330
67E0
7FC0
3F80
0E00
1E00
3600
6E00
6C00
CC00
D800
F800
7000
ENDCHAR
STARTCHAR Gbreve
ENCODING 286
SWIDTH 811 0
DWIDTH 16 0
BBX 17 31 1 -9
BITMAP
020800
071800
03F800
01F000
000000
000000
03F000
0FF800
1E3800
381C00
701C00
701800
700000
E00000
E00000
E0FC00
E0FC00
701C00
701C80
3C1F80
1FFF00
07FC00
003800
007800
00F800
01B000
033000
037000
036000
03E000
03C000
ENDCHAR
STARTCHAR gbreve
ENCODING 287
SWIDTH 479 0
DWIDTH 10 0
BBX 12 24 0 -9
BITMAP
1040
38E0
38C0
1FC0
0F00
0000
0E00
1F80
3B80
7300
6300
6330
67E0
7FC0
3F80
0E00
1E00
3600
6E00
6C00
CC00
D800
F800
7000
ENDCHAR
STARTCHAR Gdotaccent
ENCODING 288
SWIDTH 811 0
DWIDTH 16 0
BBX 17 30 1 -9
BITMAP
00E000
01E000
00E000
000000
000000
03F000
0FF800
1E3800
381C00
701C00
701800
700000
E00000
E00000
E0FC00
E0FC00
701C00
701C80
3C1F80
1FFF00
07FC00
003800
007800
00F800
01B000
033000
037000
036000
03E000
03C000
ENDCHAR
STARTCHAR gdotaccent
ENCODING 289
SWIDTH 479 0
DWIDTH 10 0
BBX 12 22 0 -9
BITMAP
0700
0700
0700
0000
0E00
1F80
3B80
7300
6300
6330
67E0
7FC0
3F80
0E00
1E00
3600
6E00
6C00
CC00
D800
F800
7000
ENDCHAR
STARTCHAR uni0122
ENCODING 290
SWIDTH 811 0
DWIDTH 16 0
BBX 17 25 1 -9
BITMAP
03F000
0FF800
1E3800
381C00
701C00
701800
700000
E00000
E00000
E0FC00
E0FC00
701C00
701C80
3C1F80
1FFF00
07FC00
003800
187800
1CF800
19B000
1B3000
037000
036000
03E000
03C000
ENDCHAR
STARTCHAR uni0123
ENCODING 291
SWIDTH 479 0
DWIDTH 10 0
BBX 12 24 0 -9
BITMAP
0300
0300
0300
0600
0600
0000
0E00
1F80
3B80
7300
6300
6330
67E0
7FC0
3F80
0E00
1E00
3600
6E00
6C00
CC00
D800
F800
7000
ENDCHAR
STARTCHAR Hcircumflex
ENCODING 292
SWIDTH 873 0
DWIDTH 17 0
BBX 20 23 0 0
BITMAP
003800
007800
00EC00
00CC00
018C00
000000
0001C0
1E03E0
7F0760
E70660
C70660
870E60
070CC0
070D80
060F00
3FFC00
3FFC00
0E1C00
0E1C00
0C1C10
1C0E70
1C0FE0
1807C0
ENDCHAR
STARTCHAR hcircumflex
ENCODING 293
SWIDTH 502 0
DWIDTH 10 0
BBX 12 24 1 0
BITMAP
0700
0F00
1D80
1980
3180
0000
0E00
1E00
3B00
3300
3200
7600
6600
6C00
7800
F700
FF00
EF00
FB00
F700
F730
E760
E7C0
C380
ENDCHAR
STARTCHAR Hbar
ENCODING 294
SWIDTH 856 0
DWIDTH 17 0
BBX 17 16 1 0
BITMAP
1C0E00
1C0E00
7FFF80
7FFF00
180C00
380C00
381C00
FFFF00
FFFF00
381C00
301C00
701800
703800
703800
703800
703800
ENDCHAR
STARTCHAR hbar
ENCODING 295
SWIDTH 502 0
DWIDTH 10 0
BBX 12 16 1 0
BITMAP
1800
3800
3800
FF00
FF00
7000
6000
6700
6F00
EF00
FB00
F700
F730
E760
E7C0
6380
ENDCHAR
STARTCHAR Itilde
ENCODING 296
SWIDTH 495 0
DWIDTH 10 0
BBX 12 22 0 0
BITMAP
0E20
1F70
1BE0
10C0
0000
0000
3FE0
3FE0
0700
0700
0600
0E00
0E00
0E00
0E00
0E00
0C00
1C00
1C00
1C00
FF80
FF80
ENDCHAR
STARTCHAR itilde
ENCODING 297
SWIDTH 246 0
DWIDTH 5 0
BBX 9 14 -1 0
BITMAP
3080
7D80
CF00
4700
0000
1800
1800
3800
3800
3800
3180
3300
3E00
1C00
ENDCHAR
STARTCHAR Imacron
ENCODING 298
SWIDTH 495 0
DWIDTH 10 0
BBX 11 20 0 0
BITMAP
0FC0
0FC0
0000
0000
3FE0
3FE0
0700
0700
0600
0E00
0E00
0E00
0E00
0E00
0C00
1C00
1C00
1C00
FF80
FF80
ENDCHAR
STARTCHAR imacron
ENCODING 299
SWIDTH 246 0
DWIDTH 5 0
BBX 8 12 0 0
BITMAP
FE
FC
00
30
30
70
70
70
63
66
7C
38
ENDCHAR
STARTCHAR Ibreve
ENCODING 300
SWIDTH 495 0
DWIDTH 10 0
BBX 11 22 0 0
BITMAP
0820
1C60
1FE0
0780
0000
0000
3FE0
3FE0
0700
0700
0600
0E00
0E00
0E00
0E00
0E00
0C00
1C00
1C00
1C00
FF80
FF80
ENDCHAR
STARTCHAR ibreve
ENCODING 301
SWIDTH 246 0
DWIDTH 5 0
BBX 8 15 0 0
BITMAP
82
C3
C7
FE
7C
00
30
30
70
70
70
63
66
7C
38
ENDCHAR
STARTCHAR Iogonek
ENCODING 302
SWIDTH 495 0
DWIDTH 10 0
BBX 11 21 0 -5
BITMAP
3FE0
3FE0
0700
0700
0600
0E00
0E00
0E00
0E00
0E00
0C00
1C00
1C00
1C00
FF80
FF80
3800
3000
3000
3E00
1E00
ENDCHAR
STARTCHAR iogonek
ENCODING 303
SWIDTH 246 0
DWIDTH 5 0
BBX 7 18 1 -5
BITMAP
70
70
70
00
60
60
E0
E0
E0
C6
CC
F8
70
C0
C0
C0
F8
70
ENDCHAR
STARTCHAR Idotaccent
ENCODING 304
SWIDTH 495 0
DWIDTH 10 0
BBX 11 21 0 0
BITMAP
0380
0780
0300
0000
0000
3FE0
3FE0
0700
0700
0600
0E00
0E00
0E00
0E00
0E00
0C00
1C00
1C00
1C00
FF80
FF80
ENDCHAR
STARTCHAR dotlessi
ENCODING 305
SWIDTH 246 0
DWIDTH 5 0
BBX 7 9 1 0
BITMAP
60
60
E0
E0
E0
C6
CC
F8
70
ENDCHAR
STARTCHAR Jcircumflex
ENCODING 308
SWIDTH 743 0
DWIDTH 15 0
BBX 14 25 1 -2
BITMAP
01C0
03C0
0360
0660
0E60
0000
0000
0FF8
3FFC
7038
6038
E038
6038
6038
0038
01F0
03F0
0F70
1C70
1860
38E0
38C0
39C0
3F80
1F00
ENDCHAR
STARTCHAR jcircumflex
ENCODING 309
SWIDTH 254 0
DWIDTH 5 0
BBX 12 26 -5 -9
BITMAP
0040
00E0
01E0
03E0
0360
0770
0630
0000
0180
0180
0380
0380
0380
03B0
0370
03E0
0380
0700
0F00
1E00
3600
6600
6C00
CC00
7800
7000
ENDCHAR
STARTCHAR uni0136
ENCODING 310
SWIDTH 937 0
DWIDTH 19 0
BBX 20 21 1 -5
BITMAP
1FC0C0
7FE1C0
71C1C0
E1C380
E1C380
618700
039E00
07F800
07F000
03B800
039C00
831C10
C70E10
C70F70
FE07E0
7C03C0
000000
00C000
00C000
00C000
008000
ENDCHAR
STARTCHAR uni0137
ENCODING 311
SWIDTH 525 0
DWIDTH 11 0
BBX 12 24 1 -6
BITMAP
0E00
1E00
3B00
3300
3600
6600
6400
6C00
7800
F780
EF80
F980
F980
F700
FE30
EE70
E7E0
63C0
0000
1800
3800
3000
3000
3000
ENDCHAR
STARTCHAR kgreenlandic
ENCODING 312
SWIDTH 465 0
DWIDTH 9 0
BBX 11 9 1 0
BITMAP
6700
6F80
FD80
D980
F800
F860
FCE0
EFC0
C700
ENDCHAR
STARTCHAR Lacute
ENCODING 313
SWIDTH 673 0
DWIDTH 13 0
BBX 17 23 -1 0
BITMAP
000100
000700
000F00
001E00
003000
000000
000000
00FC00
01FE00
038700
070700
070700
0E0600
0E0000
0E0000
0E0000
0E0000
0E0000
0E0000
7E0180
FFC380
FFFF00
787C00
ENDCHAR
STARTCHAR lacute
ENCODING 314
SWIDTH 326 0
DWIDTH 7 0
BBX 11 24 1 0
BITMAP
0040
00E0
01E0
0780
0600
0000
0E00
1E00
3B00
3300
7200
6600
6600
6600
EC00
EC00
F800
F800
F000
E000
E300
6700
7E00
3C00
ENDCHAR
STARTCHAR uni013B
ENCODING 315
SWIDTH 673 0
DWIDTH 13 0
BBX 17 21 -1 -5
BITMAP
00FC00
01FE00
038700
070700
070700
0E0600
0E0000
0E0000
0E0000
0E0000
0E0000
0E0000
7E0180
FFC380
FFFF00
787C00
000000
030000
038000
030000
030000
ENDCHAR
STARTCHAR uni013C
ENCODING 316
SWIDTH 326 0
DWIDTH 7 0
BBX 8 24 1 -6
BITMAP
0E
1E
3B
33
72
66
66
66
EC
EC
F8
F8
F0
E0
E3
67
7E
3C
00
30
70
60
60
60
ENDCHAR
STARTCHAR Lcaron
ENCODING 317
SWIDTH 673 0
DWIDTH 13 0
BBX 19 18 -1 0
BITMAP
000040
0000E0
00FCE0
01FEC0
0387C0
070700
070700
0E0600
0E0000
0E0000
0E0000
0E0000
0E0000
0E0000
7E0180
FFC380
FFFF00
787C00
ENDCHAR
STARTCHAR lcaron
ENCODING 318
SWIDTH 237 0
DWIDTH 5 0
BBX 8 19 1 0
BITMAP
02
07
06
3E
3E
30
70
70
70
60
60
E0
E0
E0
C0
C4
CC
F8
70
ENDCHAR
STARTCHAR Ldot
ENCODING 319
SWIDTH 673 0
DWIDTH 13 0
BBX 17 16 -1 0
BITMAP
00FC00
01FE00
038700
070700
070700
0E0600
0E0000
0E7000
0E7000
0E7000
0E0000
0E0000
7E0180
FFC380
FFFF00
787C00
ENDCHAR
STARTCHAR ldot
ENCODING 320
SWIDTH 363 0
DWIDTH 7 0
BBX 9 18 1 0
BITMAP
1800
3800
3800
3800
3000
7000
7000
7000
6E00
6E00
EE00
E000
E000
E000
E180
E380
7F00
3C00
ENDCHAR
STARTCHAR Lslash
ENCODING 321
SWIDTH 673 0
DWIDTH 13 0
BBX 17 20 -1 0
BITMAP
007F00
03FF00
03C000
020000
00FC00
01FE00
038E00
070700
070700
0E0600
0E0000
0E0000
0E0000
0E0000
0E0000
0E0000
7E0180
FFC380
FFFF00
787C00
ENDCHAR
STARTCHAR lslash
ENCODING 322
SWIDTH 326 0
DWIDTH 7 0
BBX 11 20 1 0
BITMAP
07C0
1FE0
3C00
3000
0E00
1E00
3300
3300
7200
6600
6600
EC00
EC00
F800
F000
F000
E100
6700
7E00
3C00
ENDCHAR
STARTCHAR Nacute
ENCODING 323
SWIDTH 884 0
DWIDTH 18 0
BBX 20 23 0 0
BITMAP
000100
000700
000F00
001C00
003000
000000
000000
1E1E00
3E3F00
666780
C6C380
868300
070700
0F0700
0F0700
0E0700
0E0E00
0E0E00
0E0E00
1C0E10
1C0E30
1C07E0
1C03C0
ENDCHAR
STARTCHAR nacute
ENCODING 324
SWIDTH 496 0
DWIDTH 10 0
BBX 12 16 1 0
BITMAP
0180
0380
0300
0700
0600
0400
0000
6700
6F00
FF00
FF00
F700
E630
E660
E7C0
C380
ENDCHAR
STARTCHAR uni0145
ENCODING 325
SWIDTH 884 0
DWIDTH 18 0
BBX 20 21 0 -5
BITMAP
1E1E00
3E3F00
666780
C6C380
868300
070700
0F0700
0F0700
0E0700
0E0E00
0E0E00
0E0E00
1C0E10
1C0E30
1C07E0
1C03C0
000000
01C000
01C000
018000
018000
ENDCHAR
STARTCHAR uni0146
ENCODING 326
SWIDTH 496 0
DWIDTH 10 0
BBX 12 15 1 -6
BITMAP
6700
6F00
FF00
FF00
F700
E630
E660
E7C0
C380
0000
1800
3800
3000
3000
3000
ENDCHAR
STARTCHAR Ncaron
ENCODING 327
SWIDTH 884 0
DWIDTH 18 0
BBX 20 23 0 0
BITMAP
00C600
00EE00
006C00
007800
003800
000000
000000
1E1E00
3E3F00
666780
C6C380
868300
070700
0F0700
0F0700
0E0700
0E0E00
0E0E00
0E0E00
1C0E10
1C0E30
1C07E0
1C03C0
ENDCHAR
STARTCHAR ncaron
ENCODING 328
SWIDTH 496 0
DWIDTH 10 0
BBX 12 17 1 0
BITMAP
1080
19C0
1980
1B00
1B00
0E00
0E00
0000
6700
6F00
FF00
FF00
F700
E630
E660
E7C0
C380
ENDCHAR
STARTCHAR napostrophe
ENCODING 329
SWIDTH 496 0
DWIDTH 10 0
BBX 13 15 0 0
BITMAP
C000
C000
C000
C000
8000
0000
3380
3780
7F80
7F80
7B80
7318
7330
73E0
61C0
ENDCHAR
STARTCHAR Eng
ENCODING 330
SWIDTH 884 0
DWIDTH 18 0
BBX 20 23 0 -7
BITMAP
1E1E00
3E3F00
666700
C6C300
868300
070700
0F0700
0F0700
0E0700
0E0E00
0E0E00
0E0E00
1C0E10
1C0E30
1C1FE0
0C1FC0
001800
001800
003800
0C3000
1E7000
0FE000
07C000
ENDCHAR
STARTCHAR eng
ENCODING 331
SWIDTH 495 0
DWIDTH 10 0
BBX 11 15 1 -6
BITMAP
6700
6F00
FF00
FF00
F700
E620
E660
E7C0
CF80
0C00
0C00
0C00
9800
F800
F000
ENDCHAR
STARTCHAR Omacron
ENCODING 332
SWIDTH 816 0
DWIDTH 16 0
BBX 15 20 1 0
BITMAP
03F0
03F0
0000
0000
03E0
0FF8
1E3C
381C
700E
700E
700E
E00E
E00E
E00E
E01C
701C
7038
7870
3FE0
0F80
ENDCHAR
STARTCHAR omacron
ENCODING 333
SWIDTH 451 0
DWIDTH 9 0
BBX 11 12 1 0
BITMAP
7F00
7E00
0000
3C00
7E00
EF00
CFE0
C7C0
C600
E600
FC00
7800
ENDCHAR
STARTCHAR Obreve
ENCODING 334
SWIDTH 816 0
DWIDTH 16 0
BBX 15 22 1 0
BITMAP
0208
0718
07F8
01E0
0000
0000
03E0
0FF8
1E3C
381C
700E
700E
700E
E00E
E00E
E00E
E01C
701C
7038
7870
3FE0
0F80
ENDCHAR
STARTCHAR obreve
ENCODING 335
SWIDTH 451 0
DWIDTH 9 0
BBX 11 15 1 0
BITMAP
4100
E180
6300
7F00
3E00
0000
3C00
7E00
EF00
CFE0
C7C0
C600
E600
FC00
7800
ENDCHAR
STARTCHAR Ohungarumlaut
ENCODING 336
SWIDTH 816 0
DWIDTH 16 0
BBX 15 23 1 0
BITMAP
0090
0198
01B8
03B0
0330
0000
0000
03E0
0FF8
1E3C
381C
700E
700E
700E
E00E
E00E
E00E
E01C
701C
7038
7870
3FE0
0F80
ENDCHAR
STARTCHAR ohungarumlaut
ENCODING 337
SWIDTH 451 0
DWIDTH 9 0
BBX 11 16 1 0
BITMAP
1980
1D80
1B80
3300
3200
2600
0000
3C00
7E00
EF00
CFE0
C7C0
C600
E600
FC00
7800
ENDCHAR
STARTCHAR OE
ENCODING 338
SWIDTH 1124 0
DWIDTH 22 0
BBX 24 16 1 0
BITMAP
03E1FE
0FFBFE
1E3F00
381F00
700F00
700F00
700E00
E00FF8
E00FF8
E00E00
E01E00
701E00
703E00
787F07
3FE7FE
0F81F8
ENDCHAR
STARTCHAR oe
ENCODING 339
SWIDTH 668 0
DWIDTH 13 0
BBX 15 9 1 0
BITMAP
3CE0
7FF0
E730
C730
C7E0
C7C6
EF0E
FFFC
79F0
ENDCHAR
STARTCHAR Racute
ENCODING 340
SWIDTH 880 0
DWIDTH 18 0
BBX 19 23 1 0
BITMAP
000400
000E00
003C00
007800
006000
000000
000000
03F800
0FFC00
1C1E00
380E00
738E00
638E00
638E00
E33C00
CFF000
CFE000
C77000
C73800
E63820
6E1C60
7E1FC0
1C0780
ENDCHAR
STARTCHAR racute
ENCODING 341
SWIDTH 455 0
DWIDTH 9 0
BBX 11 16 1 0
BITMAP
0300
0380
0700
0600
0C00
0C00
0000
6700
6F00
FF00
FB60
F7E0
E3C0
E000
E000
C000
ENDCHAR
STARTCHAR uni0156
ENCODING 342
SWIDTH 880 0
DWIDTH 18 0
BBX 19 21 1 -5
BITMAP
03F800
0FFC00
1C1E00
380E00
738E00
638E00
638E00
E33C00
CFF000
CFE000
C77000
C73800
E63820
6E1C60
7E1FC0
1C0780
000000
00C000
00C000
00C000
018000
ENDCHAR
STARTCHAR uni0157
ENCODING 343
SWIDTH 455 0
DWIDTH 9 0
BBX 11 15 1 -6
BITMAP
6700
6F00
FF00
FB60
F7E0
E3C0
E000
E000
C000
0000
C000
C000
C000
C000
8000
ENDCHAR
STARTCHAR Rcaron
ENCODING 344
SWIDTH 880 0
DWIDTH 18 0
BBX 19 23 1 0
BITMAP
019800
019800
01B000
00F000
00E000
000000
000000
03F800
0FFC00
1C1E00
380E00
738E00
638E00
638E00
E33C00
CFF000
CFE000
C77000
C73800
E63820
6E1C60
7E1FC0
1C0780
ENDCHAR
STARTCHAR rcaron
ENCODING 345
SWIDTH 455 0
DWIDTH 9 0
BBX 11 17 1 0
BITMAP
1080
3980
1B80
1B00
1E00
1E00
0C00
0000
6700
6F00
FF00
FB60
F7E0
E3C0
E000
E000
C000
ENDCHAR
STARTCHAR Sacute
ENCODING 346
SWIDTH 693 0
DWIDTH 14 0
BBX 13 23 1 0
BITMAP
0010
0038
0078
01E0
0180
0000
0000
0FC0
1FF0
3878
7038
7038
7030
3C00
1F00
0FC0
01E0
C070
C070
C070
E0F0
7FE0
3F80
ENDCHAR
STARTCHAR sacute
ENCODING 347
SWIDTH 427 0
DWIDTH 9 0
BBX 11 16 0 0
BITMAP
0180
0380
0300
0700
0600
0400
0000
0C00
1C00
1C00
3C00
3E20
6760
DFE0
9FC0
1F80
ENDCHAR
STARTCHAR Scircumflex
ENCODING 348
SWIDTH 693 0
DWIDTH 14 0
BBX 13 23 1 0
BITMAP
01C0
03C0
07E0
0660
0C60
0000
0000
0FC0
1FF0
3878
7038
7038
7030
3C00
1F00
0FC0
01E0
C070
C070
C070
E0F0
7FE0
3F80
ENDCHAR
STARTCHAR scircumflex
ENCODING 349
SWIDTH 427 0
DWIDTH 9 0
BBX 11 17 0 0
BITMAP
0200
0700
0F00
1B00
1B00
3380
3180
0000
0C00
1C00
1C00
3C00
3E20
6760
DFE0
9FC0
1F80
ENDCHAR
STARTCHAR Scedilla
ENCODING 350
SWIDTH 693 0
DWIDTH 14 0
BBX 13 21 1 -5
BITMAP
0FC0
1FF0
3878
7038
7038
7030
3C00
3F00
0FC0
03E0
C070
C070
C070
E070
FFE0
7FC0
1E00
0300
0300
3E00
3C00
ENDCHAR
STARTCHAR scedilla
ENCODING 351
SWIDTH 427 0
DWIDTH 9 0
BBX 11 14 0 -5
BITMAP
0C00
1C00
1C00
3C00
3E00
6720
E760
DFC0
1F80
3E00
0600
0600
7C00
7800
ENDCHAR
STARTCHAR Scaron
ENCODING 352
SWIDTH 693 0
DWIDTH 14 0
BBX 13 23 1 0
BITMAP
0630
0660
07E0
03C0
0180
0000
0000
0FC0
1FF0
3878
7038
7038
7030
3C00
1F00
0FC0
01E0
C070
C070
C070
E0F0
7FE0
3F80
ENDCHAR
STARTCHAR scaron
ENCODING 353
SWIDTH 427 0
DWIDTH 9 0
BBX 11 17 0 0
BITMAP
1080
19C0
1980
1B00
1B00
0E00
0E00
0000
0C00
1C00
1C00
3C00
3E20
6760
DFE0
9FC0
1F80
ENDCHAR
STARTCHAR uni0162
ENCODING 354
SWIDTH 697 0
DWIDTH 14 0
BBX 17 21 1 -5
BITMAP
0FFF80
7FFF80
F1C000
C1C000
C1C000
E38000
438000
038000
038000
038000
030000
070000
070000
070000
070000
0F0000
0F0000
038000
038000
1F0000
1E0000
ENDCHAR
STARTCHAR uni0163
ENCODING 355
SWIDTH 393 0
DWIDTH 8 0
BBX 10 22 0 -5
BITMAP
0700
0F80
0D80
1980
1900
1B00
3A00
3600
FF80
FF80
3000
3000
3000
3040
38C0
1F80
1F00
3E00
0600
0600
7E00
7C00
ENDCHAR
STARTCHAR Tcaron
ENCODING 356
SWIDTH 697 0
DWIDTH 14 0
BBX 17 23 1 0
BITMAP
031800
019800
01B000
00E000
00E000
000000
000000
0FFF80
7FFF80
F1C000
C1C000
C1C000
E18000
438000
038000
038000
038000
030000
070000
070000
070000
070000
070000
ENDCHAR
STARTCHAR tcaron
ENCODING 357
SWIDTH 343 0
DWIDTH 7 0
BBX 9 19 0 0
BITMAP
0080
0180
0180
0180
1D00
1C00
1800
1800
3800
FF00
FF00
3000
3000
7000
7080
7080
3180
3F00
1E00
ENDCHAR
STARTCHAR Tbar
ENCODING 358
SWIDTH 697 0
DWIDTH 14 0
BBX 17 16 1 0
BITMAP
0FFF80
7FFF80
F1C000
C1C000
C1C000
E38000
438000
1FF000
1FF000
038000
030000
070000
070000
070000
070000
070000
ENDCHAR
STARTCHAR tbar
ENCODING 359
SWIDTH 343 0
DWIDTH 7 0
BBX 9 15 0 0
BITMAP
1C00
1C00
1800
1800
3800
FF00
FF00
3000
3000
FE00
FC00
7080
7180
3F00
1E00
ENDCHAR
STARTCHAR Utilde
ENCODING 360
SWIDTH 890 0
DWIDTH 18 0
BBX 20 22 0 0
BITMAP
00E200
01F700
01BE00
010C00
000000
000000
1E0300
3F0380
670380
C70300
870700
070700
0E0700
0E0700
0E0F00
0E0E00
0C1E00
1C1600
1C3E10
1EEF70
0FC7E0
0783C0
ENDCHAR
STARTCHAR utilde
ENCODING 361
SWIDTH 462 0
DWIDTH 9 0
BBX 11 14 1 0
BITMAP
3880
7DC0
6F80
4300
0000
6300
6700
E600
E600
CE00
CE60
FEE0
F7C0
6700
ENDCHAR
STARTCHAR Umacron
ENCODING 362
SWIDTH 890 0
DWIDTH 18 0
BBX 20 20 0 0
BITMAP
00FC00
00FC00
000000
000000
1E0300
3F0380
670380
C70300
870700
070700
0E0700
0E0700
0E0F00
0E0E00
0C1E00
1C1600
1C3E10
1EEF70
0FC7E0
0783C0
ENDCHAR
STARTCHAR umacron
ENCODING 363
SWIDTH 462 0
DWIDTH 9 0
BBX 11 12 1 0
BITMAP
3F00
3F00
0000
6300
6700
E600
E600
CE00
CE60
FEE0
F7C0
6700
ENDCHAR
STARTCHAR Ubreve
ENCODING 364
SWIDTH 890 0
DWIDTH 18 0
BBX 20 22 0 0
BITMAP
008200
01C600
01FE00
007800
000000
000000
1E0300
3F0380
670380
C70300
870700
070700
0E0700
0E0700
0E0F00
0E0E00
0C1E00
1C1600
1C3E10
1EEF70
0FC7E0
0783C0
ENDCHAR
STARTCHAR ubreve
ENCODING 365
SWIDTH 462 0
DWIDTH 9 0
BBX 11 15 1 0
BITMAP
2080
6180
7380
3F00
1E00
0000
6300
6700
E600
E600
CE00
CE60
FEE0
F7C0
6700
ENDCHAR
STARTCHAR Uring
ENCODING 366
SWIDTH 890 0
DWIDTH 18 0
BBX 20 24 0 0
BITMAP
003800
007C00
004C00
00CC00
007800
003800
000000
000000
1E0300
3F0380
670380
C70300
870700
070700
0E0700
0E0700
0E0F00
0E0E00
0C1E00
1C1600
1C3E10
1EEF70
0FC7E0
0783C0
ENDCHAR
STARTCHAR uring
ENCODING 367
SWIDTH 462 0
DWIDTH 9 0
BBX 11 16 1 0
BITMAP
0E00
1F00
1300
1300
1F00
0E00
0000
6300
6700
E600
E600
CE00
CE60
FEE0
F7C0
6700
ENDCHAR
STARTCHAR Uhungarumlaut
ENCODING 368
SWIDTH 890 0
DWIDTH 18 0
BBX 20 23 0 0
BITMAP
002400
006600
006E00
00EC00
00CC00
000000
000000
1E0300
3F0380
670380
C70300
870700
070700
0E0700
0E0700
0E0F00
0E0E00
0C1E00
1C1600
1C3E10
1EEF70
0FC7E0
0783C0
ENDCHAR
STARTCHAR uhungarumlaut
ENCODING 369
SWIDTH 462 0
DWIDTH 9 0
BBX 11 16 1 0
BITMAP
0CC0
0DC0
1D80
1980
1300
3200
0000
6300
6700
E600
E600
CE00
CE60
FEE0
F7C0
6700
ENDCHAR
STARTCHAR Uogonek
ENCODING 370
SWIDTH 890 0
DWIDTH 18 0
BBX 20 21 0 -5
BITMAP
1E0300
3F0380
670380
C70300
870700
070700
0E0700
0E0700
0E0F00
0E0E00
0C1E00
1C1600
1C3E10
1C6F30
0FC7E0
0783C0
000380
000300
000300
0003E0
0001E0
ENDCHAR
STARTCHAR uogonek
ENCODING 371
SWIDTH 462 0
DWIDTH 9 0
BBX 11 14 1 -5
BITMAP
6300
6700
E600
E600
CE00
CE60
FEE0
F7C0
6700
0E00
0C00
0C00
0F80
0700
ENDCHAR
STARTCHAR Wcircumflex
ENCODING 372
SWIDTH 1217 0
DWIDTH 24 0
BBX 25 23 2 0
BITMAP
001C0000
003E0000
00360000
00660000
00630000
00000000
00000000
70183C00
70387E00
70386E00
7038EE00
6038CE00
E0786E00
E0786C00
E0787C00
E0F83F80
E0F81F80
60F83800
71B87000
7398E000
7F1FC000
3E1F8000
1C0F0000
ENDCHAR
STARTCHAR wcircumflex
ENCODING 373
SWIDTH 700 0
DWIDTH 14 0
BBX 16 17 1 0
BITMAP
0100
0380
0780
0780
0CC0
1CC0
18C0
0000
C638
C678
C678
CF7F
EF7E
FFE0
FFC0
F380
6380
ENDCHAR
STARTCHAR Ycircumflex
ENCODING 374
SWIDTH 851 0
DWIDTH 17 0
BBX 19 29 0 -6
BITMAP
003800
006C00
006C00
00CC00
00CE00
000000
000000
1E0380
3F0380
670380
C70300
870700
070700
0E0700
0E0F00
0E0F00
0E1F00
0E1E00
0E3600
0FE7E0
07CFE0
007E00
01CE00
030C00
071C00
061C00
073800
07F000
03E000
ENDCHAR
STARTCHAR ycircumflex
ENCODING 375
SWIDTH 479 0
DWIDTH 10 0
BBX 12 26 0 -9
BITMAP
0200
0700
0700
0D80
1D80
1980
3980
0000
3180
3380
7300
7300
6700
6730
7FE0
7FC0
3700
0E00
1E00
3600
6E00
4C00
CC00
D800
F800
7000
ENDCHAR
STARTCHAR Ydieresis
ENCODING 376
SWIDTH 851 0
DWIDTH 17 0
BBX 19 27 0 -6
BITMAP
00CE00
00EE00
00CE00
000000
000000
1E0380
3F0380
670380
C70300
870700
070700
0E0700
0E0F00
0E0F00
0E1F00
0E1E00
0E3600
0FE7E0
07CFE0
007E00
01CE00
030C00
071C00
061C00
073800
07F000
03E000
ENDCHAR
STARTCHAR Zacute
ENCODING 377
SWIDTH 721 0
DWIDTH 14 0
BBX 17 23 0 0
BITMAP
000400
001C00
003C00
007000
00C000
000000
000000
0FFC00
3FFF00
381E00
701C00
703800
707800
207000
00E000
01E000
03C000
038000
070000
7F0180
FFC380
FFFF00
787C00
ENDCHAR
STARTCHAR zacute
ENCODING 378
SWIDTH 445 0
DWIDTH 9 0
BBX 11 16 1 0
BITMAP
0300
0300
0700
0600
0C00
0C00
0000
FF00
FF00
1E00
3800
7000
E060
E1C0
7F80
3E00
ENDCHAR
STARTCHAR Zdotaccent
ENCODING 379
SWIDTH 721 0
DWIDTH 14 0
BBX 17 21 0 0
BITMAP
00E000
01E000
00E000
000000
000000
0FFC00
3FFF00
381E00
701C00
703800
707800
207000
00E000
01E000
03C000
038000
070000
7F0180
FFC380
FFFF00
787C00
ENDCHAR
STARTCHAR zdotaccent
ENCODING 380
SWIDTH 445 0
DWIDTH 9 0
BBX 11 13 1 0
BITMAP
0C00
1E00
1C00
0000
FF00
FF00
1E00
3800
7000
E060
E1C0
7F80
3E00
ENDCHAR
STARTCHAR Zcaron
ENCODING 381
SWIDTH 721 0
DWIDTH 14 0
BBX 17 23 0 0
BITMAP
031800
03B800
01B000
01E000
00E000
000000
000000
0FFC00
3FFF00
381E00
701C00
703800
707800
207000
00E000
01E000
03C000
038000
070000
7F0180
FFC380
FFFF00
787C00
ENDCHAR
STARTCHAR zcaron
ENCODING 382
SWIDTH 445 0
DWIDTH 9 0
BBX 11 17 1 0
BITMAP
1080
3180
3B00
1B00
1E00
1E00
0C00
0000
FF00
FF00
1E00
3800
7000
E060
E1C0
7F80
3E00
ENDCHAR
STARTCHAR uni018F
ENCODING 399
SWIDTH 792 0
DWIDTH 16 0
BBX 14 16 1 0
BITMAP
07E0
1FF0
3878
201C
001C
001C
000C
7FFC
FFFC
E01C
E01C
E038
7038
78F0
3FE0
0F80
ENDCHAR
STARTCHAR florin
ENCODING 402
SWIDTH 478 0
DWIDTH 10 0
BBX 12 20 -1 -5
BITMAP
01F0
03F0
0700
0700
0700
0700
3FE0
3FE0
0600
0E00
0E00
0E00
0E00
0E00
0C00
0C00
0C00
1C00
F800
F000
ENDCHAR
STARTCHAR Ohorn
ENCODING 416
SWIDTH 816 0
DWIDTH 16 0
BBX 16 20 1 0
BITMAP
0001
0003
0003
0007
03FE
0FFE
1E3C
381C
700E
700E
700E
E00E
E00E
E00E
E01C
701C
7038
7870
3FE0
0F80
ENDCHAR
STARTCHAR ohorn
ENCODING 417
SWIDTH 451 0
DWIDTH 9 0
BBX 11 12 1 0
BITMAP
0080
0180
0180
3F00
7E00
EE00
CFE0
C7C0
C600
E600
FC00
7800
ENDCHAR
STARTCHAR Uhorn
ENCODING 431
SWIDTH 890 0
DWIDTH 18 0
BBX 20 20 0 0
BITMAP
000020
000030
000070
000060
1E03E0
3F0380
670380
C70300
870700
070700
0E0700
0E0700
0E0F00
0E0E00
0C1E00
1C1600
1C3E10
1EEF70
0FC7E0
0783C0
ENDCHAR
STARTCHAR uhorn
ENCODING 432
SWIDTH 512 0
DWIDTH 10 0
BBX 12 12 1 0
BITMAP
0040
00C0
00C0
63C0
6780
E600
E600
CE00
CE30
FE70
F7E0
6780
ENDCHAR
STARTCHAR uni01C4
ENCODING 452
SWIDTH 1531 0
DWIDTH 31 0
BBX 31 23 2 0
BITMAP
00000460
00000660
000006C0
000003C0
00000380
00000000
00000000
1FC01FF0
7FE07FFC
60F0E03C
0039C070
3039C0E0
701CC0E0
701C41C0
701C0380
601C0780
E0180700
E0380E00
E0781E00
E070FC02
E1E1FF8E
FFC3FFFC
FE01E1F8
ENDCHAR
STARTCHAR uni01C5
ENCODING 453
SWIDTH 1191 0
DWIDTH 24 0
BBX 23 17 2 0
BITMAP
000042
1FC0E6
7FE06E
60F06C
00387C
303878
701C30
701C00
701DFC
601DFC
E01838
E038F0
E079C0
E07180
E1E380
FFC3FC
FE03FC
ENDCHAR
STARTCHAR uni01C6
ENCODING 454
SWIDTH 895 0
DWIDTH 18 0
BBX 20 16 1 0
BITMAP
0198C0
019DC0
038D80
038F00
038F00
030600
030000
1F7F80
3F7F80
770F00
E61C00
C63800
CE7030
EEF9E0
FFFFC0
731F00
ENDCHAR
STARTCHAR uni01C7
ENCODING 455
SWIDTH 1276 0
DWIDTH 26 0
BBX 27 18 -1 -2
BITMAP
00F81FC0
03FC7FE0
038EF1E0
070EC1C0
070EC1C0
0E0CE1C0
0E00E180
0E000380
0E000780
0E001F80
0E007380
0E00E300
7E01C700
FFC38600
FFFF8E00
787F9C00
0001FC00
0000F000
ENDCHAR
STARTCHAR uni01C8
ENCODING 456
SWIDTH 927 0
DWIDTH 19 0
BBX 22 25 -1 -9
BITMAP
00FC00
01FE00
038F00
0707E0
0707E0
0E06E0
0E0000
0E00E0
0E00E0
0E00C0
0E00C0
0E00C0
7E00CC
FFC3D8
FFFFF0
787FC0
000380
000780
000D80
001B80
001300
003300
003600
003E00
001C00
ENDCHAR
STARTCHAR uni01C9
ENCODING 457
SWIDTH 610 0
DWIDTH 12 0
BBX 13 27 1 -9
BITMAP
0E00
1E00
3B00
3300
7200
66E0
66E0
66E0
EC00
ECC0
F8C0
F8C0
F1C0
E1C0
E3D8
67B8
7FF0
3DC0
0380
0780
0F80
1B00
3300
3700
3600
3E00
3C00
ENDCHAR
STARTCHAR uni01CA
ENCODING 458
SWIDTH 1497 0
DWIDTH 30 0
BBX 30 18 0 -2
BITMAP
1E1E07FC
3E3F1FFC
6667BC38
C6C3B038
86833038
07073838
0F073838
0F070038
0E0701F0
0E0E03F0
0E0E0F70
0E0E1C70
1C0E1860
1C0E38E0
1C07F8C0
1C03F9C0
00003F80
00001F00
ENDCHAR
STARTCHAR uni01CB
ENCODING 459
SWIDTH 1138 0
DWIDTH 23 0
BBX 25 25 0 -9
BITMAP
1E1E0000
3E3F0000
66678000
C6C38C00
86831E00
07071C00
0F070000
0F070C00
0E071C00
0E0E1C00
0E0E1C00
0E0E1800
1C0E1980
1C0E3B80
1C07FE00
1C03FC00
00003800
0000F000
0001F000
00033000
00037000
00066000
0006E000
0007C000
00038000
ENDCHAR
STARTCHAR uni01CC
ENCODING 460
SWIDTH 750 0
DWIDTH 15 0
BBX 16 22 1 -9
BITMAP
001C
003C
0018
0000
6718
6F18
FF38
FF38
F738
E633
E677
E7FC
C3B8
0070
00F0
03E0
0360
0660
04C0
0CC0
0F80
0700
ENDCHAR
STARTCHAR Gcaron
ENCODING 486
SWIDTH 811 0
DWIDTH 16 0
BBX 17 32 1 -9
BITMAP
031800
03B800
01B000
01E000
00C000
000000
000000
03F000
0FF800
1E3800
381C00
701C00
701800
700000
E00000
E00000
E0FC00
E0FC00
701C00
701C80
3C1F80
1FFF00
07FC00
003800
007800
00F800
01B000
033000
037000
036000
03E000
03C000
ENDCHAR
STARTCHAR gcaron
ENCODING 487
SWIDTH 479 0
DWIDTH 10 0
BBX 12 26 0 -9
BITMAP
0840
0CC0
0CC0
0D80
0D80
0700
0600
0000
0E00
1F80
3B80
7300
6300
6330
67E0
7FC0
3F80
0E00
1E00
3600
6E00
6C00
CC00
D800
F800
7000
ENDCHAR
STARTCHAR uni01EA
ENCODING 490
SWIDTH 816 0
DWIDTH 16 0
BBX 15 21 1 -5
BITMAP
03E0
0FF8
1E3C
381C
700E
700E
700E
E00E
E00E
E00E
E01C
F01C
7038
7878
3FF0
1FC0
0300
0600
0600
07E0
03C0
ENDCHAR
STARTCHAR uni01EB
ENCODING 491
SWIDTH 451 0
DWIDTH 9 0
BBX 11 14 1 -5
BITMAP
3C00
7E00
EE00
CF20
CFE0
C7C0
C600
FE00
7C00
3800
3000
7000
3E00
1C00
ENDCHAR
STARTCHAR Aringacute
ENCODING 506
SWIDTH 786 0
DWIDTH 16 0
BBX 18 25 1 0
BITMAP
0000C0
0001C0
003B80
007C00
004C00
007C00
003800
000000
000000
00FE00
07FF00
0F8600
1C1800
381C00
701800
703800
703800
E03800
E07000
E07000
E07000
E0F080
71F980
7F3F00
1E1E00
ENDCHAR
STARTCHAR aringacute
ENCODING 507
SWIDTH 470 0
DWIDTH 9 0
BBX 12 18 1 0
BITMAP
0010
0030
0EF0
1F40
1B00
1B00
1F00
0E00
0000
1C00
3F00
7700
E600
C600
CE60
CEE0
FFC0
7380
ENDCHAR
STARTCHAR AEacute
ENCODING 508
SWIDTH 1015 0
DWIDTH 20 0
BBX 22 23 1 0
BITMAP
000040
0001C0
0003C0
000780
000C00
000000
000000
01E7F8
07EFF0
0F0C00
1C1C00
381C00
701C00
703800
703FE0
E03FE0
E07800
E07800
E07800
E0F804
71FC1C
7F9FF8
1E07E0
ENDCHAR
STARTCHAR aeacute
ENCODING 509
SWIDTH 653 0
DWIDTH 13 0
BBX 15 16 1 0
BITMAP
0060
0060
00E0
00C0
0180
0180
0000
1DE0
3FF0
7330
E630
C6E0
C7C6
CF1C
FBF8
71F0
ENDCHAR
STARTCHAR Oslashacute
ENCODING 510
SWIDTH 816 0
DWIDTH 16 0
BBX 15 25 1 -2
BITMAP
0020
0070
00F0
01C0
0300
0060
0060
03E0
0FF8
1CFC
38DC
70CE
718E
718E
E18E
E38E
E30E
E31C
F31C
7638
7E70
3FE0
0F80
0C00
0C00
ENDCHAR
STARTCHAR oslashacute
ENCODING 511
SWIDTH 459 0
DWIDTH 9 0
BBX 11 18 1 -2
BITMAP
0C00
1C00
1C00
1800
3400
2C00
0800
3C00
7E00
FF00
DFE0
D3E0
D700
D600
FE00
7C00
3000
2000
ENDCHAR
STARTCHAR uni0200
ENCODING 512
SWIDTH 786 0
DWIDTH 16 0
BBX 17 23 1 0
BITMAP
009000
01B800
01D800
00D800
00CC00
000000
000000
00FE00
07FF00
0F8600
1C1800
381C00
701800
703800
703800
E03800
E07000
E07000
E07000
E0F080
71F980
7F3F00
1E1E00
ENDCHAR
STARTCHAR uni0201
ENCODING 513
SWIDTH 470 0
DWIDTH 9 0
BBX 11 16 1 0
BITMAP
6C00
EE00
6E00
7600
3300
1300
0000
1C00
3F00
7700
E600
C600
CE60
CEE0
FFC0
7380
ENDCHAR
STARTCHAR uni0202
ENCODING 514
SWIDTH 786 0
DWIDTH 16 0
BBX 17 22 1 0
BITMAP
007C00
00FE00
01C600
000000
000000
000000
00FE00
07FF00
0F8600
1C1800
381C00
701800
703800
703800
E03800
E07000
E07000
E07000
E0F080
71F980
7F3F00
1E1E00
ENDCHAR
STARTCHAR uni0203
ENCODING 515
SWIDTH 470 0
DWIDTH 9 0
BBX 11 15 1 0
BITMAP
1F00
3F80
3180
61C0
0000
0000
1C00
3F00
7700
E600
C600
CE60
CEE0
FFC0
7380
ENDCHAR
STARTCHAR uni0204
ENCODING 516
SWIDTH 686 0
DWIDTH 14 0
BBX 15 23 1 0
BITMAP
0440
0EC0
06E0
0660
0320
0000
0000
07E0
1FF8
3C38
3818
3838
3810
1F80
3F00
7800
E000
E000
E000
E002
F01E
7FFE
1FF0
ENDCHAR
STARTCHAR uni0205
ENCODING 517
SWIDTH 393 0
DWIDTH 8 0
BBX 9 16 1 0
BITMAP
D800
DC00
CC00
6C00
6600
2600
0000
3C00
7E00
E600
CE00
DC00
F080
E380
FF00
3E00
ENDCHAR
STARTCHAR uni0206
ENCODING 518
SWIDTH 686 0
DWIDTH 14 0
BBX 15 22 1 0
BITMAP
03E0
07F8
0638
0000
0000
0000
07E0
1FF8
3C38
3818
3838
3810
1F80
3F00
7800
E000
E000
E000
E002
F01E
7FFE
1FF0
ENDCHAR
STARTCHAR uni0207
ENCODING 519
SWIDTH 393 0
DWIDTH 8 0
BBX 9 15 1 0
BITMAP
3E00
7F00
6380
E380
0000
0000
3C00
7E00
E600
CE00
DC00
F080
E380
FF00
3E00
ENDCHAR
STARTCHAR uni0208
ENCODING 520
SWIDTH 495 0
DWIDTH 10 0
BBX 11 23 0 0
BITMAP
0900
1B80
1980
0D80
0CC0
0000
0000
3FE0
3FE0
0700
0700
0600
0E00
0E00
0E00
0E00
0E00
0C00
1C00
1C00
1C00
FF80
FF80
ENDCHAR
STARTCHAR uni0209
ENCODING 521
SWIDTH 246 0
DWIDTH 5 0
BBX 9 16 -1 0
BITMAP
D800
DC00
CC00
6C00
6600
2600
0000
1800
1800
3800
3800
3800
3180
3300
3E00
1C00
ENDCHAR
STARTCHAR uni020A
ENCODING 522
SWIDTH 495 0
DWIDTH 10 0
BBX 11 22 0 0
BITMAP
07C0
0FE0
1C60
0000
0000
0000
3FE0
3FE0
0700
0700
0600
0E00
0E00
0E00
0E00
0E00
0C00
1C00
1C00
1C00
FF80
FF80
ENDCHAR
STARTCHAR uni020B
ENCODING 523
SWIDTH 246 0
DWIDTH 5 0
BBX 8 15 0 0
BITMAP
7C
FE
C7
C3
00
00
30
30
70
70
70
63
66
7C
38
ENDCHAR
STARTCHAR uni020C
ENCODING 524
SWIDTH 816 0
DWIDTH 16 0
BBX 15 23 1 0
BITMAP
0440
06E0
0660
0360
0320
0000
0000
03E0
0FF8
1E3C
381C
700E
700E
700E
E00E
E00E
E00E
E01C
701C
7038
7870
3FE0
0F80
ENDCHAR
STARTCHAR uni020D
ENCODING 525
SWIDTH 451 0
DWIDTH 9 0
BBX 12 16 0 0
BITMAP
6C00
EE00
6600
3600
3300
1300
0000
1E00
3F00
7780
67F0
63E0
6300
7300
7E00
3C00
ENDCHAR
STARTCHAR uni020E
ENCODING 526
SWIDTH 816 0
DWIDTH 16 0
BBX 15 22 1 0
BITMAP
01F0
07F8
0618
0000
0000
0000
03E0
0FF8
1E3C
381C
700E
700E
700E
E00E
E00E
E00E
E01C
701C
7038
7870
3FE0
0F80
ENDCHAR
STARTCHAR uni020F
ENCODING 527
SWIDTH 451 0
DWIDTH 9 0
BBX 11 15 1 0
BITMAP
3E00
7F00
6380
E380
0000
0000
3C00
7E00
EF00
CFE0
C7C0
C600
E600
FC00
7800
ENDCHAR
STARTCHAR uni0210
ENCODING 528
SWIDTH 880 0
DWIDTH 18 0
BBX 19 23 1 0
BITMAP
022000
076000
037000
033000
013000
000000
000000
03F800
0FFC00
1C1E00
380E00
738E00
638E00
638E00
E33C00
CFF000
CFE000
C77000
C73800
E63820
6E1C60
7E1FC0
1C0780
ENDCHAR
STARTCHAR uni0211
ENCODING 529
SWIDTH 455 0
DWIDTH 9 0
BBX 11 16 1 0
BITMAP
CC00
EC00
6E00
6600
3600
3200
0000
6700
6F00
FF00
FB60
F7E0
E3C0
E000
E000
C000
ENDCHAR
STARTCHAR uni0212
ENCODING 530
SWIDTH 880 0
DWIDTH 18 0
BBX 19 22 1 0
BITMAP
01F000
03FC00
031C00
000000
000000
000000
03F800
0FFC00
1C1E00
380E00
738E00
638E00
638E00
E33C00
CFF000
CFE000
C77000
C73800
E63820
6E1C60
7E1FC0
1C0780
ENDCHAR
STARTCHAR uni0213
ENCODING 531
SWIDTH 455 0
DWIDTH 9 0
BBX 11 15 1 0
BITMAP
1F00
3F80
7380
6180
0000
0000
6700
6F00
FF00
FB60
F7E0
E3C0
E000
E000
C000
ENDCHAR
STARTCHAR uni0214
ENCODING 532
SWIDTH 890 0
DWIDTH 18 0
BBX 20 23 0 0
BITMAP
011000
01B800
019800
00D800
00C800
000000
000000
1E0300
3F0380
670380
C70300
870700
070700
0E0700
0E0700
0E0F00
0E0E00
0C1E00
1C1600
1C3E10
1EEF70
0FC7E0
0783C0
ENDCHAR
STARTCHAR uni0215
ENCODING 533
SWIDTH 462 0
DWIDTH 9 0
BBX 11 16 1 0
BITMAP
CC00
EC00
6E00
6600
3600
3200
0000
6300
6700
E600
E600
CE00
CE60
FEE0
F7C0
6700
ENDCHAR
STARTCHAR uni0216
ENCODING 534
SWIDTH 890 0
DWIDTH 18 0
BBX 20 22 0 0
BITMAP
007C00
01FE00
018600
000000
000000
000000
1E0300
3F0380
670380
C70300
870700
070700
0E0700
0E0700
0E0F00
0E0E00
0C1E00
1C1600
1C3E10
1EEF70
0FC7E0
0783C0
ENDCHAR
STARTCHAR uni0217
ENCODING 535
SWIDTH 462 0
DWIDTH 9 0
BBX 11 15 1 0
BITMAP
1F00
3F80
7380
6180
0000
0000
6300
6700
E600
E600
CE00
CE60
FEE0
F7C0
6700
ENDCHAR
STARTCHAR uni0218
ENCODING 536
SWIDTH 693 0
DWIDTH 14 0
BBX 13 21 1 -5
BITMAP
0FC0
1FF0
3878
7038
7038
7030
3C00
1F00
0FC0
01E0
C070
C070
C070
E0F0
7FE0
3F80
0000
0C00
0E00
0C00
0C00
ENDCHAR
STARTCHAR uni0219
ENCODING 537
SWIDTH 427 0
DWIDTH 9 0
BBX 11 15 0 -6
BITMAP
0C00
1C00
1C00
3C00
3E20
6760
DFE0
9FC0
1F80
0000
0C00
1C00
1800
1800
1800
ENDCHAR
STARTCHAR uni021A
ENCODING 538
SWIDTH 697 0
DWIDTH 14 0
BBX 17 21 1 -5
BITMAP
0FFF80
7FFF80
F1C000
C1C000
C1C000
E18000
438000
038000
038000
038000
030000
070000
070000
070000
070000
070000
000000
060000
060000
060000
060000
ENDCHAR
STARTCHAR uni021B
ENCODING 539
SWIDTH 393 0
DWIDTH 8 0
BBX 10 23 0 -6
BITMAP
0700
0F80
0D80
1980
1900
1B00
3A00
3600
FF80
FF80
3000
3000
3000
3040
38C0
1F80
0F00
0000
0C00
1C00
1C00
1800
1800
ENDCHAR
STARTCHAR uni022A
ENCODING 554
SWIDTH 816 0
DWIDTH 16 0
BBX 15 24 1 0
BITMAP
03F8
03F0
0000
0330
0738
0330
0000
0000
03E0
0FF8
1E3C
381C
700E
700E
700E
E00E
E00E
E00E
E01C
701C
7038
7870
3FE0
0F80
ENDCHAR
STARTCHAR uni022B
ENCODING 555
SWIDTH 451 0
DWIDTH 9 0
BBX 11 17 1 0
BITMAP
3F00
3F00
0000
0000
7700
7700
6700
0000
3C00
7E00
EF00
CFE0
C7C0
C600
E600
FC00
7800
ENDCHAR
STARTCHAR uni022C
ENCODING 556
SWIDTH 816 0
DWIDTH 16 0
BBX 15 25 1 0
BITMAP
03F8
03F8
0000
0388
07DC
06F8
0430
0000
0000
03E0
0FF8
1E3C
381C
700E
700E
700E
E00E
E00E
E00E
E01C
701C
7038
7870
3FE0
0F80
ENDCHAR
STARTCHAR uni022D
ENCODING 557
SWIDTH 451 0
DWIDTH 9 0
BBX 11 17 1 0
BITMAP
3F00
3F00
0000
3080
7980
CF00
4600
0000
3C00
7E00
EF00
CFE0
C7C0
C600
E600
FC00
7800
ENDCHAR
STARTCHAR uni0230
ENCODING 560
SWIDTH 816 0
DWIDTH 16 0
BBX 15 24 1 0
BITMAP
03F8
03F0
0000
00E0
01E0
01C0
0000
0000
03E0
0FF8
1E3C
381C
700E
700E
700E
E00E
E00E
E00E
E01C
701C
7038
7870
3FE0
0F80
ENDCHAR
STARTCHAR uni0231
ENCODING 561
SWIDTH 451 0
DWIDTH 9 0
BBX 11 17 1 0
BITMAP
3F00
3F00
0000
0000
1C00
1C00
1C00
0000
3C00
7E00
EF00
CFE0
C7C0
C600
E600
FC00
7800
ENDCHAR
STARTCHAR uni0232
ENCODING 562
SWIDTH 851 0
DWIDTH 17 0
BBX 19 26 0 -6
BITMAP
00FC00
00FC00
000000
000000
1E0380
3F0380
670380
C70300
870700
070700
0E0700
0E0F00
0E0F00
0E1F00
0E1E00
0E3600
0FE7E0
07CFE0
007E00
01CE00
030C00
071C00
061C00
073800
07F000
03E000
ENDCHAR
STARTCHAR uni0233
ENCODING 563
SWIDTH 479 0
DWIDTH 10 0
BBX 12 21 0 -9
BITMAP
1F80
1F80
0000
3180
3380
7300
7300
6700
6730
7FE0
7FC0
3700
0E00
1E00
3600
6E00
4C00
CC00
D800
F800
7000
ENDCHAR
STARTCHAR uni0237
ENCODING 567
SWIDTH 254 0
DWIDTH 5 0
BBX 12 18 -5 -9
BITMAP
0180
0180
0380
0380
0380
03B0
0370
03E0
0380
0700
0F00
1E00
3600
6600
6C00
CC00
7800
7000
ENDCHAR
STARTCHAR uni0259
ENCODING 601
SWIDTH 458 0
DWIDTH 9 0
BBX 8 9 1 0
BITMAP
7C
FE
06
07
FF
FF
C6
FE
7C
ENDCHAR
STARTCHAR uni02BC
ENCODING 700
SWIDTH 600 0
DWIDTH 12 0
BBX 3 5 5 10
BITMAP
60
E0
E0
C0
C0
ENDCHAR
STARTCHAR circumflex
ENCODING 710
SWIDTH 600 0
DWIDTH 12 0
BBX 6 7 3 10
BITMAP
10
38
3C
6C
EC
CC
CC
ENDCHAR
STARTCHAR caron
ENCODING 711
SWIDTH 600 0
DWIDTH 12 0
BBX 6 7 4 10
BITMAP
84
CC
DC
D8
D8
F0
60
ENDCHAR
STARTCHAR uni02C9
ENCODING 713
SWIDTH 600 0
DWIDTH 12 0
BBX 6 2 3 10
BITMAP
FC
FC
ENDCHAR
STARTCHAR breve
ENCODING 728
SWIDTH 600 0
DWIDTH 12 0
BBX 8 5 2 10
BITMAP
41
C3
E3
7F
3C
ENDCHAR
STARTCHAR dotaccent
ENCODING 729
SWIDTH 600 0
DWIDTH 12 0
BBX 4 3 4 10
BITMAP
70
F0
70
ENDCHAR
STARTCHAR ring
ENCODING 730
SWIDTH 600 0
DWIDTH 12 0
BBX 5 6 4 10
BITMAP
70
F8
D8
D8
F8
70
ENDCHAR
STARTCHAR ogonek
ENCODING 731
SWIDTH 600 0
DWIDTH 12 0
BBX 5 6 3 -5
BITMAP
60
C0
C0
C0
F8
78
ENDCHAR
STARTCHAR tilde
ENCODING 732
SWIDTH 600 0
DWIDTH 12 0
BBX 9 4 2 10
BITMAP
7100
7B80
DF00
8600
ENDCHAR
STARTCHAR hungarumlaut
ENCODING 733
SWIDTH 600 0
DWIDTH 12 0
BBX 7 6 4 10
BITMAP
66
6E
EC
CC
D8
98
ENDCHAR
STARTCHAR gravecomb
ENCODING 768
SWIDTH 0 0
DWIDTH 0 0
BBX 5 6 -10 10
BITMAP
60
E0
70
30
18
18
ENDCHAR
STARTCHAR acutecomb
ENCODING 769
SWIDTH 0 0
DWIDTH 0 0
BBX 5 6 -7 10
BITMAP
30
38
30
60
60
C0
ENDCHAR
STARTCHAR uni0302
ENCODING 770
SWIDTH 0 0
DWIDTH 0 0
BBX 6 7 -9 10
BITMAP
10
38
3C
6C
EC
CC
CC
ENDCHAR
STARTCHAR tildecomb
ENCODING 771
SWIDTH 0 0
DWIDTH 0 0
BBX 9 4 -10 10
BITMAP
7100
7B80
DF00
8600
ENDCHAR
STARTCHAR uni0304
ENCODING 772
SWIDTH 0 0
DWIDTH 0 0
BBX 6 2 -9 10
BITMAP
FC
FC
ENDCHAR
STARTCHAR uni0306
ENCODING 774
SWIDTH 0 0
DWIDTH 0 0
BBX 8 5 -10 10
BITMAP
41
C3
E3
7F
3C
ENDCHAR
STARTCHAR uni0307
ENCODING 775
SWIDTH 0 0
DWIDTH 0 0
BBX 4 3 -8 10
BITMAP
70
F0
70
ENDCHAR
STARTCHAR uni0308
ENCODING 776
SWIDTH 0 0
DWIDTH 0 0
BBX 7 3 -9 10
BITMAP
CE
EE
CC
ENDCHAR
STARTCHAR hookabovecomb
ENCODING 777
SWIDTH 0 0
DWIDTH 0 0
BBX 5 6 -8 10
BITMAP
F0
F8
18
18
78
70
ENDCHAR
STARTCHAR uni030A
ENCODING 778
SWIDTH 0 0
DWIDTH 0 0
BBX 5 6 -8 10
BITMAP
70
F8
D8
D8
F8
70
ENDCHAR
STARTCHAR uni030B
ENCODING 779
SWIDTH 0 0
DWIDTH 0 0
BBX 7 6 -8 10
BITMAP
66
6E
EC
CC
D8
98
ENDCHAR
STARTCHAR uni030C
ENCODING 780
SWIDTH 0 0
DWIDTH 0 0
BBX 6 7 -8 10
BITMAP
84
CC
DC
D8
D8
F0
60
ENDCHAR
STARTCHAR uni030F
ENCODING 783
SWIDTH 0 0
DWIDTH 0 0
BBX 8 6 -11 10
BITMAP
EC
EC
6E
66
32
13
ENDCHAR
STARTCHAR uni0311
ENCODING 785
SWIDTH 0 0
DWIDTH 0 0
BBX 8 4 -10 11
BITMAP
3E
7F
E3
C3
ENDCHAR
STARTCHAR uni0312
ENCODING 786
SWIDTH 0 0
DWIDTH 0 0
BBX 3 5 -7 10
BITMAP
60
E0
E0
C0
C0
ENDCHAR
STARTCHAR uni031B
ENCODING 795
SWIDTH 0 0
DWIDTH 0 0
BBX 3 5 -6 7
BITMAP
20
60
60
E0
C0
ENDCHAR
STARTCHAR dotbelowcomb
ENCODING 803
SWIDTH 0 0
DWIDTH 0 0
BBX 3 3 -9 -4
BITMAP
E0
E0
E0
ENDCHAR
STARTCHAR uni0324
ENCODING 804
SWIDTH 0 0
DWIDTH 0 0
BBX 7 3 -11 -4
BITMAP
EE
EE
CE
ENDCHAR
STARTCHAR uni0326
ENCODING 806
SWIDTH 0 0
DWIDTH 0 0
BBX 3 5 -9 -6
BITMAP
60
E0
C0
C0
C0
ENDCHAR
STARTCHAR uni0327
ENCODING 807
SWIDTH 0 0
DWIDTH 0 0
BBX 6 6 -11 -5
BITMAP
78
7C
0C
0C
F8
F0
ENDCHAR
STARTCHAR uni0328
ENCODING 808
SWIDTH 0 0
DWIDTH 0 0
BBX 5 6 -9 -5
BITMAP
60
C0
C0
C0
F8
78
ENDCHAR
STARTCHAR uni032E
ENCODING 814
SWIDTH 0 0
DWIDTH 0 0
BBX 8 5 -12 -6
BITMAP
41
C3
E7
7F
3C
ENDCHAR
STARTCHAR uni0331
ENCODING 817
SWIDTH 0 0
DWIDTH 0 0
BBX 7 2 -11 -3
BITMAP
FE
FE
ENDCHAR
STARTCHAR uni0394
ENCODING 916
SWIDTH 700 0
DWIDTH 14 0
BBX 12 17 1 0
BITMAP
0300
0380
0780
0780
0780
0F80
0CC0
1CC0
18C0
38C0
30C0
30E0
7060
6060
E060
FFF0
FFE0
ENDCHAR
STARTCHAR uni03A9
ENCODING 937
SWIDTH 816 0
DWIDTH 16 0
BBX 16 17 0 0
BITMAP
01F0
07FC
0F3E
1E0E
1C07
3807
3807
3007
7007
7007
7006
700E
380E
381C
1C38
FE7F
FE7F
ENDCHAR
STARTCHAR uni03BC
ENCODING 956
SWIDTH 462 0
DWIDTH 9 0
BBX 11 15 1 -5
BITMAP
6300
6700
E600
E600
EE00
CE20
CE60
FEC0
F780
E700
C000
C000
C000
C000
C000
ENDCHAR
STARTCHAR pi
ENCODING 960
SWIDTH 496 0
DWIDTH 10 0
BBX 13 10 0 0
BITMAP
7FE0
FFE0
3180
7380
7380
7310
6318
63B0
63E0
61C0
ENDCHAR
STARTCHAR uni0400
ENCODING 1024
SWIDTH 686 0
DWIDTH 14 0
BBX 15 23 1 0
BITMAP
0800
1C00
1E00
0700
0180
0000
0000
07E0
1FF8
3C38
3818
3838
3810
1F80
3F00
7800
E000
E000
E000
E002
F01E
7FFE
1FF0
ENDCHAR
STARTCHAR uni0401
ENCODING 1025
SWIDTH 686 0
DWIDTH 14 0
BBX 15 21 1 0
BITMAP
0730
0770
0770
0000
0000
07E0
1FF8
3C38
3818
3838
3810
1F80
3F00
7800
E000
E000
E000
E002
F01E
7FFE
1FF0
ENDCHAR
STARTCHAR uni0402
ENCODING 1026
SWIDTH 974 0
DWIDTH 19 0
BBX 21 25 1 -9
BITMAP
0FFF80
7FFF80
E1C000
C1C000
C1C000
E38000
C38000
039F00
03BF80
03E380
038380
078390
0703B8
0703F0
0703E0
070380
000F00
001F00
003F00
007700
006600
00EE00
00EC00
00FC00
007000
ENDCHAR
STARTCHAR uni0403
ENCODING 1027
SWIDTH 635 0
DWIDTH 13 0
BBX 16 23 1 0
BITMAP
0010
0038
00F0
01E0
0180
0000
0000
1FFF
7FFF
F700
C700
C700
E700
4600
0E00
0E00
0E00
0E00
0E00
1C00
1C00
1C00
1C00
ENDCHAR
STARTCHAR uni0404
ENCODING 1028
SWIDTH 687 0
DWIDTH 14 0
BBX 15 16 1 0
BITMAP
03E0
0FF0
1E38
3838
7038
7030
7000
FFC0
FFC0
E000
E000
7000
7000
3C0E
1FFE
07F0
ENDCHAR
STARTCHAR uni0405
ENCODING 1029
SWIDTH 693 0
DWIDTH 14 0
BBX 13 16 1 0
BITMAP
0FC0
1FF0
3878
7038
7038
7030
3C00
1F00
0FC0
01E0
C070
C070
C070
E0F0
7FE0
3F80
ENDCHAR
STARTCHAR uni0406
ENCODING 1030
SWIDTH 495 0
DWIDTH 10 0
BBX 11 16 0 0
BITMAP
3FE0
3FE0
0700
0700
0600
0E00
0E00
0E00
0E00
0E00
0C00
1C00
1C00
1C00
FF80
FF80
ENDCHAR
STARTCHAR uni0407
ENCODING 1031
SWIDTH 495 0
DWIDTH 10 0
BBX 11 21 0 0
BITMAP
0CC0
0EE0
0CC0
0000
0000
3FE0
3FE0
0700
0700
0600
0E00
0E00
0E00
0E00
0E00
0C00
1C00
1C00
1C00
FF80
FF80
ENDCHAR
STARTCHAR uni0408
ENCODING 1032
SWIDTH 743 0
DWIDTH 15 0
BBX 14 18 1 -2
BITMAP
0FF8
3FFC
7038
6038
E038
6038
6038
0038
01F0
03F0
0F70
1C70
1860
38E0
38C0
39C0
3F80
1F00
ENDCHAR
STARTCHAR uni0409
ENCODING 1033
SWIDTH 1158 0
DWIDTH 23 0
BBX 23 16 0 0
BITMAP
001C00
001C00
003C00
003C00
003C00
007C00
007DF8
007FFC
00FE1E
00DC0E
01DC0E
019C0E
C38E1C
E70E3C
7E07F8
3C03E0
ENDCHAR
STARTCHAR uni040A
ENCODING 1034
SWIDTH 1182 0
DWIDTH 24 0
BBX 23 16 0 0
BITMAP
1E0700
7F0700
E70700
C70600
870E00
070E00
070FF8
060FFE
3FFE0E
3FFC0E
0E1C0E
0E1C0E
0C1C0E
1C0E1C
1C0FF8
1803E0
ENDCHAR
STARTCHAR uni040B
ENCODING 1035
SWIDTH 979 0
DWIDTH 20 0
BBX 21 16 1 0
BITMAP
0FFF80
7FFF80
E1C000
C1C000
C1C000
E38000
C38000
039F00
03BF80
03E380
038380
078380
070388
070398
0703F0
0701E0
ENDCHAR
STARTCHAR uni040C
ENCODING 1036
SWIDTH 937 0
DWIDTH 19 0
BBX 20 23 1 0
BITMAP
000100
000380
000780
000E00
001800
000000
000000
1FC0C0
7FE1C0
71C1C0
E1C380
E1C380
618700
039E00
07F800
07F000
03B800
039C00
831C10
C70E10
C70F70
FE07E0
7C03C0
ENDCHAR
STARTCHAR uni040D
ENCODING 1037
SWIDTH 890 0
DWIDTH 18 0
BBX 20 23 0 0
BITMAP
020000
070000
038000
01E000
006000
000000
000000
1E0300
3F0380
670380
C70300
870700
070700
0E0700
0E0700
0E0F00
0E0E00
0C1E00
1C1600
1C3E10
1EEF70
0FC7E0
0783C0
ENDCHAR
STARTCHAR uni040E
ENCODING 1038
SWIDTH 824 0
DWIDTH 16 0
BBX 18 29 1 -5
BITMAP
000400
010C00
039C00
03F800
01F000
000000
000000
000000
3C0600
FE0700
CE0600
8E0E00
0E0E00
1C1E00
1C1E00
1C3E00
1C6C00
1FCC00
0F8DC0
001FC0
007F00
01FC00
039800
061800
0C3800
0C3000
0C7000
0FE000
07C000
ENDCHAR
STARTCHAR uni040F
ENCODING 1039
SWIDTH 890 0
DWIDTH 18 0
BBX 20 19 0 -3
BITMAP
1E0300
3F0380
670380
C70300
870700
070700
0E0700
0E0700
0E0F00
0E0E00
0C1E00
1C1600
1C3E10
1EEF70
0FC7E0
0783C0
070000
070000
070000
ENDCHAR
STARTCHAR uni0410
ENCODING 1040
SWIDTH 786 0
DWIDTH 16 0
BBX 17 16 1 0
BITMAP
00FE00
07FF00
0F8600
1C1800
381C00
701800
703800
703800
E03800
E07000
E07000
E07000
E0F080
71F980
7F3F00
1E1E00
ENDCHAR
STARTCHAR uni0411
ENCODING 1041
SWIDTH 917 0
DWIDTH 18 0
BBX 17 17 1 -1
BITMAP
1FFF00
7FFF00
E38000
C38000
C38000
C70000
E70000
07FC00
1FFF00
1F0780
060380
0E0380
0E0380
0E0780
0E0F00
0E7E00
0EF800
ENDCHAR
STARTCHAR uni0412
ENCODING 1042
SWIDTH 827 0
DWIDTH 17 0
BBX 17 17 0 -1
BITMAP
07FC00
3FFF00
7C0780
E00380
0E0380
0E0380
0E0F00
0CFE00
1CF800
1C1E00
1C0E00
1C0E00
180E00
383C00
3FF800
3FE000
380000
ENDCHAR
STARTCHAR uni0413
ENCODING 1043
SWIDTH 635 0
DWIDTH 13 0
BBX 16 16 1 0
BITMAP
1FFF
7FFF
F700
C700
C700
E700
4600
0E00
0E00
0E00
0E00
0E00
1C00
1C00
1C00
1C00
ENDCHAR
STARTCHAR uni0414
ENCODING 1044
SWIDTH 964 0
DWIDTH 19 0
BBX 19 16 0 0
BITMAP
01FC00
0FFF00
1E0780
0801C0
01C1C0
0180E0
0380E0
0380E0
0300E0
0700E0
0701C0
7F01C0
7F03C0
C78780
FEFF00
787C00
ENDCHAR
STARTCHAR uni0415
ENCODING 1045
SWIDTH 686 0
DWIDTH 14 0
BBX 15 16 1 0
BITMAP
07E0
1FF8
3C38
3818
3838
3810
1F80
3F00
7800
E000
E000
E000
E002
F01E
7FFE
1FF0
ENDCHAR
STARTCHAR uni0416
ENCODING 1046
SWIDTH 1234 0
DWIDTH 25 0
BBX 26 16 1 0
BITMAP
1E060F00
3F0E1F80
238E1980
018E3800
01CE7000
01CE7000
00CDE000
007FC000
00FF8000
01DDC000
039CE000
071CE000
861870C0
CE187180
FC383F00
78381E00
ENDCHAR
STARTCHAR uni0417
ENCODING 1047
SWIDTH 725 0
DWIDTH 15 0
BBX 13 16 1 0
BITMAP
07C0
1FF0
3870
3070
3070
3060
00E0
07E0
0F70
0038
6038
E038
E070
F0F0
7FE0
1F80
ENDCHAR
STARTCHAR uni0418
ENCODING 1048
SWIDTH 890 0
DWIDTH 18 0
BBX 20 16 0 0
BITMAP
1E0300
3F0380
670380
C70300
870700
070700
0E0700
0E0700
0E0F00
0E0E00
0C1E00
1C1600
1C3E10
1EEF70
0FC7E0
0783C0
ENDCHAR
STARTCHAR uni0419
ENCODING 1049
SWIDTH 890 0
DWIDTH 18 0
BBX 20 24 0 0
BITMAP
000200
008600
01C600
00FC00
007800
000000
000000
000000
1E0300
3F0380
670380
C70300
870700
070700
0E0700
0E0700
0E0F00
0E0E00
0C1E00
1C1600
1C3E10
1EEF70
0FC7E0
0783C0
ENDCHAR
STARTCHAR uni041A
ENCODING 1050
SWIDTH 937 0
DWIDTH 19 0
BBX 20 16 1 0
BITMAP
1FC0C0
7FE1C0
71C1C0
E1C380
E1C380
618700
039E00
07F800
07F000
03B800
039C00
831C10
C70E10
C70F70
FE07E0
7C03C0
ENDCHAR
STARTCHAR uni041B
ENCODING 1051
SWIDTH 861 0
DWIDTH 17 0
BBX 20 16 0 0
BITMAP
001C00
001C00
003C00
003C00
003C00
007C00
007C00
007C00
00FC00
00DC00
01DC00
018C00
C38E30
E70E70
7E07E0
3C0380
ENDCHAR
STARTCHAR uni041C
ENCODING 1052
SWIDTH 1133 0
DWIDTH 23 0
BBX 25 16 0 0
BITMAP
00707000
00707000
00F0F000
00F0F000
00F1F000
00F1F000
01F3F000
01F37000
01B37000
01B77000
03BE7000
03BE7000
C73E7080
E71C3B80
7E1C3F00
3C181E00
ENDCHAR
STARTCHAR uni041D
ENCODING 1053
SWIDTH 873 0
DWIDTH 17 0
BBX 20 17 0 0
BITMAP
0001C0
1E03E0
7F0760
E70660
C70660
870E60
070CC0
070D80
060F00
3FFC00
3FFC00
0E1C00
0E1C00
0C1C10
1C0E70
1C0FE0
1807C0
ENDCHAR
STARTCHAR uni041E
ENCODING 1054
SWIDTH 816 0
DWIDTH 16 0
BBX 15 16 1 0
BITMAP
03E0
0FF8
1E3C
381C
700E
700E
700E
E00E
E00E
E00E
E01C
701C
7038
7870
3FE0
0F80
ENDCHAR
STARTCHAR uni041F
ENCODING 1055
SWIDTH 892 0
DWIDTH 18 0
BBX 19 16 1 0
BITMAP
0FFFC0
7FFFE0
F30720
C70700
C70700
E70600
C70E00
060E00
0E0E00
0E0E00
0E0C00
0E1C00
0E1C20
0C1C60
1C0FC0
0C0780
ENDCHAR
STARTCHAR uni0420
ENCODING 1056
SWIDTH 805 0
DWIDTH 16 0
BBX 15 18 1 -2
BITMAP
01F0
07FC
1E1E
380E
318E
738E
638E
E38E
C31C
CFF8
CFE0
C700
C700
C700
E600
EE00
7E00
3C00
ENDCHAR
STARTCHAR uni0421
ENCODING 1057
SWIDTH 686 0
DWIDTH 14 0
BBX 15 16 1 0
BITMAP
03E0
0FF0
1E38
3838
7038
7038
7000
E000
E000
E000
E000
7000
7002
3C1E
1FFE
07F0
ENDCHAR
STARTCHAR uni0422
ENCODING 1058
SWIDTH 697 0
DWIDTH 14 0
BBX 17 16 1 0
BITMAP
0FFF80
7FFF80
F1C000
C1C000
C1C000
E18000
438000
038000
038000
038000
030000
070000
070000
070000
070000
070000
ENDCHAR
STARTCHAR uni0423
ENCODING 1059
SWIDTH 824 0
DWIDTH 16 0
BBX 18 21 1 -5
BITMAP
3C0600
FE0700
CE0600
8E0E00
0E0E00
1C1E00
1C1E00
1C3E00
1C6C00
1FCC00
0F8DC0
001FC0
007F00
01FC00
039800
061800
0C3800
0C3000
0C7000
0FE000
07C000
ENDCHAR
STARTCHAR uni0424
ENCODING 1060
SWIDTH 977 0
DWIDTH 20 0
BBX 18 24 1 -5
BITMAP
100000
380000
3FF800
0FF800
007000
0F6780
1FEFC0
39F9C0
70F1C0
70E1C0
E0E1C0
E0C1C0
E0C1C0
E1C1C0
E3C380
E7E780
7FFF00
39FC00
018000
018000
738000
730000
3F0000
1C0000
ENDCHAR
STARTCHAR uni0425
ENCODING 1061
SWIDTH 712 0
DWIDTH 14 0
BBX 17 16 0 0
BITMAP
3E0600
7F0E00
E71C00
83B800
03F000
03E000
01C000
03C000
03C000
07C000
0EE000
1CE000
38E180
707380
E07F00
E03C00
ENDCHAR
STARTCHAR uni0426
ENCODING 1062
SWIDTH 890 0
DWIDTH 18 0
BBX 20 22 0 -6
BITMAP
1E0300
3F0380
670380
C70300
870700
070700
0E0700
0E0700
0E0F00
0E0E00
0C1E00
1C1600
1C3E00
1C6FB0
0FC7F0
0783C0
000F80
001D80
003B00
003300
003F00
003E00
ENDCHAR
STARTCHAR uni0427
ENCODING 1063
SWIDTH 773 0
DWIDTH 15 0
BBX 13 16 2 0
BITMAP
7038
7038
7038
7038
7030
6070
E070
E0F0
E1F0
7FF0
7F70
0060
0060
00E0
00E0
0060
ENDCHAR
STARTCHAR uni0428
ENCODING 1064
SWIDTH 1272 0
DWIDTH 25 0
BBX 28 16 0 0
BITMAP
1E030300
3F070300
67070700
C7070700
87070700
07070700
0E0E0700
0E0E0E00
0E0E0E00
0E1E1E00
0C1C1E00
1C3C3E00
1C2C2E30
1EEEEF70
0FCFCFE0
0F878780
ENDCHAR
STARTCHAR uni0429
ENCODING 1065
SWIDTH 1272 0
DWIDTH 25 0
BBX 28 22 0 -6
BITMAP
1E030300
3F070300
67070700
C7070700
87070700
07070700
0E0E0700
0E0E0E00
0E0E0E00
0E1E1E00
0C1C1E00
1C3C3E00
1C2C2E00
1EEEEFB0
0FCFC7E0
0F878380
00000F80
00001F00
00003300
00007700
00007E00
00003C00
ENDCHAR
STARTCHAR uni042A
ENCODING 1066
SWIDTH 863 0
DWIDTH 17 0
BBX 15 16 2 0
BITMAP
0380
FF80
FF00
0600
0E00
0FF8
0FFC
3C1E
7C0E
1C0E
1C0E
1C0E
1C1C
0E3C
0FF8
07E0
ENDCHAR
STARTCHAR uni042B
ENCODING 1067
SWIDTH 1078 0
DWIDTH 22 0
BBX 20 16 1 0
BITMAP
180070
1C0070
180070
380070
380060
37E060
3FF0E0
F878E0
F038E0
7038E0
7038C0
7039C0
7071C0
38F1C0
3FE1C0
0F81C0
ENDCHAR
STARTCHAR uni042C
ENCODING 1068
SWIDTH 721 0
DWIDTH 14 0
BBX 13 16 1 0
BITMAP
1800
1C00
1800
3800
3800
37E0
3FF0
F878
F038
7038
7038
7038
7070
38F0
3FE0
0F80
ENDCHAR
STARTCHAR uni042D
ENCODING 1069
SWIDTH 755 0
DWIDTH 15 0
BBX 14 16 1 0
BITMAP
0FC0
3FF0
7878
6038
0038
001C
001C
1FFC
1FFC
0038
4038
E038
E070
E0E0
7FC0
3F00
ENDCHAR
STARTCHAR uni042E
ENCODING 1070
SWIDTH 1246 0
DWIDTH 25 0
BBX 25 16 0 0
BITMAP
1E033800
7F07BE00
E70D8E00
C71F0700
871B0700
071E0300
073C0380
06780380
3FF80700
3FB80700
0E380700
0E380E00
0C3C1E00
1C1E3C00
1C0FF800
1807E000
ENDCHAR
STARTCHAR uni042F
ENCODING 1071
SWIDTH 850 0
DWIDTH 17 0
BBX 20 16 0 0
BITMAP
01FF00
07FF00
0F0700
0E0700
0E0E00
0C0E00
0E0E00
0E1E00
07FE00
03FE00
007C00
00EC00
C1CC30
E38E60
7F0FC0
3C0780
ENDCHAR
STARTCHAR uni0430
ENCODING 1072
SWIDTH 470 0
DWIDTH 9 0
BBX 11 9 1 0
BITMAP
1C00
3F00
7700
E600
C600
CE60
CEE0
FFC0
7380
ENDCHAR
STARTCHAR uni0431
ENCODING 1073
SWIDTH 473 0
DWIDTH 9 0
BBX 11 18 1 0
BITMAP
0100
0F00
3F00
7000
7000
3800
1C00
1C00
0E00
3F00
7F00
E700
E7E0
C7E0
C600
EE00
FC00
7800
ENDCHAR
STARTCHAR uni0432
ENCODING 1074
SWIDTH 473 0
DWIDTH 9 0
BBX 11 18 1 0
BITMAP
0E00
1E00
3B00
3300
7600
6600
6600
6C00
E800
FE00
FF00
E700
E7E0
E3E0
E300
6600
7E00
3C00
ENDCHAR
STARTCHAR uni0433
ENCODING 1075
SWIDTH 380 0
DWIDTH 8 0
BBX 9 9 1 0
BITMAP
7C00
FC00
8C00
1C00
7000
E080
C380
FF00
7C00
ENDCHAR
STARTCHAR uni0434
ENCODING 1076
SWIDTH 479 0
DWIDTH 10 0
BBX 12 18 0 -9
BITMAP
0E00
1F80
3B80
7300
6300
6330
67E0
7FC0
3F80
0E00
1E00
3600
6E00
6C00
CC00
D800
F800
7000
ENDCHAR
STARTCHAR uni0435
ENCODING 1077
SWIDTH 393 0
DWIDTH 8 0
BBX 9 9 1 0
BITMAP
3C00
7E00
E600
CE00
DC00
F080
E380
FF00
3E00
ENDCHAR
STARTCHAR uni0436
ENCODING 1078
SWIDTH 717 0
DWIDTH 14 0
BBX 17 9 0 0
BITMAP
399C00
3DBE00
37F600
07E600
07E000
6FE180
EDF380
F9BF00
711E00
ENDCHAR
STARTCHAR uni0437
ENCODING 1079
SWIDTH 435 0
DWIDTH 9 0
BBX 12 18 -1 -9
BITMAP
0F00
1F80
3180
0180
0300
0E30
3C70
3DE0
0F80
0E00
1E00
3E00
6600
6600
CE00
DC00
F800
7000
ENDCHAR
STARTCHAR uni0438
ENCODING 1080
SWIDTH 462 0
DWIDTH 9 0
BBX 11 9 1 0
BITMAP
6300
6700
E600
E600
CE00
CE60
FEE0
F7C0
6700
ENDCHAR
STARTCHAR uni0439
ENCODING 1081
SWIDTH 462 0
DWIDTH 9 0
BBX 11 15 1 0
BITMAP
0100
2180
6300
7F00
3C00
0000
6300
6700
E600
E600
CE00
CE60
FEE0
F7C0
6700
ENDCHAR
STARTCHAR uni043A
ENCODING 1082
SWIDTH 465 0
DWIDTH 9 0
BBX 11 9 1 0
BITMAP
6700
6F80
FD80
D980
F800
F860
FCE0
EFC0
C700
ENDCHAR
STARTCHAR uni043B
ENCODING 1083
SWIDTH 549 0
DWIDTH 11 0
BBX 13 9 0 0
BITMAP
0380
0380
0780
0780
6F80
CD88
DD98
F9F0
70E0
ENDCHAR
STARTCHAR uni043C
ENCODING 1084
SWIDTH 734 0
DWIDTH 15 0
BBX 17 9 0 0
BITMAP
031800
073C00
073800
077800
6D7800
CDD880
DDDD80
F99F00
718E00
ENDCHAR
STARTCHAR uni043D
ENCODING 1085
SWIDTH 475 0
DWIDTH 10 0
BBX 11 9 1 0
BITMAP
6300
6300
E700
FE00
FE20
C660
C6E0
C7C0
C780
ENDCHAR
STARTCHAR uni043E
ENCODING 1086
SWIDTH 451 0
DWIDTH 9 0
BBX 11 9 1 0
BITMAP
3C00
7E00
EF00
CFE0
C7C0
C600
E600
FC00
7800
ENDCHAR
STARTCHAR uni043F
ENCODING 1087
SWIDTH 496 0
DWIDTH 10 0
BBX 12 9 1 0
BITMAP
6700
6F00
FF00
FF00
F700
E630
E660
E7C0
C380
ENDCHAR
STARTCHAR uni0440
ENCODING 1088
SWIDTH 481 0
DWIDTH 10 0
BBX 14 18 -2 -9
BITMAP
0DC0
1FE0
1EE0
1CE0
1CE0
1CC4
3DCC
3FF8
7FF0
7C00
5800
D800
D800
9800
9800
F000
F000
E000
ENDCHAR
STARTCHAR uni0441
ENCODING 1089
SWIDTH 368 0
DWIDTH 7 0
BBX 9 9 1 0
BITMAP
3C00
7C00
EC00
CC00
C000
C180
E380
FF00
7C00
ENDCHAR
STARTCHAR uni0442
ENCODING 1090
SWIDTH 744 0
DWIDTH 15 0
BBX 16 9 1 0
BITMAP
6738
6F78
FFF8
F7F8
F7B8
E731
E733
E73E
C63C
ENDCHAR
STARTCHAR uni0443
ENCODING 1091
SWIDTH 479 0
DWIDTH 10 0
BBX 12 18 0 -9
BITMAP
3180
3380
7300
7300
6700
6730
7FE0
7FC0
3700
0E00
1E00
3600
6E00
4C00
CC00
D800
F800
7000
ENDCHAR
STARTCHAR uni0444
ENCODING 1092
SWIDTH 721 0
DWIDTH 14 0
BBX 16 22 1 -6
BITMAP
0100
0180
0380
0380
0300
0300
0300
1F70
3EF0
7738
E738
C730
CE73
CE77
FFFE
77BC
0600
0600
0E00
0E00
0E00
0E00
ENDCHAR
STARTCHAR uni0445
ENCODING 1093
SWIDTH 529 0
DWIDTH 11 0
BBX 13 9 0 0
BITMAP
3CE0
3FE0
3760
0700
2608
6E18
EF38
FFF0
73E0
ENDCHAR
STARTCHAR uni0446
ENCODING 1094
SWIDTH 501 0
DWIDTH 10 0
BBX 11 15 1 -6
BITMAP
6300
6700
E600
E600
CE00
CE00
FE60
F7C0
6380
0F00
1E00
3600
2600
7C00
3800
ENDCHAR
STARTCHAR uni0447
ENCODING 1095
SWIDTH 555 0
DWIDTH 11 0
BBX 14 11 0 0
BITMAP
0400
0E00
1FE0
1BE0
19C0
3380
3704
660C
C638
87F0
03E0
ENDCHAR
STARTCHAR uni0448
ENCODING 1096
SWIDTH 693 0
DWIDTH 14 0
BBX 15 9 1 0
BITMAP
6330
6730
E630
E670
CE70
CEE2
FFE6
F7FC
6738
ENDCHAR
STARTCHAR uni0449
ENCODING 1097
SWIDTH 732 0
DWIDTH 15 0
BBX 16 15 1 -6
BITMAP
6330
6730
E630
E670
CE70
CEE0
FFE7
F7FE
673C
0070
01F0
01B0
0360
03E0
01C0
ENDCHAR
STARTCHAR uni044A
ENCODING 1098
SWIDTH 542 0
DWIDTH 11 0
BBX 12 9 1 0
BITMAP
FC00
3800
7F00
7F00
7390
6390
6330
7FE0
3FC0
ENDCHAR
STARTCHAR uni044B
ENCODING 1099
SWIDTH 702 0
DWIDTH 14 0
BBX 16 9 1 0
BITMAP
6030
6030
EE70
FFF0
E3F1
E3E3
E776
7E7C
3C38
ENDCHAR
STARTCHAR uni044C
ENCODING 1100
SWIDTH 517 0
DWIDTH 10 0
BBX 12 9 1 0
BITMAP
6000
6000
EE00
FF00
E310
E330
E770
7FE0
3F80
ENDCHAR
STARTCHAR uni044D
ENCODING 1101
SWIDTH 466 0
DWIDTH 9 0
BBX 11 9 1 0
BITMAP
7C00
7F00
0700
1FE0
DFE0
C700
C700
FE00
7C00
ENDCHAR
STARTCHAR uni044E
ENCODING 1102
SWIDTH 676 0
DWIDTH 14 0
BBX 15 9 1 0
BITMAP
63E0
67F0
E670
FE7E
FE3E
CE30
CE70
C7E0
C3C0
ENDCHAR
STARTCHAR uni044F
ENCODING 1103
SWIDTH 543 0
DWIDTH 11 0
BBX 13 9 0 0
BITMAP
0FC0
1FC0
18C0
19C0
6FC8
C288
E798
FCF0
78E0
ENDCHAR
STARTCHAR uni0450
ENCODING 1104
SWIDTH 393 0
DWIDTH 8 0
BBX 9 16 1 0
BITMAP
6000
6000
7000
3000
1800
0800
0000
3C00
7E00
E600
CE00
DC00
F080
E380
FF00
3E00
ENDCHAR
STARTCHAR uni0451
ENCODING 1105
SWIDTH 393 0
DWIDTH 8 0
BBX 9 13 1 0
BITMAP
7300
7700
7700
0000
3C00
7E00
E600
CE00
DC00
F080
E380
FF00
3E00
ENDCHAR
STARTCHAR uni0452
ENCODING 1106
SWIDTH 514 0
DWIDTH 10 0
BBX 11 25 1 -9
BITMAP
1800
3800
3800
FF00
FF00
7000
7000
6700
6F00
EF00
FB00
F700
F760
E7E0
E7C0
6700
0E00
1E00
3E00
6C00
CC00
DC00
D800
F800
F000
ENDCHAR
STARTCHAR uni0453
ENCODING 1107
SWIDTH 380 0
DWIDTH 8 0
BBX 9 16 1 0
BITMAP
0600
0E00
0C00
1C00
1800
1000
0000
7C00
FC00
8C00
1C00
7000
E080
C380
FF00
7C00
ENDCHAR
STARTCHAR uni0454
ENCODING 1108
SWIDTH 379 0
DWIDTH 8 0
BBX 9 9 1 0
BITMAP
3C00
7E00
E600
F800
F880
C180
E380
FF00
3C00
ENDCHAR
STARTCHAR uni0455
ENCODING 1109
SWIDTH 427 0
DWIDTH 9 0
BBX 11 9 0 0
BITMAP
0C00
1C00
1C00
3C00
3E20
6760
DFE0
9FC0
1F80
ENDCHAR
STARTCHAR uni0456
ENCODING 1110
SWIDTH 246 0
DWIDTH 5 0
BBX 7 13 1 0
BITMAP
70
70
70
00
60
60
E0
E0
E0
C6
CC
F8
70
ENDCHAR
STARTCHAR uni0457
ENCODING 1111
SWIDTH 246 0
DWIDTH 5 0
BBX 8 13 0 0
BITMAP
E6
EE
EE
00
30
30
70
70
70
63
66
7C
38
ENDCHAR
STARTCHAR uni0458
ENCODING 1112
SWIDTH 254 0
DWIDTH 5 0
BBX 12 22 -5 -9
BITMAP
01C0
03C0
01C0
0000
0180
0180
0380
0380
0380
03B0
0370
03E0
0380
0700
0F00
1E00
3600
6600
6C00
CC00
7800
7000
ENDCHAR
STARTCHAR uni0459
ENCODING 1113
SWIDTH 794 0
DWIDTH 16 0
BBX 18 9 0 0
BITMAP
038000
038000
07BC00
07FC00
6DCE40
CD8E40
DD8CC0
F9FF80
70FF00
ENDCHAR
STARTCHAR uni045A
ENCODING 1114
SWIDTH 751 0
DWIDTH 15 0
BBX 17 9 1 0
BITMAP
630000
670000
E7F000
FFF800
FF3900
C63980
C73B00
C3FE00
C1FC00
ENDCHAR
STARTCHAR uni045B
ENCODING 1115
SWIDTH 502 0
DWIDTH 10 0
BBX 12 16 1 0
BITMAP
1800
3800
3800
FF00
FF00
7000
6000
6700
6F00
EF00
FB00
F700
F730
E760
E7C0
6380
ENDCHAR
STARTCHAR uni045C
ENCODING 1116
SWIDTH 465 0
DWIDTH 9 0
BBX 11 16 1 0
BITMAP
0300
0380
0700
0600
0C00
0C00
0000
6700
6F80
FD80
D980
F800
F860
FCE0
EFC0
C700
ENDCHAR
STARTCHAR uni045D
ENCODING 1117
SWIDTH 462 0
DWIDTH 9 0
BBX 11 16 1 0
BITMAP
3000
7000
3000
1800
1800
0C00
0000
6300
6700
E600
E600
CE00
CE60
FEE0
F7C0
6700
ENDCHAR
STARTCHAR uni045E
ENCODING 1118
SWIDTH 479 0
DWIDTH 10 0
BBX 12 24 0 -9
BITMAP
0080
10C0
3180
3F80
1E00
0000
3180
3380
7300
7300
6700
6730
7FE0
7FC0
3700
0E00
1E00
3600
6E00
4C00
CC00
D800
F800
7000
ENDCHAR
STARTCHAR uni045F
ENCODING 1119
SWIDTH 600 0
DWIDTH 12 0
BBX 11 11 1 -2
BITMAP
6300
6700
E600
E600
CE00
CE60
FEE0
F7C0
6700
6000
6000
ENDCHAR
STARTCHAR uni0462
ENCODING 1122
SWIDTH 721 0
DWIDTH 14 0
BBX 13 16 1 0
BITMAP
1C00
FF00
FF00
3800
3800
37E0
3FF0
F878
F038
7038
7038
7038
7070
38F0
3FE0
0F80
ENDCHAR
STARTCHAR uni0463
ENCODING 1123
SWIDTH 517 0
DWIDTH 10 0
BBX 13 13 0 0
BITMAP
1000
3800
3800
FE00
7E00
7000
7700
7F80
7188
7198
73B8
3FF0
1FC0
ENDCHAR
STARTCHAR uni046A
ENCODING 1130
SWIDTH 1234 0
DWIDTH 25 0
BBX 26 16 1 0
BITMAP
1FFFFF00
1FFFFF00
03803800
01803800
01C07000
01C07000
00C1E000
007F8000
00FF8000
01DDC000
039CE000
071CE000
861870C0
CE187180
FC383F00
78381E00
ENDCHAR
STARTCHAR uni046B
ENCODING 1131
SWIDTH 788 0
DWIDTH 16 0
BBX 18 16 0 0
BITMAP
003800
003800
007800
007800
007800
00D800
00D000
06F700
0FBF00
03B800
03B000
03B800
67F840
EFF8C0
FDDF80
79CF00
ENDCHAR
STARTCHAR uni0472
ENCODING 1138
SWIDTH 816 0
DWIDTH 16 0
BBX 15 16 1 0
BITMAP
03E0
0FF8
1C3C
381C
700E
700E
7F0E
FFFE
E1FE
E00E
E01C
701C
7038
7870
3FE0
0F80
ENDCHAR
STARTCHAR uni0473
ENCODING 1139
SWIDTH 451 0
DWIDTH 9 0
BBX 11 9 1 0
BITMAP
3C00
7E00
E600
C760
FFE0
FFC0
C600
FE00
7800
ENDCHAR
STARTCHAR uni0474
ENCODING 1140
SWIDTH 797 0
DWIDTH 16 0
BBX 18 16 2 0
BITMAP
700F80
701FC0
701C80
701C00
701800
603800
E03800
E03000
E07000
607000
70E000
70E000
71C000
7F8000
3F0000
1E0000
ENDCHAR
STARTCHAR uni0475
ENCODING 1141
SWIDTH 420 0
DWIDTH 8 0
BBX 10 9 1 0
BITMAP
C3C0
C7C0
C600
CE00
EC00
FC00
F800
F800
7000
ENDCHAR
STARTCHAR uni048A
ENCODING 1162
SWIDTH 890 0
DWIDTH 18 0
BBX 20 26 0 -4
BITMAP
008600
01C600
00FC00
007800
000000
000000
1E0300
3F0380
670380
C70300
870700
070700
0E0700
0E0700
0E0F00
0E0E00
0C1E00
1C1600
1C3E10
1EEF70
0FC7E0
0783C0
000180
000380
000700
000600
ENDCHAR
STARTCHAR uni048B
ENCODING 1163
SWIDTH 462 0
DWIDTH 9 0
BBX 11 18 1 -3
BITMAP
0100
6180
7300
7F00
3C00
0000
6300
6700
E600
E600
CE00
CE60
FEE0
F7C0
6780
0700
0600
0C00
ENDCHAR
STARTCHAR uni048C
ENCODING 1164
SWIDTH 721 0
DWIDTH 14 0
BBX 13 16 1 0
BITMAP
1C00
FF00
FF00
3800
3800
37E0
3FF0
F878
F038
7038
7038
7038
7070
38F0
3FE0
0F80
ENDCHAR
STARTCHAR uni048D
ENCODING 1165
SWIDTH 517 0
DWIDTH 10 0
BBX 13 13 0 0
BITMAP
1000
3800
3800
FE00
7E00
7000
7700
7F80
7188
7198
73B8
3FF0
1FC0
ENDCHAR
STARTCHAR uni048E
ENCODING 1166
SWIDTH 805 0
DWIDTH 16 0
BBX 17 18 1 -2
BITMAP
01F000
07FC00
1E1E00
380E00
318E00
738E00
63BE00
E38F00
C31F80
CFF800
CFE000
C70000
C70000
C70000
E60000
EE0000
7E0000
3C0000
ENDCHAR
STARTCHAR uni048F
ENCODING 1167
SWIDTH 481 0
DWIDTH 10 0
BBX 14 18 -2 -9
BITMAP
0DC0
1FE0
1EE0
1CE0
1CE0
1FC4
1FCC
3FF8
3FF0
7C00
5800
D800
D800
D800
9800
F000
F000
E000
ENDCHAR
STARTCHAR uni0490
ENCODING 1168
SWIDTH 645 0
DWIDTH 13 0
BBX 17 21 1 0
BITMAP
000180
000180
000380
000380
000300
1FFF00
7FFF00
F70000
C70000
C70000
E70000
460000
0E0000
0E0000
0E0000
0E0000
0E0000
1C0000
1C0000
1C0000
1C0000
ENDCHAR
STARTCHAR uni0491
ENCODING 1169
SWIDTH 394 0
DWIDTH 8 0
BBX 8 12 1 0
BITMAP
02
03
06
7E
7C
E0
E0
C0
C0
C0
C0
C0
ENDCHAR
STARTCHAR uni0492
ENCODING 1170
SWIDTH 635 0
DWIDTH 13 0
BBX 16 16 1 0
BITMAP
1FFF
7FFF
F700
C700
C700
E700
4E00
3FC0
3FC0
0E00
0E00
0E00
1C00
1C00
1C00
1C00
ENDCHAR
STARTCHAR uni0493
ENCODING 1171
SWIDTH 380 0
DWIDTH 8 0
BBX 10 9 0 0
BITMAP
3E00
7E00
4600
0E00
FC00
7C40
61C0
7F80
3E00
ENDCHAR
STARTCHAR uni0494
ENCODING 1172
SWIDTH 884 0
DWIDTH 18 0
BBX 19 25 1 -9
BITMAP
1FFF00
7FFF00
F70000
C70000
C70000
E70000
C60000
0E7C00
0EFE00
0F8E00
0F0600
0E0620
1C0EE0
1C0FC0
1C0F80
1C0E00
001E00
007C00
00FC00
00DC00
019800
01B800
03B000
01F000
01E000
ENDCHAR
STARTCHAR uni0495
ENCODING 1173
SWIDTH 441 0
DWIDTH 9 0
BBX 10 15 1 -6
BITMAP
7C00
FC00
8C00
1C00
7000
E000
C2C0
FF80
7F00
1C00
3C00
6C00
DC00
F800
7000
ENDCHAR
STARTCHAR uni0496
ENCODING 1174
SWIDTH 1234 0
DWIDTH 25 0
BBX 26 22 1 -6
BITMAP
1E060F00
3F0E1F80
238E1980
018E3800
01CE7000
01CE7000
00CDE000
007F8000
00FF8000
03DDC000
039CE000
071CE000
C6187000
CE187EC0
FC383FC0
78380F00
00003E00
00007E00
0000EC00
0000CC00
0000F800
0000F000
ENDCHAR
STARTCHAR uni0497
ENCODING 1175
SWIDTH 803 0
DWIDTH 16 0
BBX 18 15 0 -6
BITMAP
399C00
3DBE00
37F600
07E600
07E000
6FE000
EDF2C0
F9BFC0
711F00
001E00
003C00
006C00
004C00
00F800
007000
ENDCHAR
STARTCHAR uni0498
ENCODING 1176
SWIDTH 725 0
DWIDTH 15 0
BBX 13 22 1 -6
BITMAP
07C0
1FF0
3870
3070
3070
3060
00E0
07E0
0F70
0038
6038
E038
E070
F0F0
7FE0
1FC0
0780
1D80
1980
3B80
3F00
1E00
ENDCHAR
STARTCHAR uni0499
ENCODING 1177
SWIDTH 445 0
DWIDTH 9 0
BBX 10 15 1 -6
BITMAP
3C00
FE00
C600
0E00
3800
0E40
C7C0
FF80
7F00
1C00
3C00
6C00
C800
F800
7000
ENDCHAR
STARTCHAR uni049A
ENCODING 1178
SWIDTH 937 0
DWIDTH 19 0
BBX 20 22 1 -6
BITMAP
1FC0C0
7FE1C0
71C1C0
E1C380
E1C380
618700
039E00
07F800
07F000
03B800
039C00
831C00
C70E10
C70FF0
FE07E0
7C0380
000F80
001F80
003B00
003300
003E00
003C00
ENDCHAR
STARTCHAR uni049B
ENCODING 1179
SWIDTH 531 0
DWIDTH 11 0
BBX 12 15 1 -6
BITMAP
6700
6F80
FD80
F980
D800
F800
F830
FFE0
C7C0
0700
1F00
1300
3600
3E00
1C00
ENDCHAR
STARTCHAR uni049C
ENCODING 1180
SWIDTH 937 0
DWIDTH 19 0
BBX 20 16 1 0
BITMAP
1FC0C0
7FE1C0
71C1C0
E1C380
E1F380
61B700
03BE00
07F800
07F000
03F800
03FC00
837C10
C77E10
C72F70
FE07E0
7C03C0
ENDCHAR
STARTCHAR uni049D
ENCODING 1181
SWIDTH 485 0
DWIDTH 10 0
BBX 11 9 1 0
BITMAP
6780
6780
FD80
DD80
F820
F860
FC60
DFC0
C780
ENDCHAR
STARTCHAR uni049E
ENCODING 1182
SWIDTH 937 0
DWIDTH 19 0
BBX 20 16 1 0
BITMAP
1FC0C0
3FE1C0
71C1C0
E1C380
EFF380
6FE700
639E00
07F800
07F000
03B800
039C00
831C10
C70E10
C70F70
FE07E0
7C03C0
ENDCHAR
STARTCHAR uni049F
ENCODING 1183
SWIDTH 473 0
DWIDTH 9 0
BBX 11 16 1 0
BITMAP
1800
3800
3800
FF00
FF00
7000
7000
6700
6F80
FD80
F980
F800
F860
FCE0
EFC0
6780
ENDCHAR
STARTCHAR uni04A0
ENCODING 1184
SWIDTH 937 0
DWIDTH 19 0
BBX 20 16 1 0
BITMAP
0000C0
7FE1C0
7FC1C0
01C380
01C380
018700
039E00
07F800
07F000
03B800
039C00
831C10
C70E10
C70F70
FE07E0
7C03C0
ENDCHAR
STARTCHAR uni04A1
ENCODING 1185
SWIDTH 555 0
DWIDTH 11 0
BBX 13 9 1 0
BITMAP
F9C0
FBE0
3E60
3660
3E00
3E18
3E30
3FF0
31C0
ENDCHAR
STARTCHAR uni04A2
ENCODING 1186
SWIDTH 907 0
DWIDTH 18 0
BBX 21 23 0 -6
BITMAP
0001C0
1E03E0
7F0360
E70660
C70660
870E60
070CC0
070D80
060F00
3FFC00
3FFC00
0E1C00
0E1C00
0C1C00
1C0E18
1C0FF0
1803C0
000780
001D80
003980
003B00
003F00
001E00
ENDCHAR
STARTCHAR uni04A3
ENCODING 1187
SWIDTH 515 0
DWIDTH 10 0
BBX 11 15 1 -6
BITMAP
6300
6300
E700
FE00
FE00
C620
C760
C7E0
C380
0F00
1B00
3600
3600
3C00
3800
ENDCHAR
STARTCHAR uni04A4
ENCODING 1188
SWIDTH 873 0
DWIDTH 17 0
BBX 22 17 0 0
BITMAP
0001FC
1E03FC
7F0304
E70700
C70600
870E00
070E00
070C00
060C00
3FFC00
3FFC00
0E1C00
0E1C00
0C1C10
1C0E30
1C0FE0
1807C0
ENDCHAR
STARTCHAR uni04A5
ENCODING 1189
SWIDTH 475 0
DWIDTH 10 0
BBX 11 10 1 0
BITMAP
0080
63C0
6300
E700
FE00
FE20
C660
C6E0
C7C0
C780
ENDCHAR
STARTCHAR uni04A8
ENCODING 1192
SWIDTH 997 0
DWIDTH 20 0
BBX 21 16 1 0
BITMAP
078000
0F9F00
1E3F80
3873C0
70E0E0
70E0E0
71C0E0
E1C0E0
E1C0E0
E1C0E0
E1C1C0
70E3C0
70F788
3C7F78
1FFFF8
0FFFC0
ENDCHAR
STARTCHAR uni04A9
ENCODING 1193
SWIDTH 574 0
DWIDTH 11 0
BBX 13 9 1 0
BITMAP
3800
7B80
E7C0
CCC0
CCC0
CCD8
EFB8
FFF0
7FC0
ENDCHAR
STARTCHAR uni04AA
ENCODING 1194
SWIDTH 781 0
DWIDTH 16 0
BBX 17 25 1 -9
BITMAP
03E000
0FF000
1E3800
383800
703800
703800
700000
E00000
E00000
E00000
E00000
700000
701980
783B80
3FFE00
0FFC00
007000
00F000
01B000
037000
036000
066000
06E000
07C000
038000
ENDCHAR
STARTCHAR uni04AB
ENCODING 1195
SWIDTH 431 0
DWIDTH 9 0
BBX 10 15 1 -6
BITMAP
3C00
7C00
EC00
CC00
C000
C000
E5C0
FF80
7F00
1C00
7C00
6C00
D800
F800
7000
ENDCHAR
STARTCHAR uni04AC
ENCODING 1196
SWIDTH 697 0
DWIDTH 14 0
BBX 17 23 1 -7
BITMAP
0FFF80
7FFF80
E1C000
C1C000
C1C000
E18000
C38000
038000
038000
038000
038000
070000
070000
070000
07C000
07C000
03C000
0F8000
1D8000
198000
3B8000
3F0000
1E0000
ENDCHAR
STARTCHAR uni04AD
ENCODING 1197
SWIDTH 784 0
DWIDTH 16 0
BBX 17 15 1 -6
BITMAP
673800
6F7800
FFF800
F7F800
F7B800
E73000
E73980
E73F00
C61E00
003800
00F800
00D800
01B000
01F000
00E000
ENDCHAR
STARTCHAR uni04AE
ENCODING 1198
SWIDTH 677 0
DWIDTH 14 0
BBX 12 16 3 0
BITMAP
C070
E0E0
E0E0
71C0
7180
3B80
3F00
3E00
1E00
1C00
1C00
1C00
1C00
1C00
1C00
1C00
ENDCHAR
STARTCHAR uni04AF
ENCODING 1199
SWIDTH 472 0
DWIDTH 9 0
BBX 11 15 1 -6
BITMAP
C300
E700
E700
E700
E7E0
6FE0
6C00
7800
7800
7000
7000
7000
7000
7000
7000
ENDCHAR
STARTCHAR uni04B0
ENCODING 1200
SWIDTH 677 0
DWIDTH 14 0
BBX 12 16 3 0
BITMAP
C070
E0E0
E0E0
71C0
7380
3B80
3F00
1E00
1E00
7F80
7F00
1C00
1C00
1C00
1C00
1C00
ENDCHAR
STARTCHAR uni04B1
ENCODING 1201
SWIDTH 472 0
DWIDTH 9 0
BBX 12 15 0 -6
BITMAP
6180
7380
7380
7380
73F0
37F0
3600
3C00
3C00
FE00
FE00
3800
3800
3800
3800
ENDCHAR
STARTCHAR uni04B2
ENCODING 1202
SWIDTH 716 0
DWIDTH 14 0
BBX 17 22 0 -6
BITMAP
3E0600
7F0E00
E71C00
83B800
03F000
03E000
01C000
03C000
07C000
07C000
0EE000
1CE000
38E000
707B80
E07F00
E03C00
007800
01F800
019800
03B800
03F000
01E000
ENDCHAR
STARTCHAR uni04B3
ENCODING 1203
SWIDTH 601 0
DWIDTH 12 0
BBX 14 15 0 -6
BITMAP
3CE0
3FE0
3760
0700
0600
6600
EF0C
FFFC
7BF0
01E0
03C0
06C0
04C0
0F80
0700
ENDCHAR
STARTCHAR uni04B4
ENCODING 1204
SWIDTH 1040 0
DWIDTH 21 0
BBX 22 22 1 -6
BITMAP
0FFCC0
7FFCE0
E1C0E0
C1C0C0
C1C1C0
E1C1C0
C381C0
0381C0
0383C0
038380
030780
070580
070F80
071BEC
03F1FC
01E0F0
0003E0
000760
000EC0
000CC0
000FC0
000F80
ENDCHAR
STARTCHAR uni04B5
ENCODING 1205
SWIDTH 501 0
DWIDTH 10 0
BBX 11 19 1 -6
BITMAP
3F00
3F00
0000
0000
6300
6700
E600
E600
CE00
CE00
FE60
F7C0
6380
0F00
1E00
3600
2600
7C00
3800
ENDCHAR
STARTCHAR uni04B6
ENCODING 1206
SWIDTH 804 0
DWIDTH 16 0
BBX 17 22 2 -6
BITMAP
703800
703800
703800
703800
703000
607000
E07000
E0F000
E1F000
7FF000
7F7000
006000
006000
007B80
007F00
001C00
007800
01D800
03B800
033000
03F000
01E000
ENDCHAR
STARTCHAR uni04B7
ENCODING 1207
SWIDTH 631 0
DWIDTH 13 0
BBX 15 17 0 -6
BITMAP
0400
0E00
1FE0
1BE0
19C0
3380
3700
6602
C62E
87FC
03F0
00E0
03E0
0260
06C0
07C0
0380
ENDCHAR
STARTCHAR uni04B8
ENCODING 1208
SWIDTH 773 0
DWIDTH 15 0
BBX 13 16 2 0
BITMAP
7038
7038
7038
7038
7030
7670
E670
E6F0
E4F0
F7F0
7F70
3C60
0C60
0C60
00E0
00E0
ENDCHAR
STARTCHAR uni04B9
ENCODING 1209
SWIDTH 575 0
DWIDTH 12 0
BBX 14 11 0 0
BITMAP
0080
0D80
0F70
1BF0
1AE0
3180
3304
670C
C73C
87F8
03E0
ENDCHAR
STARTCHAR uni04BA
ENCODING 1210
SWIDTH 755 0
DWIDTH 15 0
BBX 16 16 2 0
BITMAP
3000
3800
3000
7000
7000
7000
7000
67C0
6FE0
F870
F070
E070
E073
E0E6
C07E
C078
ENDCHAR
STARTCHAR uni04BB
ENCODING 1211
SWIDTH 502 0
DWIDTH 10 0
BBX 12 18 1 0
BITMAP
0E00
1E00
3B00
3300
3200
7600
6600
6C00
7800
F700
FF00
EF00
FB00
F700
F730
E760
E7C0
C380
ENDCHAR
STARTCHAR uni04BC
ENCODING 1212
SWIDTH 808 0
DWIDTH 16 0
BBX 18 16 1 0
BITMAP
00F800
03FE00
078E00
0F0600
0E0600
1C0600
DC0600
FFFE00
7FFC00
1C0000
1C0000
1C0000
1E0000
0F03C0
07FF80
01FE00
ENDCHAR
STARTCHAR uni04BD
ENCODING 1213
SWIDTH 483 0
DWIDTH 10 0
BBX 12 9 0 0
BITMAP
0780
0F80
1DC0
1980
FB80
FE10
1870
1FE0
0F80
ENDCHAR
STARTCHAR uni04BE
ENCODING 1214
SWIDTH 808 0
DWIDTH 16 0
BBX 18 21 1 -5
BITMAP
00F800
03FE00
078E00
0F0600
0E0600
1C0600
DC0600
FFFE00
7FFC00
1C0000
1C0000
1C0000
1E0000
0F03C0
07FF80
01FE00
030000
030000
070000
03E000
01C000
ENDCHAR
STARTCHAR uni04BF
ENCODING 1215
SWIDTH 483 0
DWIDTH 10 0
BBX 12 14 0 -5
BITMAP
0780
0F80
1DC0
1980
FB80
FF10
1830
1FE0
0FC0
0700
0600
0600
07C0
03C0
ENDCHAR
STARTCHAR uni04C0
ENCODING 1216
SWIDTH 495 0
DWIDTH 10 0
BBX 11 16 0 0
BITMAP
3FE0
3FE0
0700
0700
0600
0E00
0E00
0E00
0E00
0E00
0C00
1C00
1C00
1C00
FF80
FF80
ENDCHAR
STARTCHAR uni04C1
ENCODING 1217
SWIDTH 1234 0
DWIDTH 25 0
BBX 26 24 1 0
BITMAP
00004000
0010C000
0018C000
001F8000
000F0000
00000000
00000000
00000000
1E060F00
3F0E1F80
238E1980
018E3800
01CE7000
01CE7000
00CDE000
007FC000
00FF8000
01DDC000
039CE000
071CE000
861870C0
CE187180
FC383F00
78381E00
ENDCHAR
STARTCHAR uni04C2
ENCODING 1218
SWIDTH 717 0
DWIDTH 14 0
BBX 17 15 0 0
BITMAP
001000
021000
063000
07F000
03C000
000000
399C00
3DBE00
37F600
07E600
07E000
6FE180
EDF380
F9BF00
711E00
ENDCHAR
STARTCHAR uni04C3
ENCODING 1219
SWIDTH 937 0
DWIDTH 19 0
BBX 20 22 1 -6
BITMAP
1FC0C0
7FE1C0
71C1C0
E1C380
E1C380
618700
039E00
07F800
07F000
03B800
039C00
831C00
C70E10
C70FF0
FE07E0
7C0380
000F80
001F80
003B00
003300
003E00
003C00
ENDCHAR
STARTCHAR uni04C4
ENCODING 1220
SWIDTH 531 0
DWIDTH 11 0
BBX 12 15 1 -6
BITMAP
6700
6F80
FD80
F980
D800
F800
F830
FFE0
C7C0
0700
1F00
1300
3600
3E00
1C00
ENDCHAR
STARTCHAR uni04C5
ENCODING 1221
SWIDTH 861 0
DWIDTH 17 0
BBX 20 20 0 -4
BITMAP
001C00
001C00
003C00
003C00
003C00
007C00
007C00
007C00
00FC00
00DC00
01DC00
018C00
C38E30
E70E70
7E07E0
3C03C0
000380
000700
000600
000E00
ENDCHAR
STARTCHAR uni04C6
ENCODING 1222
SWIDTH 549 0
DWIDTH 11 0
BBX 13 12 0 -3
BITMAP
0380
0380
0780
0780
6F80
CD88
DD98
F9F0
70E0
00C0
0180
0180
ENDCHAR
STARTCHAR uni04C7
ENCODING 1223
SWIDTH 907 0
DWIDTH 18 0
BBX 21 23 0 -6
BITMAP
0001C0
1E03E0
7F0360
E70660
C70660
870E60
070CC0
070D80
060F00
3FFC00
3FFC00
0E1C00
0E1C00
0C1C00
1C0E18
1C0FF0
1803C0
000780
001D80
003980
003B00
003F00
001E00
ENDCHAR
STARTCHAR uni04C8
ENCODING 1224
SWIDTH 515 0
DWIDTH 10 0
BBX 11 15 1 -6
BITMAP
6300
6300
E700
FE00
FE00
C620
C760
C7E0
C380
0F00
1B00
3600
3600
3C00
3800
ENDCHAR
STARTCHAR uni04C9
ENCODING 1225
SWIDTH 873 0
DWIDTH 17 0
BBX 20 21 0 -4
BITMAP
0001C0
1E03E0
7F0360
E70660
C70660
870E60
070CC0
070D80
060F00
3FFC00
3FFC00
0E1C00
0E1C00
0C1C10
1C0E70
1C0FE0
1807C0
000380
000300
000700
000600
ENDCHAR
STARTCHAR uni04CA
ENCODING 1226
SWIDTH 475 0
DWIDTH 10 0
BBX 11 12 1 -3
BITMAP
6300
6300
E700
FE00
FE20
C660
C6E0
C7C0
C780
0300
0600
0E00
ENDCHAR
STARTCHAR uni04CB
ENCODING 1227
SWIDTH 773 0
DWIDTH 15 0
BBX 13 22 2 -6
BITMAP
7038
7038
7038
7038
7030
6070
E070
E0F0
E1F0
7FF0
7F70
0060
0060
00E0
01E0
03E0
0F80
1D80
3B00
3300
3F00
3E00
ENDCHAR
STARTCHAR uni04CC
ENCODING 1228
SWIDTH 555 0
DWIDTH 11 0
BBX 14 13 0 -2
BITMAP
0400
0E00
1FE0
1BE0
19C0
3380
3704
660C
C638
87F0
03E0
0060
0060
ENDCHAR
STARTCHAR uni04CD
ENCODING 1229
SWIDTH 1133 0
DWIDTH 23 0
BBX 25 20 0 -4
BITMAP
00707000
00707000
00F0F000
00F0F000
00F1F000
00F1F000
00F3F000
01F37000
01B37000
01B77000
03B67000
03BE7000
C33E7080
E71C3180
7E1C3F00
3C181E00
00001C00
00001800
00003800
00003000
ENDCHAR
STARTCHAR uni04CE
ENCODING 1230
SWIDTH 734 0
DWIDTH 15 0
BBX 17 13 0 -4
BITMAP
031800
073C00
073800
077800
6D7800
CDD880
DDDD80
F99F00
718E00
000E00
001C00
001800
001000
ENDCHAR
STARTCHAR uni04CF
ENCODING 1231
SWIDTH 222 0
DWIDTH 4 0
BBX 5 16 1 0
BITMAP
10
38
30
30
70
70
70
60
60
E0
E0
E0
E0
C0
C0
C0
ENDCHAR
STARTCHAR uni04D0
ENCODING 1232
SWIDTH 786 0
DWIDTH 16 0
BBX 17 24 1 0
BITMAP
000200
008600
00C600
00FC00
007800
000000
000000
000000
00FE00
07FF00
0F8600
1C1800
381C00
701800
703800
703800
E03800
E07000
E07000
E07000
E0F080
71F980
7F3F00
1E1E00
ENDCHAR
STARTCHAR uni04D1
ENCODING 1233
SWIDTH 470 0
DWIDTH 9 0
BBX 11 15 1 0
BITMAP
0080
2180
7380
3F00
1E00
0000
1C00
3F00
7700
E600
C600
CE60
CEE0
FFC0
7380
ENDCHAR
STARTCHAR uni04D2
ENCODING 1234
SWIDTH 786 0
DWIDTH 16 0
BBX 17 21 1 0
BITMAP
00CE00
00EE00
00CC00
000000
000000
00FE00
07FF00
0F8600
1C1800
381C00
701800
703800
703800
E03800
E07000
E07000
E07000
E0F080
71F980
7F3F00
1E1E00
ENDCHAR
STARTCHAR uni04D3
ENCODING 1235
SWIDTH 470 0
DWIDTH 9 0
BBX 11 13 1 0
BITMAP
3B80
3B80
3380
0000
1C00
3F00
7700
E600
C600
CE60
CEE0
FFC0
7380
ENDCHAR
STARTCHAR uni04D4
ENCODING 1236
SWIDTH 1015 0
DWIDTH 20 0
BBX 22 16 1 0
BITMAP
01E7F8
07EFF0
0F0C00
1C1C00
381C00
701C00
703800
703FE0
E03FE0
E07800
E07800
E07800
E0F804
71FC1C
7F9FF8
1E07E0
ENDCHAR
STARTCHAR uni04D5
ENCODING 1237
SWIDTH 653 0
DWIDTH 13 0
BBX 15 9 1 0
BITMAP
1DE0
3FF0
7330
E630
C6E0
C7C6
CF1C
FBF8
71F0
ENDCHAR
STARTCHAR uni04D6
ENCODING 1238
SWIDTH 686 0
DWIDTH 14 0
BBX 15 24 1 0
BITMAP
0010
0218
0738
07F0
03E0
0000
0000
0000
07E0
1FF8
3C38
3818
3838
3810
1F80
3F00
7800
E000
E000
E000
E002
F01E
7FFE
1FF0
ENDCHAR
STARTCHAR uni04D7
ENCODING 1239
SWIDTH 393 0
DWIDTH 8 0
BBX 9 15 1 0
BITMAP
0100
4300
6700
7E00
3C00
0000
3C00
7E00
E600
CE00
DC00
F080
E380
FF00
3E00
ENDCHAR
STARTCHAR uni04D8
ENCODING 1240
SWIDTH 792 0
DWIDTH 16 0
BBX 14 16 1 0
BITMAP
07E0
1FF0
3878
201C
001C
001C
000C
7FFC
FFFC
E01C
E01C
E038
7038
78F0
3FE0
0F80
ENDCHAR
STARTCHAR uni04D9
ENCODING 1241
SWIDTH 455 0
DWIDTH 9 0
BBX 12 9 0 0
BITMAP
3E00
7F00
0380
7FF0
7FF0
E380
6300
7F00
3C00
ENDCHAR
STARTCHAR uni04DA
ENCODING 1242
SWIDTH 792 0
DWIDTH 16 0
BBX 14 21 1 0
BITMAP
0770
0770
0670
0000
0000
07E0
1FF0
3878
201C
001C
001C
000C
7FFC
FFFC
E01C
E01C
E038
7038
78F0
3FE0
0F80
ENDCHAR
STARTCHAR uni04DB
ENCODING 1243
SWIDTH 455 0
DWIDTH 9 0
BBX 12 13 0 0
BITMAP
3B80
3B80
3B80
0000
3E00
7F00
0380
7FF0
7FF0
E380
6300
7F00
3C00
ENDCHAR
STARTCHAR uni04DC
ENCODING 1244
SWIDTH 1234 0
DWIDTH 25 0
BBX 26 21 1 0
BITMAP
0019C000
001DC000
00198000
00000000
00000000
1E060F00
3F0E1F80
238E1980
018E3800
01CE7000
01CE7000
00CDE000
007FC000
00FF8000
01DDC000
039CE000
071CE000
861870C0
CE187180
FC383F00
78381E00
ENDCHAR
STARTCHAR uni04DD
ENCODING 1245
SWIDTH 717 0
DWIDTH 14 0
BBX 17 13 0 0
BITMAP
033000
073000
033000
000000
399C00
3DBE00
37F600
07E600
07E000
6FE180
EDF380
F9BF00
711E00
ENDCHAR
STARTCHAR uni04DE
ENCODING 1246
SWIDTH 725 0
DWIDTH 15 0
BBX 13 21 1 0
BITMAP
0670
0770
0660
0000
0000
07C0
1FF0
3870
3070
3070
3060
00E0
07E0
0F70
0038
6038
E038
E070
F0F0
7FE0
1F80
ENDCHAR
STARTCHAR uni04DF
ENCODING 1247
SWIDTH 435 0
DWIDTH 9 0
BBX 12 22 -1 -9
BITMAP
1980
3B80
1980
0000
0F00
1F80
3180
0180
0300
0E30
3C70
3DE0
0F80
0E00
1E00
3E00
6600
6600
CE00
DC00
F800
7000
ENDCHAR
STARTCHAR uni04E0
ENCODING 1248
SWIDTH 744 0
DWIDTH 15 0
BBX 14 16 1 0
BITMAP
0FF0
3FFC
383C
3038
3070
1070
00E0
07E0
0F70
0038
6038
E038
E070
F0F0
7FE0
1F80
ENDCHAR
STARTCHAR uni04E1
ENCODING 1249
SWIDTH 435 0
DWIDTH 9 0
BBX 12 18 -1 -9
BITMAP
3FC0
3FC0
0380
0E00
1C00
3830
38F0
1DC0
0F00
0E00
1E00
3600
6600
6600
CE00
DC00
F800
7000
ENDCHAR
STARTCHAR uni04E2
ENCODING 1250
SWIDTH 890 0
DWIDTH 18 0
BBX 20 20 0 0
BITMAP
00FC00
00FC00
000000
000000
1E0300
3F0380
670380
C70300
870700
070700
0E0700
0E0700
0E0F00
0E0E00
0C1E00
1C1600
1C3E10
1EEF70
0FC7E0
0783C0
ENDCHAR
STARTCHAR uni04E3
ENCODING 1251
SWIDTH 462 0
DWIDTH 9 0
BBX 11 12 1 0
BITMAP
3F00
3F00
0000
6300
6700
E600
E600
CE00
CE60
FEE0
F7C0
6700
ENDCHAR
STARTCHAR uni04E4
ENCODING 1252
SWIDTH 890 0
DWIDTH 18 0
BBX 20 21 0 0
BITMAP
00CC00
01DE00
00CC00
000000
000000
1E0300
3F0380
670380
C70300
870700
070700
0E0700
0E0700
0E0F00
0E0E00
0C1E00
1C1600
1C3E10
1EEF70
0FC7E0
0783C0
ENDCHAR
STARTCHAR uni04E5
ENCODING 1253
SWIDTH 462 0
DWIDTH 9 0
BBX 11 13 1 0
BITMAP
3300
3B80
3300
0000
6300
6700
E600
E600
CE00
CE60
FEE0
F7C0
6700
ENDCHAR
STARTCHAR uni04E6
ENCODING 1254
SWIDTH 816 0
DWIDTH 16 0
BBX 15 21 1 0
BITMAP
0330
0738
0330
0000
0000
03E0
0FF8
1E3C
381C
700E
700E
700E
E00E
E00E
E00E
E01C
701C
7038
7870
3FE0
0F80
ENDCHAR
STARTCHAR uni04E7
ENCODING 1255
SWIDTH 451 0
DWIDTH 9 0
BBX 11 13 1 0
BITMAP
7700
7700
6700
0000
3C00
7E00
EF00
CFE0
C7C0
C600
E600
FC00
7800
ENDCHAR
STARTCHAR uni04E8
ENCODING 1256
SWIDTH 816 0
DWIDTH 16 0
BBX 15 16 1 0
BITMAP
03E0
0FF8
1C3C
381C
700E
700E
700E
FFFE
FFFE
E00E
E01C
701C
7038
7870
3FE0
0F80
ENDCHAR
STARTCHAR uni04E9
ENCODING 1257
SWIDTH 451 0
DWIDTH 9 0
BBX 11 9 1 0
BITMAP
3C00
7E00
E700
FFE0
FFC0
C600
E600
FC00
7800
ENDCHAR
STARTCHAR uni04EA
ENCODING 1258
SWIDTH 816 0
DWIDTH 16 0
BBX 15 21 1 0
BITMAP
0330
0738
0330
0000
0000
03E0
0FF8
1C3C
381C
700E
700E
700E
FFFE
FFFE
E00E
E01C
701C
7038
7870
3FE0
0F80
ENDCHAR
STARTCHAR uni04EB
ENCODING 1259
SWIDTH 451 0
DWIDTH 9 0
BBX 11 13 1 0
BITMAP
7700
7700
6700
0000
3C00
7E00
E700
FFE0
FFC0
C600
E600
FC00
7800
ENDCHAR
STARTCHAR uni04EC
ENCODING 1260
SWIDTH 755 0
DWIDTH 15 0
BBX 14 21 1 0
BITMAP
0670
0770
0660
0000
0000
0FC0
3FF0
7878
6038
0038
001C
001C
1FFC
1FFC
0038
4038
E038
E070
E0E0
7FC0
3F00
ENDCHAR
STARTCHAR uni04ED
ENCODING 1261
SWIDTH 466 0
DWIDTH 9 0
BBX 11 13 1 0
BITMAP
3300
7700
7300
0000
7C00
7F00
0700
1FE0
DFE0
C700
C700
FE00
7C00
ENDCHAR
STARTCHAR uni04EE
ENCODING 1262
SWIDTH 824 0
DWIDTH 16 0
BBX 18 25 1 -5
BITMAP
03F800
03F800
000000
000000
3C0600
FE0700
CE0600
8E0E00
0E0E00
1C1E00
1C1E00
1C3E00
1C6C00
1FCC00
0F8DC0
001FC0
007F00
01FC00
039800
061800
0C3800
0C3000
0C7000
0FE000
07C000
ENDCHAR
STARTCHAR uni04EF
ENCODING 1263
SWIDTH 479 0
DWIDTH 10 0
BBX 12 21 0 -9
BITMAP
1F80
1F80
0000
3180
3380
7300
7300
6700
6730
7FE0
7FC0
3700
0E00
1E00
3600
6E00
4C00
CC00
D800
F800
7000
ENDCHAR
STARTCHAR uni04F0
ENCODING 1264
SWIDTH 824 0
DWIDTH 16 0
BBX 18 26 1 -5
BITMAP
039800
03B800
039800
000000
000000
3C0600
FE0700
CE0600
8E0E00
0E0E00
1C1E00
1C1E00
1C3E00
1C6C00
1FCC00
0F8DC0
001FC0
007F00
01FC00
039800
061800
0C3800
0C3000
0C7000
0FE000
07C000
ENDCHAR
STARTCHAR uni04F1
ENCODING 1265
SWIDTH 479 0
DWIDTH 10 0
BBX 12 22 0 -9
BITMAP
1980
1DC0
1980
0000
3180
3380
7300
7300
6700
6730
7FE0
7FC0
3700
0E00
1E00
3600
6E00
4C00
CC00
D800
F800
7000
ENDCHAR
STARTCHAR uni04F2
ENCODING 1266
SWIDTH 824 0
DWIDTH 16 0
BBX 18 28 1 -5
BITMAP
008800
00DC00
01D800
019800
019000
000000
000000
3C0600
FE0700
CE0600
8E0E00
0E0E00
1C1E00
1C1E00
1C3E00
1C6C00
1FCC00
0F8DC0
001FC0
007F00
01FC00
039800
061800
0C3800
0C3000
0C7000
0FE000
07C000
ENDCHAR
STARTCHAR uni04F3
ENCODING 1267
SWIDTH 479 0
DWIDTH 10 0
BBX 12 25 0 -9
BITMAP
0660
06E0
0EC0
0CC0
0980
1900
0000
3180
3380
7300
7300
6700
6730
7FE0
7FC0
3700
0E00
1E00
3600
6E00
4C00
CC00
D800
F800
7000
ENDCHAR
STARTCHAR uni04F4
ENCODING 1268
SWIDTH 773 0
DWIDTH 15 0
BBX 13 21 2 0
BITMAP
0CE0
0EE0
0CE0
0000
0000
7038
7038
7038
7038
7030
6070
E070
E0F0
E1F0
7FF0
7F70
0060
0060
00E0
00E0
0060
ENDCHAR
STARTCHAR uni04F5
ENCODING 1269
SWIDTH 555 0
DWIDTH 11 0
BBX 14 13 0 0
BITMAP
0330
0770
0730
0E00
1FE0
1BE0
19C0
3380
3704
660C
C638
87F0
03E0
ENDCHAR
STARTCHAR uni04F6
ENCODING 1270
SWIDTH 600 0
DWIDTH 12 0
BBX 16 23 1 -7
BITMAP
1FFF
7FFF
F700
C700
C700
E700
C600
0E00
0E00
0E00
0E00
0E00
0C00
1C00
1F00
1F00
0F00
3F00
7600
6600
6E00
7C00
7800
ENDCHAR
STARTCHAR uni04F7
ENCODING 1271
SWIDTH 441 0
DWIDTH 9 0
BBX 10 15 1 -6
BITMAP
7C00
FC00
8C00
1C00
7000
E000
C2C0
FF80
7F00
1C00
3C00
6C00
DC00
F800
7000
ENDCHAR
STARTCHAR uni04F8
ENCODING 1272
SWIDTH 1078 0
DWIDTH 22 0
BBX 20 21 1 0
BITMAP
006600
00E700
006600
000000
000000
180070
1C0070
180070
380070
380060
37E060
3FF0E0
F878E0
F038E0
7038E0
7038C0
7039C0
7071C0
38F1C0
3FE1C0
0F81C0
ENDCHAR
STARTCHAR uni04F9
ENCODING 1273
SWIDTH 702 0
DWIDTH 14 0
BBX 16 13 1 0
BITMAP
0E60
0EE0
0EE0
0000
6030
6030
EE70
FFF0
E3F1
E3E3
E776
7E7C
3C38
ENDCHAR
STARTCHAR uni04FA
ENCODING 1274
SWIDTH 635 0
DWIDTH 13 0
BBX 18 23 -1 -7
BITMAP
07FFC0
1FFFC0
3DC000
31C000
31C000
39C000
138000
0FF000
0FF000
038000
038000
038000
030000
070000
070000
070000
070000
060000
0E0000
4E0000
CC0000
FC0000
780000
ENDCHAR
STARTCHAR uni04FB
ENCODING 1275
SWIDTH 441 0
DWIDTH 9 0
BBX 11 15 0 -6
BITMAP
3E00
7E00
4600
0E00
FC00
7C00
6160
7FC0
3F80
0E00
1E00
3600
6E00
7C00
3800
ENDCHAR
STARTCHAR uni04FC
ENCODING 1276
SWIDTH 716 0
DWIDTH 14 0
BBX 17 22 0 -6
BITMAP
3E0600
7F0E00
E71C00
83B800
03F000
03E000
01C000
03C000
07C000
07C000
0EE000
1CE000
38E000
707B80
E07F00
E03C00
007800
01F800
019800
03B800
03F000
01E000
ENDCHAR
STARTCHAR uni04FD
ENCODING 1277
SWIDTH 601 0
DWIDTH 12 0
BBX 14 15 0 -6
BITMAP
3CE0
3FE0
3760
0700
0600
6600
EF0C
FFFC
7BF0
01E0
03C0
06C0
04C0
0F80
0700
ENDCHAR
STARTCHAR uni04FE
ENCODING 1278
SWIDTH 712 0
DWIDTH 14 0
BBX 17 16 0 0
BITMAP
1E0600
7F0E00
E71C00
833800
03F800
03F000
03E000
1FF800
1FF800
07C000
0EC000
1CE000
38E080
787380
F07F00
E03C00
ENDCHAR
STARTCHAR uni04FF
ENCODING 1279
SWIDTH 529 0
DWIDTH 11 0
BBX 13 9 0 0
BITMAP
3CE0
3FE0
3760
0F80
7F88
EE18
EF38
FFF0
73C0
ENDCHAR
STARTCHAR uni0510
ENCODING 1296
SWIDTH 706 0
DWIDTH 14 0
BBX 13 16 1 0
BITMAP
07C0
1FF0
3870
3830
3830
3820
1C00
3F80
7780
E000
E030
E038
E030
78F0
7FE0
1F80
ENDCHAR
STARTCHAR uni0511
ENCODING 1297
SWIDTH 392 0
DWIDTH 8 0
BBX 10 9 0 0
BITMAP
3E00
7E00
6000
3C00
7C40
60C0
E1C0
7F80
3E00
ENDCHAR
STARTCHAR uni0512
ENCODING 1298
SWIDTH 884 0
DWIDTH 18 0
BBX 20 22 0 -6
BITMAP
001C00
001C00
003C00
003C00
003C00
007C00
007C00
007C00
00FC00
00DC00
01DC00
018C00
C38E00
E70EB0
7E0FF0
3C03C0
000F80
001D80
003B80
003300
003F00
003E00
ENDCHAR
STARTCHAR uni0513
ENCODING 1299
SWIDTH 631 0
DWIDTH 13 0
BBX 15 15 0 -6
BITMAP
0380
0380
0780
0780
6F80
CD80
DD86
F9FC
71F8
00E0
01E0
0260
06C0
07C0
0380
ENDCHAR
STARTCHAR uni051A
ENCODING 1306
SWIDTH 816 0
DWIDTH 16 0
BBX 17 22 1 -6
BITMAP
03E000
0FF800
1E3C00
381C00
700E00
700E00
700E00
E00E00
E00E00
E00E00
E01C00
F01C00
703800
787800
3FE000
0FC000
03C000
01C000
00E180
00F300
007F00
003C00
ENDCHAR
STARTCHAR uni051B
ENCODING 1307
SWIDTH 500 0
DWIDTH 10 0
BBX 12 18 1 -8
BITMAP
0380
1F00
3F00
7700
E700
C600
CEF0
CFE0
FF80
7C80
0C80
0C80
0D80
0D80
0D80
0D00
0F00
0600
ENDCHAR
STARTCHAR uni051C
ENCODING 1308
SWIDTH 1217 0
DWIDTH 24 0
BBX 25 16 2 0
BITMAP
70183C00
70387E00
70386E00
7038EE00
6038CE00
E0786E00
E0786C00
E0787C00
E0F83F80
E0F81F80
60F83800
71B87000
7398E000
7F1FC000
3E1F8000
1C0F0000
ENDCHAR
STARTCHAR uni051D
ENCODING 1309
SWIDTH 700 0
DWIDTH 14 0
BBX 16 9 1 0
BITMAP
C638
C678
C678
CF7F
EF7E
FFE0
FFC0
F380
6380
ENDCHAR
STARTCHAR uni0524
ENCODING 1316
SWIDTH 892 0
DWIDTH 18 0
BBX 19 22 1 -6
BITMAP
0FFFC0
7FFFE0
F30720
C70700
C70700
E70600
470E00
060E00
0E0E00
0E0C00
0E0C00
0E1C00
0E1C00
0C1F60
1C0FE0
0C0780
000F00
003B00
007700
006600
007E00
003C00
ENDCHAR
STARTCHAR uni0525
ENCODING 1317
SWIDTH 536 0
DWIDTH 11 0
BBX 12 15 1 -6
BITMAP
6700
6F00
FF00
FF00
F700
E600
E730
E7E0
C3C0
0700
0F00
1B00
3600
3E00
1C00
ENDCHAR
STARTCHAR uni0526
ENCODING 1318
SWIDTH 818 0
DWIDTH 16 0
BBX 17 22 2 -6
BITMAP
380000
380000
380000
300000
700000
700000
700000
73C000
6FE000
F87000
F07000
E07000
E07000
E07D80
E07F00
C07E00
003800
00F800
019800
03B800
03F000
01E000
ENDCHAR
STARTCHAR uni0527
ENCODING 1319
SWIDTH 542 0
DWIDTH 11 0
BBX 12 24 1 -6
BITMAP
0E00
1E00
3B00
3300
3600
6600
6600
6C00
7800
F700
FF00
EF00
FB00
F700
F700
E730
E7E0
C3C0
0700
0F00
1B00
3700
3E00
1C00
ENDCHAR
STARTCHAR uni0528
ENCODING 1320
SWIDTH 873 0
DWIDTH 17 0
BBX 22 23 -2 -6
BITMAP
000070
0780F8
1FC0D8
39C198
31C198
21C398
01C330
01C360
0183C0
0FFF00
0FFF00
038700
038700
030704
07038C
0703F8
0701F0
070000
0E0000
0E0000
CC0000
FC0000
F80000
ENDCHAR
STARTCHAR uni0529
ENCODING 1321
SWIDTH 475 0
DWIDTH 10 0
BBX 14 15 -2 -6
BITMAP
0C60
0C60
1CE0
1FC0
1FC4
18CC
18DC
18F8
18F0
1C00
1800
1800
D800
F800
7000
ENDCHAR
STARTCHAR uni052E
ENCODING 1326
SWIDTH 884 0
DWIDTH 18 0
BBX 20 22 0 -6
BITMAP
001C00
001C00
003C00
003C00
003C00
007C00
007C00
007C00
00FC00
00DC00
01DC00
018C00
C38E00
E70EB0
7E0FF0
3C03C0
000F80
001D80
003B80
003300
003F00
003E00
ENDCHAR
STARTCHAR uni052F
ENCODING 1327
SWIDTH 631 0
DWIDTH 13 0
BBX 15 15 0 -6
BITMAP
0380
0380
0780
0780
6F80
CD80
DD86
F9FC
71F8
00E0
01E0
0260
06C0
07C0
0380
ENDCHAR
STARTCHAR Wgrave
ENCODING 7808
SWIDTH 1217 0
DWIDTH 24 0
BBX 25 23 2 0
BITMAP
01000000
01C00000
01E00000
00700000
00180000
00000000
00000000
70183C00
70387E00
70386E00
7038EE00
6038CE00
E0786E00
E0786C00
E0787C00
E0F83F80
E0F81F80
60F83800
71B87000
7398E000
7F1FC000
3E1F8000
1C0F0000
ENDCHAR
STARTCHAR wgrave
ENCODING 7809
SWIDTH 700 0
DWIDTH 14 0
BBX 16 16 1 0
BITMAP
1800
1C00
0C00
0E00
0600
0200
0000
C638
C678
C678
CF7F
EF7E
FFE0
FFC0
F380
6380
ENDCHAR
STARTCHAR Wacute
ENCODING 7810
SWIDTH 1217 0
DWIDTH 24 0
BBX 25 23 2 0
BITMAP
00008000
00038000
00078000
000E0000
00180000
00000000
00000000
70183C00
70387E00
70386E00
7038EE00
6038CE00
E0786E00
E0786C00
E0787C00
E0F83F80
E0F81F80
60F83800
71B87000
7398E000
7F1FC000
3E1F8000
1C0F0000
ENDCHAR
STARTCHAR wacute
ENCODING 7811
SWIDTH 700 0
DWIDTH 14 0
BBX 16 16 1 0
BITMAP
00C0
00C0
01C0
0180
0300
0200
0000
C638
C678
C678
CF7F
EF7E
FFE0
FFC0
F380
6380
ENDCHAR
STARTCHAR Wdieresis
ENCODING 7812
SWIDTH 1217 0
DWIDTH 24 0
BBX 25 21 2 0
BITMAP
00770000
00770000
00670000
00000000
00000000
70183C00
70387E00
70386E00
7038EE00
6038CE00
E0786E00
E0786C00
E0787C00
E0F83F80
E0F81F80
60F83800
71B87000
7398E000
7F1FC000
3E1F8000
1C0F0000
ENDCHAR
STARTCHAR wdieresis
ENCODING 7813
SWIDTH 700 0
DWIDTH 14 0
BBX 16 13 1 0
BITMAP
0CC0
1DC0
1CC0
0000
C638
C678
C678
CF7F
EF7E
FFE0
FFC0
F380
6380
ENDCHAR
STARTCHAR uni1E9E
ENCODING 7838
SWIDTH 843 0
DWIDTH 17 0
BBX 14 17 2 -1
BITMAP
38F8
33FC
771C
761C
7C1C
6838
78F0
73C0
F3F8
F038
E01C
E01C
E01C
E038
E078
C3E0
0780
ENDCHAR
STARTCHAR uni1EA0
ENCODING 7840
SWIDTH 786 0
DWIDTH 16 0
BBX 17 20 1 -4
BITMAP
00FE00
07FF00
0F8600
1C1800
381C00
701800
703800
703800
E03800
E07000
E07000
E07000
E0F080
71F980
7F3F00
1E1E00
000000
070000
0F0000
070000
ENDCHAR
STARTCHAR uni1EA1
ENCODING 7841
SWIDTH 470 0
DWIDTH 9 0
BBX 11 13 1 -4
BITMAP
1C00
3F00
7700
E600
C600
CE60
CEE0
FFC0
7380
0000
3000
7800
7000
ENDCHAR
STARTCHAR uni1EA2
ENCODING 7842
SWIDTH 786 0
DWIDTH 16 0
BBX 17 23 1 0
BITMAP
007800
007C00
000C00
003C00
003800
000000
000000
00FE00
07FF00
0F8600
1C1800
381C00
701800
703800
703800
E03800
E07000
E07000
E07000
E0F080
71F980
7F3F00
1E1E00
ENDCHAR
STARTCHAR uni1EA3
ENCODING 7843
SWIDTH 470 0
DWIDTH 9 0
BBX 11 16 1 0
BITMAP
0E00
1F00
0300
0300
0F00
0E00
0000
1C00
3F00
7700
E600
C600
CE60
CEE0
FFC0
7380
ENDCHAR
STARTCHAR uni1EA4
ENCODING 7844
SWIDTH 786 0
DWIDTH 16 0
BBX 17 29 1 0
BITMAP
000100
000380
000780
000E00
001800
000000
003800
006800
006C00
00CC00
00CC00
000000
000000
00FE00
07FF00
0F8600
1C1800
381C00
701800
703800
703800
E03800
E07000
E07000
E07000
E0F080
71F980
7F3F00
1E1E00
ENDCHAR
STARTCHAR uni1EA5
ENCODING 7845
SWIDTH 470 0
DWIDTH 9 0
BBX 11 17 1 0
BITMAP
0020
0060
00E0
0E80
1F00
3B00
3180
0000
1C00
3F00
7700
E600
C600
CE60
CEE0
FFC0
7380
ENDCHAR
STARTCHAR uni1EA6
ENCODING 7846
SWIDTH 786 0
DWIDTH 16 0
BBX 17 29 1 0
BITMAP
010000
038000
01E000
00F000
003000
000000
003800
006800
006C00
00CC00
00CC00
000000
000000
00FE00
07FF00
0F8600
1C1800
381C00
701800
703800
703800
E03800
E07000
E07000
E07000
E0F080
71F980
7F3F00
1E1E00
ENDCHAR
STARTCHAR uni1EA7
ENCODING 7847
SWIDTH 470 0
DWIDTH 9 0
BBX 11 17 1 0
BITMAP
4000
E000
7000
1E00
1F00
3B00
3180
0000
1C00
3F00
7700
E600
C600
CE60
CEE0
FFC0
7380
ENDCHAR
STARTCHAR uni1EA8
ENCODING 7848
SWIDTH 786 0
DWIDTH 16 0
BBX 17 29 1 0
BITMAP
003C00
003E00
000600
001E00
001C00
000000
003800
006800
006C00
00CC00
00CC00
000000
000000
00FE00
07FF00
0F8600
1C1800
381C00
701800
703800
703800
E03800
E07000
E07000
E07000
E0F080
71F980
7F3F00
1E1E00
ENDCHAR
STARTCHAR uni1EA9
ENCODING 7849
SWIDTH 470 0
DWIDTH 9 0
BBX 12 16 1 0
BITMAP
00E0
0030
0030
0EE0
1B00
3380
0000
1C00
3F00
7700
E600
C600
CE60
CEE0
FFC0
7380
ENDCHAR
STARTCHAR uni1EAA
ENCODING 7850
SWIDTH 786 0
DWIDTH 16 0
BBX 17 28 1 0
BITMAP
007100
00FB80
00DF00
008600
000000
003800
006800
006C00
00CC00
00CC00
000000
000000
00FE00
07FF00
0F8600
1C1800
381C00
701800
703800
703800
E03800
E07000
E07000
E07000
E0F080
71F980
7F3F00
1E1E00
ENDCHAR
STARTCHAR uni1EAB
ENCODING 7851
SWIDTH 470 0
DWIDTH 9 0
BBX 11 17 1 0
BITMAP
1CC0
3F80
3300
0E00
1F00
3B00
3180
0000
1C00
3F00
7700
E600
C600
CE60
CEE0
FFC0
7380
ENDCHAR
STARTCHAR uni1EAC
ENCODING 7852
SWIDTH 786 0
DWIDTH 16 0
BBX 17 27 1 -4
BITMAP
003800
006800
006C00
00CC00
00CC00
000000
000000
00FE00
07FF00
0F8600
1C1800
381C00
701800
703800
703800
E03800
E07000
E07000
E07000
E0F080
71F980
7F3F00
1E1E00
000000
070000
0F0000
070000
ENDCHAR
STARTCHAR uni1EAD
ENCODING 7853
SWIDTH 470 0
DWIDTH 9 0
BBX 11 21 1 -4
BITMAP
0200
0E00
0F00
1B00
1B00
3380
3300
0000
1C00
3F00
7700
E600
C600
CE60
CEE0
FFC0
7380
0000
3000
7800
7000
ENDCHAR
STARTCHAR uni1EAE
ENCODING 7854
SWIDTH 786 0
DWIDTH 16 0
BBX 17 24 1 0
BITMAP
000E00
001C00
009200
01C600
01FE00
007C00
000000
000000
00FE00
07FF00
0F8600
1C1800
381C00
701800
703800
703800
E03800
E07000
E07000
E07000
E0F080
71F980
7F3F00
1E1E00
ENDCHAR
STARTCHAR uni1EAF
ENCODING 7855
SWIDTH 470 0
DWIDTH 9 0
BBX 11 16 1 0
BITMAP
0180
0780
2480
71C0
3F80
1F00
0000
1C00
3F00
7700
E600
C600
CE60
CEE0
FFC0
7380
ENDCHAR
STARTCHAR uni1EB0
ENCODING 7856
SWIDTH 786 0
DWIDTH 16 0
BBX 17 24 1 0
BITMAP
00E000
007000
001000
01C600
01FE00
007C00
000000
000000
00FE00
07FF00
0F8600
1C1800
381C00
701800
703800
703800
E03800
E07000
E07000
E07000
E0F080
71F980
7F3F00
1E1E00
ENDCHAR
STARTCHAR uni1EB1
ENCODING 7857
SWIDTH 470 0
DWIDTH 9 0
BBX 11 16 1 0
BITMAP
1800
1C00
0400
71C0
3F80
1F00
0000
1C00
3F00
7700
E600
C600
CE60
CEE0
FFC0
7380
ENDCHAR
STARTCHAR uni1EB2
ENCODING 7858
SWIDTH 786 0
DWIDTH 16 0
BBX 17 25 1 0
BITMAP
007800
000C00
000800
003800
01C600
01FE00
007C00
000000
000000
00FE00
07FF00
0F8600
1C1800
381C00
701800
703800
703800
E03800
E07000
E07000
E07000
E0F080
71F980
7F3F00
1E1E00
ENDCHAR
STARTCHAR uni1EB3
ENCODING 7859
SWIDTH 470 0
DWIDTH 9 0
BBX 11 17 1 0
BITMAP
0E00
0300
0300
0E00
71C0
3F80
1F00
0000
1C00
3F00
7700
E600
C600
CE60
CEE0
FFC0
7380
ENDCHAR
STARTCHAR uni1EB4
ENCODING 7860
SWIDTH 786 0
DWIDTH 16 0
BBX 17 26 1 0
BITMAP
002000
007300
00FE00
008E00
008200
01C600
01FE00
007C00
000000
000000
00FE00
07FF00
0F8600
1C1800
381C00
701800
703800
703800
E03800
E07000
E07000
E07000
E0F080
71F980
7F3F00
1E1E00
ENDCHAR
STARTCHAR uni1EB5
ENCODING 7861
SWIDTH 470 0
DWIDTH 9 0
BBX 11 18 1 0
BITMAP
0800
1CC0
3FC0
3380
2080
71C0
3F80
1F00
0000
1C00
3F00
7700
E600
C600
CE60
CEE0
FFC0
7380
ENDCHAR
STARTCHAR uni1EB6
ENCODING 7862
SWIDTH 786 0
DWIDTH 16 0
BBX 17 26 1 -4
BITMAP
008200
01C600
01FE00
007C00
000000
000000
00FE00
07FF00
0F8600
1C1800
381C00
701800
703800
703800
E03800
E07000
E07000
E07000
E0F080
71F980
7F3F00
1E1E00
000000
070000
0F0000
070000
ENDCHAR
STARTCHAR uni1EB7
ENCODING 7863
SWIDTH 470 0
DWIDTH 9 0
BBX 11 19 1 -4
BITMAP
2080
71C0
7180
3F80
1E00
0000
1C00
3F00
7700
E600
C600
CE60
CEE0
FFC0
7380
0000
3000
7800
7000
ENDCHAR
STARTCHAR uni1EB8
ENCODING 7864
SWIDTH 686 0
DWIDTH 14 0
BBX 15 20 1 -4
BITMAP
07E0
1FF8
3C38
3818
3838
3810
1F80
3F00
7800
E000
E000
E000
E002
F01E
7FFE
1FF0
0000
0700
0F00
0600
ENDCHAR
STARTCHAR uni1EB9
ENCODING 7865
SWIDTH 393 0
DWIDTH 8 0
BBX 9 13 1 -4
BITMAP
3C00
7E00
E600
CE00
DC00
F080
E380
FF00
3E00
0000
3800
3800
3800
ENDCHAR
STARTCHAR uni1EBA
ENCODING 7866
SWIDTH 686 0
DWIDTH 14 0
BBX 15 23 1 0
BITMAP
01E0
01E0
0030
00E0
01C0
0000
0000
07E0
1FF8
3C38
3818
3838
3810
1F80
3F00
7800
E000
E000
E000
E002
F01E
7FFE
1FF0
ENDCHAR
STARTCHAR uni1EBB
ENCODING 7867
SWIDTH 393 0
DWIDTH 8 0
BBX 9 16 1 0
BITMAP
1C00
1E00
0600
0600
1E00
1C00
0000
3C00
7E00
E600
CE00
DC00
F080
E380
FF00
3E00
ENDCHAR
STARTCHAR uni1EBC
ENCODING 7868
SWIDTH 686 0
DWIDTH 14 0
BBX 15 22 1 0
BITMAP
0308
07D8
0EF8
0470
0000
0000
07E0
1FF8
3C38
3818
3838
3810
1F80
3F00
7800
E000
E000
E000
E002
F01E
7FFE
1FF0
ENDCHAR
STARTCHAR uni1EBD
ENCODING 7869
SWIDTH 393 0
DWIDTH 8 0
BBX 9 14 1 0
BITMAP
3080
7D80
CF00
4700
0000
3C00
7E00
E600
CE00
DC00
F080
E380
FF00
3E00
ENDCHAR
STARTCHAR uni1EBE
ENCODING 7870
SWIDTH 686 0
DWIDTH 14 0
BBX 15 25 1 0
BITMAP
0004
000E
001C
00D0
01E0
0370
0630
0000
0000
07E0
1FF8
3C38
3818
3838
3810
1F80
3F00
7800
E000
E000
E000
E002
F01E
7FFE
1FF0
ENDCHAR
STARTCHAR uni1EBF
ENCODING 7871
SWIDTH 393 0
DWIDTH 8 0
BBX 11 17 1 0
BITMAP
0040
00E0
01C0
1D00
3E00
3600
6300
0000
3C00
7E00
E600
CE00
DC00
F080
E380
FF00
3E00
ENDCHAR
STARTCHAR uni1EC0
ENCODING 7872
SWIDTH 686 0
DWIDTH 14 0
BBX 15 25 1 0
BITMAP
0800
1C00
0E00
02C0
01E0
0370
0630
0000
0000
07E0
1FF8
3C38
3818
3838
3810
1F80
3F00
7800
E000
E000
E000
E002
F01E
7FFE
1FF0
ENDCHAR
STARTCHAR uni1EC1
ENCODING 7873
SWIDTH 393 0
DWIDTH 8 0
BBX 10 17 0 0
BITMAP
4000
E000
7000
1E00
1F00
1B00
3180
0000
1E00
3F00
7300
6700
6E00
7840
71C0
7F80
1F00
ENDCHAR
STARTCHAR uni1EC2
ENCODING 7874
SWIDTH 686 0
DWIDTH 14 0
BBX 15 24 1 0
BITMAP
001C
0006
0006
01FC
03E0
0730
0000
0000
07E0
1FF8
3C38
3818
3838
3810
1F80
3F00
7800
E000
E000
E000
E002
F01E
7FFE
1FF0
ENDCHAR
STARTCHAR uni1EC3
ENCODING 7875
SWIDTH 393 0
DWIDTH 8 0
BBX 11 16 1 0
BITMAP
01C0
0060
0060
1DC0
3600
6300
0000
3C00
7E00
E600
CE00
DC00
F080
E380
FF00
3E00
ENDCHAR
STARTCHAR uni1EC4
ENCODING 7876
SWIDTH 686 0
DWIDTH 14 0
BBX 15 25 1 0
BITMAP
0398
03F8
0630
00C0
01E0
0370
0630
0000
0000
07E0
1FF8
3C38
3818
3838
3810
1F80
3F00
7800
E000
E000
E000
E002
F01E
7FFE
1FF0
ENDCHAR
STARTCHAR uni1EC5
ENCODING 7877
SWIDTH 393 0
DWIDTH 8 0
BBX 9 17 1 0
BITMAP
3980
3D00
6700
0C00
3E00
3600
6300
0000
3C00
7E00
E600
CE00
DC00
F080
E380
FF00
3E00
ENDCHAR
STARTCHAR uni1EC6
ENCODING 7878
SWIDTH 686 0
DWIDTH 14 0
BBX 15 27 1 -4
BITMAP
00C0
01E0
0360
0730
0630
0000
0000
07E0
1FF8
3C38
3818
3838
3810
1F80
3F00
7800
E000
E000
E000
E002
F01E
7FFE
1FF0
0000
0700
0F00
0600
ENDCHAR
STARTCHAR uni1EC7
ENCODING 7879
SWIDTH 393 0
DWIDTH 8 0
BBX 9 21 1 -4
BITMAP
0400
0E00
1E00
3E00
3600
7700
6300
0000
3C00
7E00
E600
CE00
DC00
F080
E380
FF00
3E00
0000
3800
3800
3800
ENDCHAR
STARTCHAR uni1EC8
ENCODING 7880
SWIDTH 495 0
DWIDTH 10 0
BBX 11 23 0 0
BITMAP
0780
07C0
00C0
03C0
0380
0000
0000
3FE0
3FE0
0700
0700
0600
0E00
0E00
0E00
0E00
0E00
0C00
1C00
1C00
1C00
FF80
FF80
ENDCHAR
STARTCHAR uni1EC9
ENCODING 7881
SWIDTH 246 0
DWIDTH 5 0
BBX 7 16 1 0
BITMAP
70
78
18
18
78
70
00
60
60
E0
E0
E0
C6
CC
F8
70
ENDCHAR
STARTCHAR uni1ECA
ENCODING 7882
SWIDTH 495 0
DWIDTH 10 0
BBX 11 20 0 -4
BITMAP
3FE0
3FE0
0700
0700
0600
0E00
0E00
0E00
0E00
0E00
0C00
1C00
1C00
1C00
FF80
FF80
0000
1C00
3C00
1800
ENDCHAR
STARTCHAR uni1ECB
ENCODING 7883
SWIDTH 246 0
DWIDTH 5 0
BBX 8 17 0 -4
BITMAP
38
38
38
00
30
30
70
70
70
63
66
7C
38
00
60
F0
E0
ENDCHAR
STARTCHAR uni1ECC
ENCODING 7884
SWIDTH 816 0
DWIDTH 16 0
BBX 15 20 1 -4
BITMAP
03E0
0FF8
1E3C
381C
700E
700E
700E
E00E
E00E
E00E
E01C
701C
7038
7870
3FE0
0F80
0000
0700
0F00
0700
ENDCHAR
STARTCHAR uni1ECD
ENCODING 7885
SWIDTH 451 0
DWIDTH 9 0
BBX 11 13 1 -4
BITMAP
3C00
7E00
EF00
CFE0
C7C0
C600
E600
FC00
7800
0000
3800
7800
3000
ENDCHAR
STARTCHAR uni1ECE
ENCODING 7886
SWIDTH 816 0
DWIDTH 16 0
BBX 15 23 1 0
BITMAP
01E0
01F0
0030
00F0
00E0
0000
0000
03E0
0FF8
1E3C
381C
700E
700E
700E
E00E
E00E
E00E
E01C
701C
7038
7870
3FE0
0F80
ENDCHAR
STARTCHAR uni1ECF
ENCODING 7887
SWIDTH 451 0
DWIDTH 9 0
BBX 11 16 1 0
BITMAP
1C00
1E00
0600
0600
1E00
1C00
0000
3C00
7E00
EF00
CFE0
C7C0
C600
E600
FC00
7800
ENDCHAR
STARTCHAR uni1ED0
ENCODING 7888
SWIDTH 816 0
DWIDTH 16 0
BBX 15 24 1 0
BITMAP
0004
0006
001E
00F0
01E0
03B0
0730
0000
03E0
0FF8
1E3C
381C
700E
700E
700E
E00E
E00E
E00E
E01C
701C
7038
7870
3FE0
0F80
ENDCHAR
STARTCHAR uni1ED1
ENCODING 7889
SWIDTH 451 0
DWIDTH 9 0
BBX 11 17 1 0
BITMAP
0040
00E0
01C0
1D00
3E00
7600
6300
0000
3C00
7E00
EF00
CFE0
C7C0
C600
E600
FC00
7800
ENDCHAR
STARTCHAR uni1ED2
ENCODING 7890
SWIDTH 816 0
DWIDTH 16 0
BBX 15 24 1 0
BITMAP
0800
0C00
0E00
02E0
01E0
03B0
0730
0000
03E0
0FF8
1E3C
381C
700E
700E
700E
E00E
E00E
E00E
E01C
701C
7038
7870
3FE0
0F80
ENDCHAR
STARTCHAR uni1ED3
ENCODING 7891
SWIDTH 451 0
DWIDTH 9 0
BBX 12 17 0 0
BITMAP
4000
E000
7000
1E00
1F00
3B00
3180
0000
1E00
3F00
7780
67F0
63E0
6300
7300
7E00
3C00
ENDCHAR
STARTCHAR uni1ED4
ENCODING 7892
SWIDTH 816 0
DWIDTH 16 0
BBX 15 23 1 0
BITMAP
001E
0006
0002
00EE
01F0
0730
0000
03E0
0FF8
1E3C
381C
700E
700E
700E
E00E
E00E
E00E
E01C
701C
7038
7870
3FE0
0F80
ENDCHAR
STARTCHAR uni1ED5
ENCODING 7893
SWIDTH 451 0
DWIDTH 9 0
BBX 11 16 1 0
BITMAP
01C0
0060
0060
1DC0
3600
6700
0000
3C00
7E00
EF00
CFE0
C7C0
C600
E600
FC00
7800
ENDCHAR
STARTCHAR uni1ED6
ENCODING 7894
SWIDTH 816 0
DWIDTH 16 0
BBX 15 24 1 0
BITMAP
0188
03F8
0230
00E0
01E0
0330
0730
0000
03E0
0FF8
1E3C
381C
700E
700E
700E
E00E
E00E
E00E
E01C
701C
7038
7870
3FE0
0F80
ENDCHAR
STARTCHAR uni1ED7
ENCODING 7895
SWIDTH 451 0
DWIDTH 9 0
BBX 11 17 1 0
BITMAP
3980
7F00
6600
1C00
3E00
7600
6300
0000
3C00
7E00
EF00
CFE0
C7C0
C600
E600
FC00
7800
ENDCHAR
STARTCHAR uni1ED8
ENCODING 7896
SWIDTH 816 0
DWIDTH 16 0
BBX 15 27 1 -4
BITMAP
00E0
01E0
03B0
0330
0630
0000
0000
03E0
0FF8
1E3C
381C
700E
700E
700E
E00E
E00E
E00E
E01C
701C
7038
7870
3FE0
0F80
0000
0700
0F00
0700
ENDCHAR
STARTCHAR uni1ED9
ENCODING 7897
SWIDTH 451 0
DWIDTH 9 0
BBX 11 21 1 -4
BITMAP
0400
1E00
1E00
3600
3600
6700
6200
0000
3C00
7E00
EF00
CFE0
C7C0
C600
E600
FC00
7800
0000
3800
7800
3000
ENDCHAR
STARTCHAR uni1EDA
ENCODING 7898
SWIDTH 816 0
DWIDTH 16 0
BBX 16 23 1 0
BITMAP
0008
001C
003C
0071
00C3
0003
0007
03FE
0FFE
1E3C
381C
700E
700E
700E
E00E
E00E
E00E
E01C
701C
7038
7870
3FE0
0F80
ENDCHAR
STARTCHAR uni1EDB
ENCODING 7899
SWIDTH 451 0
DWIDTH 9 0
BBX 11 16 1 0
BITMAP
0600
0700
0E00
0C00
1880
1980
0180
3F00
7E00
EE00
CFE0
C7C0
C600
E600
FC00
7800
ENDCHAR
STARTCHAR uni1EDC
ENCODING 7900
SWIDTH 816 0
DWIDTH 16 0
BBX 16 23 1 0
BITMAP
0800
1C00
0F00
0781
0183
0003
0007
03FE
0FFE
1E3C
381C
700E
700E
700E
E00E
E00E
E00E
E01C
701C
7038
7870
3FE0
0F80
ENDCHAR
STARTCHAR uni1EDD
ENCODING 7901
SWIDTH 451 0
DWIDTH 9 0
BBX 11 16 1 0
BITMAP
C000
E000
6000
3000
3080
1980
0180
3F00
7E00
EE00
CFE0
C7C0
C600
E600
FC00
7800
ENDCHAR
STARTCHAR uni1EDE
ENCODING 7902
SWIDTH 816 0
DWIDTH 16 0
BBX 16 23 1 0
BITMAP
01E0
01F0
0030
00F1
00E3
0003
0007
03FE
0FFE
1E3C
381C
700E
700E
700E
E00E
E00E
E00E
E01C
701C
7038
7870
3FE0
0F80
ENDCHAR
STARTCHAR uni1EDF
ENCODING 7903
SWIDTH 451 0
DWIDTH 9 0
BBX 11 16 1 0
BITMAP
3C00
3E00
0600
0600
1C80
1980
0180
3F00
7E00
EE00
CFE0
C7C0
C600
E600
FC00
7800
ENDCHAR
STARTCHAR uni1EE0
ENCODING 7904
SWIDTH 816 0
DWIDTH 16 0
BBX 16 22 1 0
BITMAP
0388
07DC
06F9
0433
0003
0007
03FE
0FFE
1E3C
381C
700E
700E
700E
E00E
E00E
E00E
E01C
701C
7038
7870
3FE0
0F80
ENDCHAR
STARTCHAR uni1EE1
ENCODING 7905
SWIDTH 451 0
DWIDTH 9 0
BBX 11 14 1 0
BITMAP
3300
7B00
CE80
4580
0180
3F00
7E00
EF00
CFE0
C7C0
C600
E600
FC00
7800
ENDCHAR
STARTCHAR uni1EE2
ENCODING 7906
SWIDTH 816 0
DWIDTH 16 0
BBX 16 24 1 -4
BITMAP
0001
0003
0003
0007
03FE
0FFE
1E3C
381C
700E
700E
700E
E00E
E00E
E00E
E01C
701C
7038
7870
3FE0
0F80
0000
0700
0F00
0700
ENDCHAR
STARTCHAR uni1EE3
ENCODING 7907
SWIDTH 451 0
DWIDTH 9 0
BBX 11 16 1 -4
BITMAP
0080
0180
0180
3F00
7E00
EE00
CFE0
C7C0
C600
E600
FC00
7800
0000
3800
7800
3000
ENDCHAR
STARTCHAR uni1EE4
ENCODING 7908
SWIDTH 890 0
DWIDTH 18 0
BBX 20 20 0 -4
BITMAP
1E0300
3F0380
670380
C70300
870700
070700
0E0700
0E0700
0E0F00
0E0E00
0C1E00
1C1600
1C3E10
1EEF70
0FC7E0
0783C0
000000
01C000
01C000
01C000
ENDCHAR
STARTCHAR uni1EE5
ENCODING 7909
SWIDTH 462 0
DWIDTH 9 0
BBX 11 13 1 -4
BITMAP
6300
6700
E600
E600
CE00
CE60
FEE0
F7C0
6700
0000
3800
7800
3800
ENDCHAR
STARTCHAR uni1EE6
ENCODING 7910
SWIDTH 890 0
DWIDTH 18 0
BBX 20 23 0 0
BITMAP
007800
007C00
000C00
003C00
003800
000000
000000
1E0300
3F0380
670380
C70300
870700
070700
0E0700
0E0700
0E0F00
0E0E00
0C1E00
1C1600
1C3E10
1EEF70
0FC7E0
0783C0
ENDCHAR
STARTCHAR uni1EE7
ENCODING 7911
SWIDTH 462 0
DWIDTH 9 0
BBX 11 16 1 0
BITMAP
1E00
1F00
0300
0300
0E00
0C00
0000
6300
6700
E600
E600
CE00
CE60
FEE0
F7C0
6700
ENDCHAR
STARTCHAR uni1EE8
ENCODING 7912
SWIDTH 890 0
DWIDTH 18 0
BBX 20 23 0 0
BITMAP
000200
000700
000F00
001C20
003030
000070
000060
1E03E0
3F0380
670380
C70300
870700
070700
0E0700
0E0700
0E0F00
0E0E00
0C1E00
1C1600
1C3E10
1EEF70
0FC7E0
0783C0
ENDCHAR
STARTCHAR uni1EE9
ENCODING 7913
SWIDTH 512 0
DWIDTH 10 0
BBX 12 16 1 0
BITMAP
0300
0380
0700
0600
0440
0CC0
00C0
63C0
6780
E600
E600
CE00
CE30
FE70
F7E0
6780
ENDCHAR
STARTCHAR uni1EEA
ENCODING 7914
SWIDTH 890 0
DWIDTH 18 0
BBX 20 23 0 0
BITMAP
020000
070000
03C000
01E020
006030
000070
000060
1E03E0
3F0380
670380
C70300
870700
070700
0E0700
0E0700
0E0F00
0E0E00
0C1E00
1C1600
1C3E10
1EEF70
0FC7E0
0783C0
ENDCHAR
STARTCHAR uni1EEB
ENCODING 7915
SWIDTH 512 0
DWIDTH 10 0
BBX 12 16 1 0
BITMAP
3000
7000
3000
1800
1840
0CC0
00C0
63C0
6780
E600
E600
CE00
CE30
FE70
F7E0
6780
ENDCHAR
STARTCHAR uni1EEC
ENCODING 7916
SWIDTH 890 0
DWIDTH 18 0
BBX 20 23 0 0
BITMAP
007800
007C00
000C00
003C20
003830
000070
000060
1E03E0
3F0380
670380
C70300
870700
070700
0E0700
0E0700
0E0F00
0E0E00
0C1E00
1C1600
1C3E10
1EEF70
0FC7E0
0783C0
ENDCHAR
STARTCHAR uni1EED
ENCODING 7917
SWIDTH 512 0
DWIDTH 10 0
BBX 12 16 1 0
BITMAP
1E00
1F00
0300
0300
0E40
0CC0
00C0
63C0
6780
E600
E600
CE00
CE30
FE70
F7E0
6780
ENDCHAR
STARTCHAR uni1EEE
ENCODING 7918
SWIDTH 890 0
DWIDTH 18 0
BBX 20 22 0 0
BITMAP
00E200
01F700
01BE20
010C30
000070
000060
1E03E0
3F0380
670380
C70300
870700
070700
0E0700
0E0700
0E0F00
0E0E00
0C1E00
1C1600
1C3E10
1EEF70
0FC7E0
0783C0
ENDCHAR
STARTCHAR uni1EEF
ENCODING 7919
SWIDTH 512 0
DWIDTH 10 0
BBX 12 14 1 0
BITMAP
1980
3D80
6740
22C0
00C0
63C0
6780
E600
E600
CE00
CE30
FE70
F7E0
6780
ENDCHAR
STARTCHAR uni1EF0
ENCODING 7920
SWIDTH 890 0
DWIDTH 18 0
BBX 20 24 0 -4
BITMAP
000020
000030
000070
000060
1E03E0
3F0380
670380
C70300
870700
070700
0E0700
0E0700
0E0F00
0E0E00
0C1E00
1C1600
1C3E10
1EEF70
0FC7E0
0783C0
000000
01C000
01C000
01C000
ENDCHAR
STARTCHAR uni1EF1
ENCODING 7921
SWIDTH 512 0
DWIDTH 10 0
BBX 12 16 1 -4
BITMAP
0040
00C0
00C0
63C0
6780
E600
E600
CE00
CE30
FE70
F7E0
6780
0000
3800
7800
3800
ENDCHAR
STARTCHAR Ygrave
ENCODING 7922
SWIDTH 851 0
DWIDTH 17 0
BBX 19 29 0 -6
BITMAP
020000
038000
03C000
00E000
003000
000000
000000
1E0380
3F0380
670380
C70300
870700
070700
0E0700
0E0F00
0E0F00
0E1F00
0E1E00
0E3600
0FE7E0
07CFE0
007E00
01CE00
030C00
071C00
061C00
073800
07F000
03E000
ENDCHAR
STARTCHAR ygrave
ENCODING 7923
SWIDTH 479 0
DWIDTH 10 0
BBX 12 25 0 -9
BITMAP
1800
3800
1800
0C00
0C00
0600
0000
3180
3380
7300
7300
6700
6730
7FE0
7FC0
3700
0E00
1E00
3600
6E00
4C00
CC00
D800
F800
7000
ENDCHAR
STARTCHAR uni1EF4
ENCODING 7924
SWIDTH 851 0
DWIDTH 17 0
BBX 19 22 0 -6
BITMAP
1E0380
3F0380
670380
C70300
870700
070700
0E0700
0E0F00
0E0F00
0E1F00
0E1E00
0E3600
0FE7E0
07CFE0
007E00
01CE00
030C00
071C00
061C00
073B80
07F780
03E300
ENDCHAR
STARTCHAR uni1EF5
ENCODING 7925
SWIDTH 479 0
DWIDTH 10 0
BBX 12 18 0 -9
BITMAP
3180
3380
7300
7300
6700
6730
7FE0
7FC0
3700
0E00
1E00
3600
6E00
4C00
CC00
DB80
FB80
7380
ENDCHAR
STARTCHAR uni1EF6
ENCODING 7926
SWIDTH 851 0
DWIDTH 17 0
BBX 19 29 0 -6
BITMAP
003800
007C00
000C00
003C00
003800
000000
000000
1E0380
3F0380
670380
C70300
870700
070700
0E0700
0E0F00
0E0F00
0E1F00
0E1E00
0E3600
0FE7E0
07CFE0
007E00
01CE00
030C00
071C00
061C00
073800
07F000
03E000
ENDCHAR
STARTCHAR uni1EF7
ENCODING 7927
SWIDTH 479 0
DWIDTH 10 0
BBX 12 25 0 -9
BITMAP
0F00
0F80
0180
0180
0700
0600
0000
3180
3380
7300
7300
6700
6730
7FE0
7FC0
3700
0E00
1E00
3600
6E00
4C00
CC00
D800
F800
7000
ENDCHAR
STARTCHAR uni1EF8
ENCODING 7928
SWIDTH 851 0
DWIDTH 17 0
BBX 19 28 0 -6
BITMAP
00E200
01F700
01BE00
010C00
000000
000000
1E0380
3F0380
670380
C70300
870700
070700
0E0700
0E0F00
0E0F00
0E1F00
0E1E00
0E3600
0FE7E0
07CFE0
007E00
01CE00
030C00
071C00
061C00
073800
07F000
03E000
ENDCHAR
STARTCHAR uni1EF9
ENCODING 7929
SWIDTH 479 0
DWIDTH 10 0
BBX 12 23 0 -9
BITMAP
1C40
3EE0
37C0
2180
0000
3180
3380
7300
7300
6700
6730
7FE0
7FC0
3700
0E00
1E00
3600
6E00
4C00
CC00
D800
F800
7000
ENDCHAR
STARTCHAR endash
ENCODING 8211
SWIDTH 484 0
DWIDTH 10 0
BBX 8 2 1 5
BITMAP
FF
FF
ENDCHAR
STARTCHAR emdash
ENCODING 8212
SWIDTH 620 0
DWIDTH 12 0
BBX 11 2 1 5
BITMAP
FFE0
FFE0
ENDCHAR
STARTCHAR quoteleft
ENCODING 8216
SWIDTH 237 0
DWIDTH 5 0
BBX 4 6 2 12
BITMAP
30
70
60
E0
E0
E0
ENDCHAR
STARTCHAR quoteright
ENCODING 8217
SWIDTH 236 0
DWIDTH 5 0
BBX 4 6 2 12
BITMAP
70
70
70
60
60
C0
ENDCHAR
STARTCHAR quotesinglbase
ENCODING 8218
SWIDTH 257 0
DWIDTH 5 0
BBX 4 7 0 -3
BITMAP
20
70
70
70
60
E0
C0
ENDCHAR
STARTCHAR quotedblleft
ENCODING 8220
SWIDTH 457 0
DWIDTH 9 0
BBX 8 6 2 12
BITMAP
33
73
67
E7
E7
EE
ENDCHAR
STARTCHAR quotedblright
ENCODING 8221
SWIDTH 456 0
DWIDTH 9 0
BBX 8 6 2 12
BITMAP
73
77
77
67
66
C6
ENDCHAR
STARTCHAR quotedblbase
ENCODING 8222
SWIDTH 477 0
DWIDTH 10 0
BBX 8 7 0 -3
BITMAP
22
77
77
77
67
E6
C6
ENDCHAR
STARTCHAR dagger
ENCODING 8224
SWIDTH 588 0
DWIDTH 12 0
BBX 9 13 3 5
BITMAP
0C00
1C00
1800
FF80
FF00
1800
1800
3800
3800
3000
3000
3000
3000
ENDCHAR
STARTCHAR daggerdbl
ENCODING 8225
SWIDTH 588 0
DWIDTH 12 0
BBX 10 13 2 5
BITMAP
0600
0E00
0C00
7FC0
7F80
0C00
0C00
0C00
FF80
FF80
1800
1800
1800
ENDCHAR
STARTCHAR bullet
ENCODING 8226
SWIDTH 512 0
DWIDTH 10 0
BBX 6 6 2 2
BITMAP
78
FC
FC
FC
FC
78
ENDCHAR
STARTCHAR ellipsis
ENCODING 8230
SWIDTH 777 0
DWIDTH 16 0
BBX 14 4 1 0
BITMAP
E718
E73C
E73C
E738
ENDCHAR
STARTCHAR perthousand
ENCODING 8240
SWIDTH 1277 0
DWIDTH 26 0
BBX 24 15 1 0
BITMAP
381800
7C3800
EE7800
CFF000
CFE000
CCE000
7DC000
31CE0C
039F3F
033333
0733F3
0633F3
0E3373
1C3F3E
081E1C
ENDCHAR
STARTCHAR guilsinglleft
ENCODING 8249
SWIDTH 350 0
DWIDTH 7 0
BBX 5 7 1 1
BITMAP
18
78
E0
C0
F0
78
18
ENDCHAR
STARTCHAR guilsinglright
ENCODING 8250
SWIDTH 350 0
DWIDTH 7 0
BBX 5 7 1 1
BITMAP
C0
F0
78
18
38
F0
C0
ENDCHAR
STARTCHAR fraction
ENCODING 8260
SWIDTH 200 0
DWIDTH 4 0
BBX 9 12 -2 2
BITMAP
0100
0380
0700
0600
0E00
1C00
1800
3800
3000
6000
E000
C000
ENDCHAR
STARTCHAR uni2074
ENCODING 8308
SWIDTH 450 0
DWIDTH 9 0
BBX 7 10 2 7
BITMAP
30
30
76
6C
EC
CC
FE
FE
1C
0C
ENDCHAR
STARTCHAR colonmonetary
ENCODING 8353
SWIDTH 517 0
DWIDTH 10 0
BBX 11 15 0 -2
BITMAP
00A0
01A0
0FE0
1FC0
32C0
76C0
7580
6B00
6A00
7640
74C0
3F80
7F00
5800
D000
ENDCHAR
STARTCHAR franc
ENCODING 8355
SWIDTH 750 0
DWIDTH 15 0
BBX 14 11 1 0
BITMAP
FFE0
7FE0
7038
6078
7F78
7FF8
E6DC
E798
E700
C700
C300
ENDCHAR
STARTCHAR lira
ENCODING 8356
SWIDTH 525 0
DWIDTH 11 0
BBX 10 11 0 0
BITMAP
0F80
1FC0
18C0
3840
7F00
3000
FE00
3000
7000
FFC0
7FC0
ENDCHAR
STARTCHAR uni20A6
ENCODING 8358
SWIDTH 672 0
DWIDTH 13 0
BBX 13 12 0 0
BITMAP
0810
1830
1C30
1C30
3E30
3F30
7FF8
33F0
FFF8
30E0
70E0
3060
ENDCHAR
STARTCHAR peseta
ENCODING 8359
SWIDTH 1085 0
DWIDTH 22 0
BBX 20 12 1 0
BITMAP
7C3800
FE3800
673000
63FE60
63FEE0
6370C0
E770E0
FE61F0
F86370
C07330
C07EF0
C03CE0
ENDCHAR
STARTCHAR uni20A9
ENCODING 8361
SWIDTH 775 0
DWIDTH 16 0
BBX 15 12 1 0
BITMAP
210C
638C
FFFE
6398
6398
FFFE
77B8
75B0
3DF0
3DE0
39C0
39C0
ENDCHAR
STARTCHAR dong
ENCODING 8363
SWIDTH 463 0
DWIDTH 9 0
BBX 11 18 0 -3
BITMAP
0080
01C0
01C0
3FE0
3FE0
0180
0F80
3F80
3B80
7300
6300
6700
6700
7F00
3F00
0000
FF80
FF80
ENDCHAR
STARTCHAR Euro
ENCODING 8364
SWIDTH 552 0
DWIDTH 11 0
BBX 11 11 0 0
BITMAP
07C0
1FE0
1C60
3860
7E00
3000
FE00
3040
38C0
1FC0
0F80
ENDCHAR
STARTCHAR uni20AD
ENCODING 8365
SWIDTH 590 0
DWIDTH 12 0
BBX 12 12 0 0
BITMAP
0820
1860
18E0
38C0
3980
7FE0
FFE0
3700
3380
7380
71F0
60F0
ENDCHAR
STARTCHAR uni20AE
ENCODING 8366
SWIDTH 513 0
DWIDTH 10 0
BBX 10 11 1 0
BITMAP
7F80
FFC0
0C00
0E00
1E00
7900
1E00
7800
1800
3800
3000
ENDCHAR
STARTCHAR uni20B1
ENCODING 8369
SWIDTH 557 0
DWIDTH 11 0
BBX 11 12 0 0
BITMAP
0400
3F80
39C0
7FE0
39C0
FFE0
3380
3F00
3C00
3000
7000
3000
ENDCHAR
STARTCHAR uni20B2
ENCODING 8370
SWIDTH 599 0
DWIDTH 12 0
BBX 10 16 1 -2
BITMAP
0600
0600
0400
1F00
3F80
75C0
ED80
EC80
CC00
C9C0
EBC0
E9C0
7FC0
3EC0
18C0
1880
ENDCHAR
STARTCHAR uni20B4
ENCODING 8372
SWIDTH 570 0
DWIDTH 11 0
BBX 10 11 1 0
BITMAP
1E00
7F00
6380
0380
FFC0
0000
FFC0
6080
6180
7F80
3E00
ENDCHAR
STARTCHAR uni20B5
ENCODING 8373
SWIDTH 517 0
DWIDTH 10 0
BBX 9 16 1 -2
BITMAP
0600
0600
0400
1F00
3F80
6580
ED80
EC00
CC00
C800
E880
E980
7F00
3E00
1800
1800
ENDCHAR
STARTCHAR uni20B8
ENCODING 8376
SWIDTH 522 0
DWIDTH 10 0
BBX 10 11 1 0
BITMAP
7F80
FFC0
0000
FF80
FF80
1800
1800
1800
1800
1800
3800
ENDCHAR
STARTCHAR uni20B9
ENCODING 8377
SWIDTH 511 0
DWIDTH 10 0
BBX 10 12 1 0
BITMAP
FFC0
1C00
0C00
FFC0
0E00
1C00
F800
F800
3800
1C00
0F80
0700
ENDCHAR
STARTCHAR uni20BA
ENCODING 8378
SWIDTH 452 0
DWIDTH 9 0
BBX 9 12 0 0
BITMAP
1000
1800
3A00
3E00
3A00
7600
7C00
7000
F180
7380
7F00
3C00
ENDCHAR
STARTCHAR uni20BC
ENCODING 8380
SWIDTH 673 0
DWIDTH 13 0
BBX 12 14 0 0
BITMAP
0180
0180
0180
07C0
0FE0
1D70
3970
3B30
7330
7330
7330
6230
E230
E230
ENDCHAR
STARTCHAR uni20BD
ENCODING 8381
SWIDTH 505 0
DWIDTH 10 0
BBX 10 12 0 0
BITMAP
1F00
3F80
39C0
19C0
39C0
3980
3380
FE00
3000
FE00
7000
3000
ENDCHAR
STARTCHAR uni2116
ENCODING 8470
SWIDTH 1198 0
DWIDTH 24 0
BBX 22 16 2 0
BITMAP
31F070
73F8F8
76399C
7C399C
78399C
7839F8
7038F0
703000
F073F8
E073F8
E07000
E07000
E07000
E06000
C0E000
C06000
ENDCHAR
STARTCHAR trademark
ENCODING 8482
SWIDTH 1150 0
DWIDTH 23 0
BBX 20 8 2 9
BITMAP
00CC60
FFDEF0
10E730
30E730
30C630
30C630
30C660
318E60
ENDCHAR
STARTCHAR partialdiff
ENCODING 8706
SWIDTH 451 0
DWIDTH 9 0
BBX 8 16 1 0
BITMAP
60
78
1C
0E
06
07
07
3F
7F
E7
C7
C7
C6
EE
FC
78
ENDCHAR
STARTCHAR product
ENCODING 8719
SWIDTH 700 0
DWIDTH 14 0
BBX 13 16 1 1
BITMAP
3FF8
3FF8
3830
3030
3030
3030
3070
7070
7070
7060
6060
6060
6060
60E0
E0E0
E0E0
ENDCHAR
STARTCHAR summation
ENCODING 8721
SWIDTH 700 0
DWIDTH 14 0
BBX 13 17 1 0
BITMAP
3FF8
3FF8
3C00
1C00
0E00
0700
0380
01C0
00C0
03C0
0780
0E00
1C00
3800
7000
FFE0
FFE0
ENDCHAR
STARTCHAR minus
ENCODING 8722
SWIDTH 700 0
DWIDTH 14 0
BBX 11 2 2 5
BITMAP
FFE0
FFC0
ENDCHAR
STARTCHAR uni2215
ENCODING 8725
SWIDTH 700 0
DWIDTH 14 0
BBX 11 19 2 0
BITMAP
0060
00E0
00E0
01C0
01C0
0380
0380
0700
0600
0E00
0C00
1C00
1800
3800
3000
7000
6000
E000
C000
ENDCHAR
STARTCHAR uni2219
ENCODING 8729
SWIDTH 700 0
DWIDTH 14 0
BBX 4 4 5 3
BITMAP
60
F0
F0
60
ENDCHAR
STARTCHAR radical
ENCODING 8730
SWIDTH 700 0
DWIDTH 14 0
BBX 14 17 1 0
BITMAP
000C
001C
0018
0018
0030
0030
0060
0060
F0E0
F0C0
19C0
1980
1980
0F00
0F00
0E00
0600
ENDCHAR
STARTCHAR infinity
ENCODING 8734
SWIDTH 700 0
DWIDTH 14 0
BBX 13 8 1 2
BITMAP
39E0
FFF0
EF30
C638
C638
CF30
FFF0
79E0
ENDCHAR
STARTCHAR integral
ENCODING 8747
SWIDTH 700 0
DWIDTH 14 0
BBX 12 25 1 -6
BITMAP
00F0
01F0
0380
0380
0300
0300
0300
0300
0700
0700
0700
0700
0700
0600
0600
0600
0E00
0E00
0E00
0E00
0E00
0C00
1C00
FC00
F000
ENDCHAR
STARTCHAR approxequal
ENCODING 8776
SWIDTH 700 0
DWIDTH 14 0
BBX 12 10 1 1
BITMAP
1830
3E70
77E0
61E0
4080
1020
7C60
6FE0
E7C0
41C0
ENDCHAR
STARTCHAR notequal
ENCODING 8800
SWIDTH 700 0
DWIDTH 14 0
BBX 12 12 1 0
BITMAP
0080
0180
0180
7FF0
7FF0
0700
0600
0E00
7FE0
FFE0
1800
1800
ENDCHAR
STARTCHAR lessequal
ENCODING 8804
SWIDTH 700 0
DWIDTH 14 0
BBX 12 12 1 0
BITMAP
0010
00F0
0FF0
7F00
7000
7E00
0FE0
01E0
0020
0000
FFE0
FFE0
ENDCHAR
STARTCHAR greaterequal
ENCODING 8805
SWIDTH 700 0
DWIDTH 14 0
BBX 12 12 1 0
BITMAP
2000
7C00
3F80
07F0
00F0
07E0
7F80
7800
4000
0000
FFE0
FFE0
ENDCHAR
STARTCHAR lozenge
ENCODING 9674
SWIDTH 700 0
DWIDTH 14 0
BBX 9 19 3 0
BITMAP
0600
0E00
0E00
1B00
3B00
3300
7380
6180
E180
C180
C180
C300
6300
6600
6600
7C00
3C00
3800
3000
ENDCHAR
STARTCHAR fi
ENCODING 64257
SWIDTH 633 0
DWIDTH 13 0
BBX 14 24 1 -6
BITMAP
0700
0F80
0D80
1980
1980
3B70
3370
3670
7C00
FFE0
FFE0
60E0
64C0
64C0
64C4
64CC
64F8
64F0
6400
6400
6C00
7C00
7800
3800
ENDCHAR
STARTCHAR fl
ENCODING 64258
SWIDTH 688 0
DWIDTH 14 0
BBX 15 24 1 -6
BITMAP
071C
0F3E
1B36
1B66
3B66
33E6
73CC
76CC
64CC
6CD8
79D8
F1F0
E1E0
FFC0
FFC2
F8C6
F8FC
E878
E800
E800
E800
E800
7800
7000
ENDCHAR
STARTCHAR .notdef
ENCODING -1
SWIDTH 265 0
DWIDTH 5 0
BBX 1 1 0 0
BITMAP
00
ENDCHAR
STARTCHAR Iacute_J.loclNLD
ENCODING -1
SWIDTH 776 0
DWIDTH 16 0
BBX 17 23 2 0
BITMAP
010100
070380
0F0780
1E0E00
301800
000000
000000
703800
703800
703800
703800
703800
607000
E07000
E0F000
F1F000
7FF000
7F7000
006000
00E000
C1C000
FF8000
7F0000
ENDCHAR
STARTCHAR A.ss01
ENCODING -1
SWIDTH 780 0
DWIDTH 16 0
BBX 16 16 1 0
BITMAP
00FE
07FF
0F00
1C18
381C
7018
7038
7038
E038
E078
E070
E070
E0F0
71F0
7F70
1E70
ENDCHAR
STARTCHAR Aacute.ss01
ENCODING -1
SWIDTH 780 0
DWIDTH 16 0
BBX 16 23 1 0
BITMAP
0002
0007
000F
001C
0030
0000
0000
00FE
07FF
0F00
1C18
381C
7018
7038
7038
E038
E078
E070
E070
E0F0
71F0
7F70
1E70
ENDCHAR
STARTCHAR Abreve.ss01
ENCODING -1
SWIDTH 780 0
DWIDTH 16 0
BBX 16 22 1 0
BITMAP
0082
01C6
01FE
007C
0000
0000
00FE
07FF
0F00
1C18
381C
7018
7038
7038
E038
E078
E070
E070
E0F0
71F0
7F70
1E70
ENDCHAR
STARTCHAR uni1EAE.ss01
ENCODING -1
SWIDTH 780 0
DWIDTH 16 0
BBX 16 24 1 0
BITMAP
000E
001C
0092
01C6
01FE
007C
0000
0000
00FE
07FF
0F00
1C18
381C
7018
7038
7038
E038
E078
E070
E070
E0F0
71F0
7F70
1E70
ENDCHAR
STARTCHAR uni1EB6.ss01
ENCODING -1
SWIDTH 780 0
DWIDTH 16 0
BBX 16 26 1 -4
BITMAP
0082
01C6
01FE
007C
0000
0000
00FE
07FF
0F00
1C18
381C
7018
7038
7038
E038
E078
E070
E070
E0F0
71F0
7F70
1E70
0000
0700
0F00
0700
ENDCHAR
STARTCHAR uni1EB0.ss01
ENCODING -1
SWIDTH 780 0
DWIDTH 16 0
BBX 16 24 1 0
BITMAP
00E0
0070
0010
01C6
01FE
007C
0000
0000
00FE
07FF
0F00
1C18
381C
7018
7038
7038
E038
E078
E070
E070
E0F0
71F0
7F70
1E70
ENDCHAR
STARTCHAR uni1EB2.ss01
ENCODING -1
SWIDTH 780 0
DWIDTH 16 0
BBX 16 25 1 0
BITMAP
0078
000C
0008
0038
01C6
01FE
007C
0000
0000
00FE
07FF
0F00
1C18
381C
7018
7038
7038
E038
E078
E070
E070
E0F0
71F0
7F70
1E70
ENDCHAR
STARTCHAR uni1EB4.ss01
ENCODING -1
SWIDTH 780 0
DWIDTH 16 0
BBX 16 26 1 0
BITMAP
0020
0073
00FE
008E
0082
01C6
01FE
007C
0000
0000
00FE
07FF
0F00
1C18
381C
7018
7038
7038
E038
E078
E070
E070
E0F0
71F0
7F70
1E70
ENDCHAR
STARTCHAR Acircumflex.ss01
ENCODING -1
SWIDTH 780 0
DWIDTH 16 0
BBX 16 23 1 0
BITMAP
0038
0068
006C
00CC
00CC
0000
0000
00FE
07FF
0F00
1C18
381C
7018
7038
7038
E038
E078
E070
E070
E0F0
71F0
7F70
1E70
ENDCHAR
STARTCHAR uni1EA4.ss01
ENCODING -1
SWIDTH 780 0
DWIDTH 16 0
BBX 17 25 1 0
BITMAP
000080
000180
000380
003A00
007C00
00EC00
00CC00
000000
000000
00FE00
07FF00
0F0000
1C1800
381C00
701800
703800
703800
E03800
E07800
E07000
E07000
E0F000
71F000
7F7000
1E7000
ENDCHAR
STARTCHAR uni1EAC.ss01
ENCODING -1
SWIDTH 780 0
DWIDTH 16 0
BBX 16 27 1 -4
BITMAP
0038
0068
006C
00CC
00CC
0000
0000
00FE
07FF
0F00
1C18
381C
7018
7038
7038
E038
E078
E070
E070
E0F0
71F0
7F70
1E70
0000
0700
0F00
0700
ENDCHAR
STARTCHAR uni1EA6.ss01
ENCODING -1
SWIDTH 780 0
DWIDTH 16 0
BBX 16 25 1 0
BITMAP
0200
0300
03C0
00B8
007C
00EC
00CC
0000
0000
00FE
07FF
0F00
1C18
381C
7018
7038
7038
E038
E078
E070
E070
E0F0
71F0
7F70
1E70
ENDCHAR
STARTCHAR uni1EA8.ss01
ENCODING -1
SWIDTH 780 0
DWIDTH 16 0
BBX 17 24 1 0
BITMAP
000780
000080
000080
003B80
006C00
00CC00
000000
000000
00FE00
07FF00
0F0000
1C1800
381C00
701800
703800
703800
E03800
E07800
E07000
E07000
E0F000
71F000
7F7000
1E7000
ENDCHAR
STARTCHAR uni1EAA.ss01
ENCODING -1
SWIDTH 780 0
DWIDTH 16 0
BBX 16 25 1 0
BITMAP
0073
00FE
008C
0038
007C
00EC
00CC
0000
0000
00FE
07FF
0F00
1C18
381C
7018
7038
7038
E038
E078
E070
E070
E0F0
71F0
7F70
1E70
ENDCHAR
STARTCHAR uni0200.ss01
ENCODING -1
SWIDTH 780 0
DWIDTH 16 0
BBX 16 23 1 0
BITMAP
0090
01B8
01D8
00D8
00CC
0000
0000
00FE
07FF
0F00
1C18
381C
7018
7038
7038
E038
E078
E070
E070
E0F0
71F0
7F70
1E70
ENDCHAR
STARTCHAR Adieresis.ss01
ENCODING -1
SWIDTH 780 0
DWIDTH 16 0
BBX 16 21 1 0
BITMAP
00CE
00EE
00CC
0000
0000
00FE
07FF
0F00
1C18
381C
7018
7038
7038
E038
E078
E070
E070
E0F0
71F0
7F70
1E70
ENDCHAR
STARTCHAR uni1EA0.ss01
ENCODING -1
SWIDTH 780 0
DWIDTH 16 0
BBX 16 20 1 -4
BITMAP
00FE
07FF
0F00
1C18
381C
7018
7038
7038
E038
E078
E070
E070
E0F0
71F0
7F70
1E70
0000
0700
0F00
0700
ENDCHAR
STARTCHAR Agrave.ss01
ENCODING -1
SWIDTH 780 0
DWIDTH 16 0
BBX 16 23 1 0
BITMAP
0200
0300
03C0
01E0
0070
0000
0000
00FE
07FF
0F00
1C18
381C
7018
7038
7038
E038
E078
E070
E070
E0F0
71F0
7F70
1E70
ENDCHAR
STARTCHAR uni1EA2.ss01
ENCODING -1
SWIDTH 780 0
DWIDTH 16 0
BBX 16 23 1 0
BITMAP
0078
007C
000C
003C
0038
0000
0000
00FE
07FF
0F00
1C18
381C
7018
7038
7038
E038
E078
E070
E070
E0F0
71F0
7F70
1E70
ENDCHAR
STARTCHAR uni0202.ss01
ENCODING -1
SWIDTH 780 0
DWIDTH 16 0
BBX 16 22 1 0
BITMAP
007C
00FE
01C6
0000
0000
0000
00FE
07FF
0F00
1C18
381C
7018
7038
7038
E038
E078
E070
E070
E0F0
71F0
7F70
1E70
ENDCHAR
STARTCHAR Amacron.ss01
ENCODING -1
SWIDTH 780 0
DWIDTH 16 0
BBX 16 20 1 0
BITMAP
00FC
00FC
0000
0000
00FE
07FF
0F00
1C18
381C
7018
7038
7038
E038
E078
E070
E070
E0F0
71F0
7F70
1E70
ENDCHAR
STARTCHAR Aogonek.ss01
ENCODING -1
SWIDTH 780 0
DWIDTH 16 0
BBX 16 21 1 -5
BITMAP
00FE
07FF
0F00
1C18
381C
7018
7038
7038
E038
E078
E070
E070
E0F0
71F0
7F70
1E70
00C0
00C0
00C0
00F8
0070
ENDCHAR
STARTCHAR Aring.ss01
ENCODING -1
SWIDTH 780 0
DWIDTH 16 0
BBX 16 24 1 0
BITMAP
0038
007C
006C
006C
007C
0038
0000
0000
00FE
07FF
0F00
1C18
381C
7018
7038
7038
E038
E078
E070
E070
E0F0
71F0
7F70
1E70
ENDCHAR
STARTCHAR Aringacute.ss01
ENCODING -1
SWIDTH 780 0
DWIDTH 16 0
BBX 18 25 1 0
BITMAP
0000C0
0001C0
003B80
007C00
004C00
007C00
003800
000000
000000
00FE00
07FF00
0F0000
1C1800
381C00
701800
703800
703800
E03800
E07800
E07000
E07000
E0F000
71F000
7F7000
1E7000
ENDCHAR
STARTCHAR Atilde.ss01
ENCODING -1
SWIDTH 780 0
DWIDTH 16 0
BBX 16 22 1 0
BITMAP
00E2
01F7
01BE
010C
0000
0000
00FE
07FF
0F00
1C18
381C
7018
7038
7038
E038
E078
E070
E070
E0F0
71F0
7F70
1E70
ENDCHAR
STARTCHAR AE.ss01
ENCODING -1
SWIDTH 1057 0
DWIDTH 21 0
BBX 21 16 1 0
BITMAP
01E7F8
07EFF0
0F0C00
1C1C00
381C00
701C00
703800
703FE0
E03FE0
E07800
E07800
E07800
E0F800
71FC10
7F9FF0
1F07E0
ENDCHAR
STARTCHAR AEacute.ss01
ENCODING -1
SWIDTH 1057 0
DWIDTH 21 0
BBX 21 23 1 0
BITMAP
000040
0001C0
0003C0
000780
000C00
000000
000000
01E7F8
07EFF0
0F0C00
1C1C00
381C00
701C00
703800
703FE0
E03FE0
E07800
E07800
E07800
E0F800
71FC10
7F9FF0
1F07E0
ENDCHAR
STARTCHAR B.ss01
ENCODING -1
SWIDTH 826 0
DWIDTH 17 0
BBX 14 16 2 0
BITMAP
1FE0
7FF8
603C
001C
301C
701C
7078
73F0
63E0
E070
E038
E038
E078
E0F0
FFE0
FF80
ENDCHAR
STARTCHAR C.ss01
ENCODING -1
SWIDTH 704 0
DWIDTH 14 0
BBX 13 16 1 0
BITMAP
03E0
0FF0
1E38
3838
7038
7038
7000
E000
E000
E000
E000
7000
7018
7878
3FF0
0FC0
ENDCHAR
STARTCHAR Cacute.ss01
ENCODING -1
SWIDTH 704 0
DWIDTH 14 0
BBX 14 23 1 0
BITMAP
0008
001C
003C
0070
00C0
0000
0000
03E0
0FF0
1E38
3838
7038
7038
7000
E000
E000
E000
E000
7000
7018
7878
3FF0
0FC0
ENDCHAR
STARTCHAR Ccaron.ss01
ENCODING -1
SWIDTH 704 0
DWIDTH 14 0
BBX 13 23 1 0
BITMAP
0318
0330
01F0
01E0
00C0
0000
0000
03E0
0FF0
1E38
3838
7038
7038
7000
E000
E000
E000
E000
7000
7018
7878
3FF0
0FC0
ENDCHAR
STARTCHAR Ccedilla.ss01
ENCODING -1
SWIDTH 704 0
DWIDTH 14 0
BBX 13 21 1 -5
BITMAP
03E0
0FF0
1E38
3838
7038
7038
7000
E000
E000
E000
E000
F000
7018
7838
3FF0
1FC0
0F00
0180
0180
1F80
1F00
ENDCHAR
STARTCHAR Ccircumflex.ss01
ENCODING -1
SWIDTH 704 0
DWIDTH 14 0
BBX 13 23 1 0
BITMAP
00E0
01E0
03B0
0330
0630
0000
0000
03E0
0FF0
1E38
3838
7038
7038
7000
E000
E000
E000
E000
7000
7018
7878
3FF0
0FC0
ENDCHAR
STARTCHAR Cdotaccent.ss01
ENCODING -1
SWIDTH 704 0
DWIDTH 14 0
BBX 13 21 1 0
BITMAP
00C0
01E0
01C0
0000
0000
03E0
0FF0
1E38
3838
7038
7038
7000
E000
E000
E000
E000
7000
7018
7878
3FF0
0FC0
ENDCHAR
STARTCHAR D.ss01
ENCODING -1
SWIDTH 810 0
DWIDTH 16 0
BBX 14 16 2 0
BITMAP
1FC0
7FE0
60F0
0038
3038
701C
701C
701C
601C
E018
E038
E078
E070
E1E0
FFC0
FE00
ENDCHAR
STARTCHAR uni01C4.ss01
ENCODING -1
SWIDTH 1455 0
DWIDTH 29 0
BBX 28 23 2 0
BITMAP
00000CC0
00000CC0
00000D80
00000780
00000700
00000000
00000000
1FC0FFE0
7FE1FFF0
60F000E0
003801C0
303803C0
701C0780
701C0700
701C0E00
601C1E00
E0183C00
E0387800
E078F000
E070E000
E1E1C000
FFC3FFE0
FE03FFC0
ENDCHAR
STARTCHAR Eth.ss01
ENCODING -1
SWIDTH 821 0
DWIDTH 16 0
BBX 16 16 0 0
BITMAP
07F0
07FC
0E1E
0E0E
0C07
1C07
7FC7
FFC7
1807
3807
380E
380E
381C
3878
3FF0
3FC0
ENDCHAR
STARTCHAR Dcaron.ss01
ENCODING -1
SWIDTH 810 0
DWIDTH 16 0
BBX 14 23 2 0
BITMAP
0C60
0EE0
06C0
0780
0380
0000
0000
1FC0
7FE0
60F0
0038
3038
701C
701C
701C
601C
E018
E038
E078
E070
E1E0
FFC0
FE00
ENDCHAR
STARTCHAR Dcroat.ss01
ENCODING -1
SWIDTH 821 0
DWIDTH 16 0
BBX 16 16 0 0
BITMAP
07F0
07FC
0E1E
0E0E
0C07
1C07
7FC7
FFC7
1807
3807
380E
380E
381C
3878
3FF0
3FC0
ENDCHAR
STARTCHAR E.ss01
ENCODING -1
SWIDTH 720 0
DWIDTH 14 0
BBX 13 16 1 0
BITMAP
07E0
1FF8
3C38
7018
7038
3810
1F80
3F00
7800
E000
E000
E008
E018
F078
7FE0
1F80
ENDCHAR
STARTCHAR Eacute.ss01
ENCODING -1
SWIDTH 720 0
DWIDTH 14 0
BBX 14 23 1 0
BITMAP
0008
001C
0078
00F0
00C0
0000
0000
07E0
1FF8
3C38
7018
7038
3810
1F80
3F00
7800
E000
E000
E008
E018
F078
7FE0
1F80
ENDCHAR
STARTCHAR Ebreve.ss01
ENCODING -1
SWIDTH 720 0
DWIDTH 14 0
BBX 13 22 1 0
BITMAP
0410
0E38
07F0
03E0
0000
0000
07E0
1FF8
3C38
7018
7038
3810
1F80
3F00
7800
E000
E000
E008
E018
F078
7FE0
1F80
ENDCHAR
STARTCHAR Ecaron.ss01
ENCODING -1
SWIDTH 720 0
DWIDTH 14 0
BBX 13 23 1 0
BITMAP
0630
0330
0360
01C0
01C0
0000
0000
07E0
1FF8
3C38
7018
7038
3810
1F80
3F00
7800
E000
E000
E008
E018
F078
7FE0
1F80
ENDCHAR
STARTCHAR Ecircumflex.ss01
ENCODING -1
SWIDTH 720 0
DWIDTH 14 0
BBX 13 23 1 0
BITMAP
01C0
01E0
0360
0770
0630
0000
0000
07E0
1FF8
3C38
7018
7038
3810
1F80
3F00
7800
E000
E000
E008
E018
F078
7FE0
1F80
ENDCHAR
STARTCHAR uni1EBE.ss01
ENCODING -1
SWIDTH 720 0
DWIDTH 14 0
BBX 15 25 1 0
BITMAP
0004
000E
001C
01D0
03E0
0760
0630
0000
0000
07E0
1FF8
3C38
7018
7038
3810
1F80
3F00
7800
E000
E000
E008
E018
F078
7FE0
1F80
ENDCHAR
STARTCHAR uni1EC6.ss01
ENCODING -1
SWIDTH 720 0
DWIDTH 14 0
BBX 13 27 1 -4
BITMAP
01C0
01E0
0360
0770
0630
0000
0000
07E0
1FF8
3C38
7018
7038
3810
1F80
3F00
7800
E000
E000
E008
E018
F078
7FE0
1F80
0000
0E00
0E00
0E00
ENDCHAR
STARTCHAR uni1EC0.ss01
ENCODING -1
SWIDTH 720 0
DWIDTH 14 0
BBX 13 25 1 0
BITMAP
0800
1C00
0E00
03C0
03E0
0760
0630
0000
0000
07E0
1FF8
3C38
7018
7038
3810
1F80
3F00
7800
E000
E000
E008
E018
F078
7FE0
1F80
ENDCHAR
STARTCHAR uni1EC2.ss01
ENCODING -1
SWIDTH 720 0
DWIDTH 14 0
BBX 15 24 1 0
BITMAP
001C
0006
0006
01DC
0360
0630
0000
0000
07E0
1FF8
3C38
7018
7038
3810
1F80
3F00
7800
E000
E000
E008
E018
F078
7FE0
1F80
ENDCHAR
STARTCHAR uni1EC4.ss01
ENCODING -1
SWIDTH 720 0
DWIDTH 14 0
BBX 13 25 1 0
BITMAP
0398
03D0
0670
00C0
03E0
0360
0630
0000
0000
07E0
1FF8
3C38
7018
7038
3810
1F80
3F00
7800
E000
E000
E008
E018
F078
7FE0
1F80
ENDCHAR
STARTCHAR uni0204.ss01
ENCODING -1
SWIDTH 720 0
DWIDTH 14 0
BBX 13 23 1 0
BITMAP
0440
0EC0
0EC0
0660
0260
0000
0000
07E0
1FF8
3C38
7018
7038
3810
1F80
3F00
7800
E000
E000
E008
E018
F078
7FE0
1F80
ENDCHAR
STARTCHAR Edieresis.ss01
ENCODING -1
SWIDTH 720 0
DWIDTH 14 0
BBX 13 21 1 0
BITMAP
0770
0770
0770
0000
0000
07E0
1FF8
3C38
7018
7038
3810
1F80
3F00
7800
E000
E000
E008
E018
F078
7FE0
1F80
ENDCHAR
STARTCHAR Edotaccent.ss01
ENCODING -1
SWIDTH 720 0
DWIDTH 14 0
BBX 13 21 1 0
BITMAP
01C0
01C0
01C0
0000
0000
07E0
1FF8
3C38
7018
7038
3810
1F80
3F00
7800
E000
E000
E008
E018
F078
7FE0
1F80
ENDCHAR
STARTCHAR uni1EB8.ss01
ENCODING -1
SWIDTH 720 0
DWIDTH 14 0
BBX 13 20 1 -4
BITMAP
07E0
1FF8
3C38
7018
7038
3810
1F80
3F00
7800
E000
E000
E008
E018
F078
7FE0
1F80
0000
0E00
0E00
0E00
ENDCHAR
STARTCHAR Egrave.ss01
ENCODING -1
SWIDTH 720 0
DWIDTH 14 0
BBX 13 23 1 0
BITMAP
0800
1C00
1E00
0700
0180
0000
0000
07E0
1FF8
3C38
7018
7038
3810
1F80
3F00
7800
E000
E000
E008
E018
F078
7FE0
1F80
ENDCHAR
STARTCHAR uni1EBA.ss01
ENCODING -1
SWIDTH 720 0
DWIDTH 14 0
BBX 13 23 1 0
BITMAP
01E0
01E0
0060
01E0
01C0
0000
0000
07E0
1FF8
3C38
7018
7038
3810
1F80
3F00
7800
E000
E000
E008
E018
F078
7FE0
1F80
ENDCHAR
STARTCHAR uni0206.ss01
ENCODING -1
SWIDTH 720 0
DWIDTH 14 0
BBX 13 22 1 0
BITMAP
03E0
07F0
0E38
0000
0000
0000
07E0
1FF8
3C38
7018
7038
3810
1F80
3F00
7800
E000
E000
E008
E018
F078
7FE0
1F80
ENDCHAR
STARTCHAR Emacron.ss01
ENCODING -1
SWIDTH 720 0
DWIDTH 14 0
BBX 13 20 1 0
BITMAP
07F0
07E0
0000
0000
07E0
1FF8
3C38
7018
7038
3810
1F80
3F00
7800
E000
E000
E008
E018
F078
7FE0
1F80
ENDCHAR
STARTCHAR Eogonek.ss01
ENCODING -1
SWIDTH 720 0
DWIDTH 14 0
BBX 13 21 1 -5
BITMAP
07E0
1FF8
3C38
7018
7038
3810
1F80
3F00
7800
E000
E000
E008
E018
F078
7FE0
1F80
0300
0600
0700
07E0
03C0
ENDCHAR
STARTCHAR uni1EBC.ss01
ENCODING -1
SWIDTH 720 0
DWIDTH 14 0
BBX 13 22 1 0
BITMAP
0308
07D8
0CF0
0470
0000
0000
07E0
1FF8
3C38
7018
7038
3810
1F80
3F00
7800
E000
E000
E008
E018
F078
7FE0
1F80
ENDCHAR
STARTCHAR F.ss01
ENCODING -1
SWIDTH 671 0
DWIDTH 13 0
BBX 14 16 1 0
BITMAP
7FFC
7FFC
0C00
0C00
1C00
1C00
1C00
FFE0
FFE0
3800
3800
3800
3800
3800
3000
3000
ENDCHAR
STARTCHAR G.ss01
ENCODING -1
SWIDTH 811 0
DWIDTH 16 0
BBX 14 20 1 -4
BITMAP
03F0
0FF8
1E38
381C
701C
7018
7000
E000
E000
E0FC
E0FC
701C
701C
3C1C
1FFC
07F8
0018
0018
0038
0038
ENDCHAR
STARTCHAR Gbreve.ss01
ENCODING -1
SWIDTH 811 0
DWIDTH 16 0
BBX 14 26 1 -4
BITMAP
0208
071C
03F8
01F0
0000
0000
03F0
0FF8
1E38
381C
701C
7018
7000
E000
E000
E0FC
E0FC
701C
701C
3C1C
1FFC
07F8
0018
0018
0038
0038
ENDCHAR
STARTCHAR Gcaron.ss01
ENCODING -1
SWIDTH 811 0
DWIDTH 16 0
BBX 14 27 1 -4
BITMAP
0318
03B8
01B0
01E0
00C0
0000
0000
03F0
0FF8
1E38
381C
701C
7018
7000
E000
E000
E0FC
E0FC
701C
701C
3C1C
1FFC
07F8
0018
0018
0038
0038
ENDCHAR
STARTCHAR Gcircumflex.ss01
ENCODING -1
SWIDTH 811 0
DWIDTH 16 0
BBX 14 27 1 -4
BITMAP
00E0
01B0
01B0
0330
0338
0000
0000
03F0
0FF8
1E38
381C
701C
7018
7000
E000
E000
E0FC
E0FC
701C
701C
3C1C
1FFC
07F8
0018
0018
0038
0038
ENDCHAR
STARTCHAR uni0122.ss01
ENCODING -1
SWIDTH 811 0
DWIDTH 16 0
BBX 14 21 1 -5
BITMAP
03F0
0FF8
1E38
381C
701C
7018
7000
E000
E000
E0FC
E0FC
701C
701C
3C1C
1FFC
07F8
0018
0318
0338
0338
0200
ENDCHAR
STARTCHAR Gdotaccent.ss01
ENCODING -1
SWIDTH 811 0
DWIDTH 16 0
BBX 14 25 1 -4
BITMAP
00E0
01E0
00E0
0000
0000
03F0
0FF8
1E38
381C
701C
7018
7000
E000
E000
E0FC
E0FC
701C
701C
3C1C
1FFC
07F8
0018
0018
0038
0038
ENDCHAR
STARTCHAR H.ss01
ENCODING -1
SWIDTH 846 0
DWIDTH 17 0
BBX 16 16 1 0
BITMAP
1C0E
1C0E
1C0E
1C0E
180C
380C
381C
FFFF
FFFF
301C
7018
7038
7038
7038
7038
6038
ENDCHAR
STARTCHAR Hbar.ss01
ENCODING -1
SWIDTH 856 0
DWIDTH 17 0
BBX 17 16 1 0
BITMAP
1C0E00
1C0E00
7FFF80
7FFF00
180C00
380C00
381C00
FFFF00
FFFF00
381C00
301C00
701800
703800
703800
703800
703800
ENDCHAR
STARTCHAR Hcircumflex.ss01
ENCODING -1
SWIDTH 846 0
DWIDTH 17 0
BBX 16 23 1 0
BITMAP
00E0
00F0
01B0
03B8
0318
0000
0000
1C0E
1C0E
1C0E
1C0E
180C
380C
381C
FFFF
FFFF
301C
7018
7038
7038
7038
7038
6038
ENDCHAR
STARTCHAR I.ss01
ENCODING -1
SWIDTH 357 0
DWIDTH 7 0
BBX 5 16 2 0
BITMAP
30
38
30
70
70
70
70
70
60
E0
E0
E0
E0
E0
C0
C0
ENDCHAR
STARTCHAR Iacute.ss01
ENCODING -1
SWIDTH 357 0
DWIDTH 7 0
BBX 9 23 2 0
BITMAP
0100
0380
0F00
1E00
1800
0000
0000
3000
3800
3000
7000
7000
7000
7000
7000
6000
E000
E000
E000
E000
E000
C000
C000
ENDCHAR
STARTCHAR Iacute_J.loclNLD.ss01
ENCODING -1
SWIDTH 776 0
DWIDTH 16 0
BBX 17 23 2 0
BITMAP
010100
070380
0F0780
1E0E00
301800
000000
000000
703800
703800
703800
703800
703800
607000
E07000
E0F000
F1F000
7FF000
7F7000
006000
00E000
C1C000
FF8000
7F0000
ENDCHAR
STARTCHAR Ibreve.ss01
ENCODING -1
SWIDTH 357 0
DWIDTH 7 0
BBX 8 22 2 0
BITMAP
82
C7
FE
7C
00
00
30
38
30
70
70
70
70
70
60
E0
E0
E0
E0
E0
C0
C0
ENDCHAR
STARTCHAR Icircumflex.ss01
ENCODING -1
SWIDTH 357 0
DWIDTH 7 0
BBX 7 23 2 0
BITMAP
18
3C
6C
EE
C6
00
00
30
38
30
70
70
70
70
70
60
E0
E0
E0
E0
E0
C0
C0
ENDCHAR
STARTCHAR uni0208.ss01
ENCODING -1
SWIDTH 357 0
DWIDTH 7 0
BBX 7 23 1 0
BITMAP
44
EC
6E
66
26
00
00
18
1C
18
38
38
38
38
38
30
70
70
70
70
70
60
60
ENDCHAR
STARTCHAR Idieresis.ss01
ENCODING -1
SWIDTH 357 0
DWIDTH 7 0
BBX 7 21 2 0
BITMAP
E6
EE
EE
00
00
30
38
30
70
70
70
70
70
60
E0
E0
E0
E0
E0
C0
C0
ENDCHAR
STARTCHAR Idotaccent.ss01
ENCODING -1
SWIDTH 357 0
DWIDTH 7 0
BBX 5 21 2 0
BITMAP
38
38
38
00
00
30
38
30
70
70
70
70
70
60
E0
E0
E0
E0
E0
C0
C0
ENDCHAR
STARTCHAR uni1ECA.ss01
ENCODING -1
SWIDTH 357 0
DWIDTH 7 0
BBX 6 20 1 -4
BITMAP
18
1C
18
38
38
38
38
38
30
70
70
70
70
70
60
60
00
E0
E0
E0
ENDCHAR
STARTCHAR Igrave.ss01
ENCODING -1
SWIDTH 357 0
DWIDTH 7 0
BBX 7 23 0 0
BITMAP
40
E0
F0
38
0C
00
00
0C
0E
0C
1C
1C
1C
1C
1C
18
38
38
38
38
38
30
30
ENDCHAR
STARTCHAR uni1EC8.ss01
ENCODING -1
SWIDTH 357 0
DWIDTH 7 0
BBX 6 23 2 0
BITMAP
3C
3C
0C
3C
38
00
00
30
38
30
70
70
70
70
70
60
E0
E0
E0
E0
E0
C0
C0
ENDCHAR
STARTCHAR uni020A.ss01
ENCODING -1
SWIDTH 357 0
DWIDTH 7 0
BBX 8 22 2 0
BITMAP
7C
FF
C7
00
00
00
30
38
30
70
70
70
70
70
60
E0
E0
E0
E0
E0
C0
C0
ENDCHAR
STARTCHAR Imacron.ss01
ENCODING -1
SWIDTH 357 0
DWIDTH 7 0
BBX 7 20 2 0
BITMAP
FE
FC
00
00
30
38
30
70
70
70
70
70
60
E0
E0
E0
E0
E0
C0
C0
ENDCHAR
STARTCHAR Iogonek.ss01
ENCODING -1
SWIDTH 357 0
DWIDTH 7 0
BBX 7 21 0 -5
BITMAP
0C
0E
0C
1C
1C
1C
1C
1C
18
38
38
38
38
38
30
30
60
60
E0
7C
7C
ENDCHAR
STARTCHAR Itilde.ss01
ENCODING -1
SWIDTH 357 0
DWIDTH 7 0
BBX 9 22 1 0
BITMAP
3080
7D80
EF80
4700
0000
0000
1800
1C00
1800
3800
3800
3800
3800
3800
3000
7000
7000
7000
7000
7000
6000
6000
ENDCHAR
STARTCHAR J.ss01
ENCODING -1
SWIDTH 716 0
DWIDTH 14 0
BBX 13 16 1 0
BITMAP
0FF8
3FF8
7030
6070
6070
6070
6070
0070
0060
0060
00E0
40E0
E0C0
71C0
7F80
1F00
ENDCHAR
STARTCHAR Jcircumflex.ss01
ENCODING -1
SWIDTH 716 0
DWIDTH 14 0
BBX 13 23 1 0
BITMAP
01C0
03E0
0360
0660
0670
0000
0000
0FF8
3FF8
7030
6070
6070
6070
6070
0070
0060
0060
00E0
40E0
E0C0
71C0
7F80
1F00
ENDCHAR
STARTCHAR K.ss01
ENCODING -1
SWIDTH 779 0
DWIDTH 16 0
BBX 15 16 1 0
BITMAP
1C0C
1C1C
181C
3838
3838
3870
39E0
7F80
FF00
7380
71C0
71C0
70E0
70F0
707E
603C
ENDCHAR
STARTCHAR uni0136.ss01
ENCODING -1
SWIDTH 779 0
DWIDTH 16 0
BBX 15 21 1 -5
BITMAP
1C0C
1C1C
181C
3838
3838
3870
39E0
7F80
FF00
7380
71C0
71C0
70E0
70F0
707E
603C
0000
0600
0600
0600
0600
ENDCHAR
STARTCHAR L.ss01
ENCODING -1
SWIDTH 625 0
DWIDTH 13 0
BBX 10 16 2 0
BITMAP
3000
3000
7000
7000
7000
7000
7000
6000
E000
E000
E000
E000
E000
C000
FFC0
FFC0
ENDCHAR
STARTCHAR uni01C7.ss01
ENCODING -1
SWIDTH 1291 0
DWIDTH 26 0
BBX 24 16 2 0
BITMAP
3001FE
300FFF
700E0E
701C0E
70180E
701C0C
700C1C
60001C
E0001C
E0001C
E0001C
E00818
E01838
C01C70
FFCFF0
FFC7C0
ENDCHAR
STARTCHAR Lacute.ss01
ENCODING -1
SWIDTH 625 0
DWIDTH 13 0
BBX 10 23 2 0
BITMAP
0100
0380
0F00
1E00
1800
0000
0000
3000
3000
7000
7000
7000
7000
7000
6000
E000
E000
E000
E000
E000
C000
FFC0
FFC0
ENDCHAR
STARTCHAR Lcaron.ss01
ENCODING -1
SWIDTH 625 0
DWIDTH 13 0
BBX 10 18 2 0
BITMAP
0080
00C0
30C0
30C0
7080
7000
7000
7000
7000
6000
E000
E000
E000
E000
E000
C000
FFC0
FFC0
ENDCHAR
STARTCHAR uni013B.ss01
ENCODING -1
SWIDTH 625 0
DWIDTH 13 0
BBX 10 21 2 -5
BITMAP
3000
3000
7000
7000
7000
7000
7000
6000
E000
E000
E000
E000
E000
C000
FFC0
FFC0
0000
0C00
1C00
1800
1800
ENDCHAR
STARTCHAR Ldot.ss01
ENCODING -1
SWIDTH 625 0
DWIDTH 13 0
BBX 10 16 2 0
BITMAP
3000
3000
7000
7000
7000
7000
7000
6180
E3C0
E380
E000
E000
E000
C000
FFC0
FFC0
ENDCHAR
STARTCHAR uni01C8.ss01
ENCODING -1
SWIDTH 854 0
DWIDTH 17 0
BBX 16 25 2 -9
BITMAP
3000
3000
7000
7006
700F
700E
7000
600E
E00E
E00E
E00C
E00C
E00C
C00C
FFDC
FFDC
0038
0078
00D8
01B8
01B0
0330
0370
03E0
01C0
ENDCHAR
STARTCHAR Lslash.ss01
ENCODING -1
SWIDTH 625 0
DWIDTH 13 0
BBX 12 16 0 0
BITMAP
0C00
0C00
1C00
1C40
1DC0
1F80
1E00
7C00
F800
7800
3800
3800
3800
3000
3FF0
3FF0
ENDCHAR
STARTCHAR M.ss01
ENCODING -1
SWIDTH 1139 0
DWIDTH 23 0
BBX 20 16 2 0
BITMAP
31E1E0
37E7F0
767670
7C7C70
787870
787870
707060
7070E0
F070E0
E0E0E0
E0E0E0
E0E0E0
E0E1C0
E0E1C0
C0C1C0
C0C1C0
ENDCHAR
STARTCHAR N.ss01
ENCODING -1
SWIDTH 799 0
DWIDTH 16 0
BBX 13 16 2 0
BITMAP
31F0
73F8
7638
7C38
7838
7838
7038
7030
F070
E070
E070
E070
E070
E060
C0E0
C060
ENDCHAR
STARTCHAR uni01CA.ss01
ENCODING -1
SWIDTH 1515 0
DWIDTH 30 0
BBX 28 16 2 0
BITMAP
31F01FF0
73F87FF0
7638E060
7C38C0E0
7838C0E0
7838C0E0
7038C0E0
703000E0
F07000C0
E07000C0
E07001C0
E07081C0
E071C180
E060E380
C0E0FF00
C0603E00
ENDCHAR
STARTCHAR Nacute.ss01
ENCODING -1
SWIDTH 799 0
DWIDTH 16 0
BBX 13 23 2 0
BITMAP
0010
0038
0078
00E0
0180
0000
0000
31F0
73F8
7638
7C38
7838
7838
7038
7030
F070
E070
E070
E070
E070
E060
C0E0
C060
ENDCHAR
STARTCHAR Ncaron.ss01
ENCODING -1
SWIDTH 799 0
DWIDTH 16 0
BBX 13 23 2 0
BITMAP
0630
0660
03E0
03C0
0180
0000
0000
31F0
73F8
7638
7C38
7838
7838
7038
7030
F070
E070
E070
E070
E070
E060
C0E0
C060
ENDCHAR
STARTCHAR uni0145.ss01
ENCODING -1
SWIDTH 799 0
DWIDTH 16 0
BBX 13 21 2 -5
BITMAP
31F0
73F8
7638
7C38
7838
7838
7038
7030
F070
E070
E070
E070
E070
E060
C0E0
C060
0000
0C00
0C00
0C00
0C00
ENDCHAR
STARTCHAR Eng.ss01
ENCODING -1
SWIDTH 792 0
DWIDTH 16 0
BBX 13 23 2 -7
BITMAP
31F0
33F8
7638
7C38
7C38
7838
7030
7070
F070
E070
E060
E0E0
E0E0
E0E0
C0E0
C0C0
01C0
01C0
0180
C380
E700
FE00
3C00
ENDCHAR
STARTCHAR uni01CB.ss01
ENCODING -1
SWIDTH 1008 0
DWIDTH 20 0
BBX 19 25 2 -9
BITMAP
31F000
73F800
763800
7C38C0
7839E0
7839C0
703800
7031C0
F071C0
E071C0
E07180
E07180
E07180
E06180
C0E380
C06380
000300
000F00
001B00
003300
003600
006600
006E00
007C00
003800
ENDCHAR
STARTCHAR Ntilde.ss01
ENCODING -1
SWIDTH 799 0
DWIDTH 16 0
BBX 13 22 2 0
BITMAP
0710
0FB0
0DF0
08E0
0000
0000
31F0
73F8
7638
7C38
7838
7838
7038
7030
F070
E070
E070
E070
E070
E060
C0E0
C060
ENDCHAR
STARTCHAR OE.ss01
ENCODING -1
SWIDTH 1166 0
DWIDTH 23 0
BBX 23 16 1 0
BITMAP
03E1FE
0FFBFE
1E3F00
381F00
700F00
700F00
700E00
E00FF8
E00FF8
E00E00
E01E00
701E00
703E00
787F04
3FE7FC
0F81F8
ENDCHAR
STARTCHAR P.ss01
ENCODING -1
SWIDTH 662 0
DWIDTH 13 0
BBX 12 16 1 0
BITMAP
1F80
7FE0
7CF0
1C70
1C70
1870
3870
3870
39E0
FFC0
FF00
7000
7000
7000
7000
7000
ENDCHAR
STARTCHAR Thorn.ss01
ENCODING -1
SWIDTH 658 0
DWIDTH 13 0
BBX 12 16 1 0
BITMAP
1C00
1C00
1F80
7FE0
78E0
3870
3870
3870
38E0
31E0
FFC0
FF00
7000
7000
7000
7000
ENDCHAR
STARTCHAR Q.ss01
ENCODING -1
SWIDTH 816 0
DWIDTH 16 0
BBX 15 22 1 -6
BITMAP
03E0
0FF8
1E3C
381C
700E
700E
700E
E00E
E00E
E00E
E01C
E01C
7038
7878
3FF0
1FC0
0380
01C0
00E0
00F0
0070
0020
ENDCHAR
STARTCHAR R.ss01
ENCODING -1
SWIDTH 744 0
DWIDTH 15 0
BBX 13 16 2 0
BITMAP
3F00
FFC0
F9E0
38E0
30E0
30E0
71C0
73C0
FF00
FE00
6700
E780
E380
E3C0
E1F8
E0F0
ENDCHAR
STARTCHAR Racute.ss01
ENCODING -1
SWIDTH 744 0
DWIDTH 15 0
BBX 13 23 2 0
BITMAP
0020
0070
00E0
03C0
0300
0000
0000
3F00
FFC0
F9E0
38E0
30E0
30E0
71C0
73C0
FF00
FE00
6700
E780
E380
E3C0
E1F8
E0F0
ENDCHAR
STARTCHAR Rcaron.ss01
ENCODING -1
SWIDTH 744 0
DWIDTH 15 0
BBX 13 23 2 0
BITMAP
0CC0
0CC0
0D80
0780
0700
0000
0000
3F00
FFC0
F9E0
38E0
30E0
30E0
71C0
73C0
FF00
FE00
6700
E780
E380
E3C0
E1F8
E0F0
ENDCHAR
STARTCHAR uni0156.ss01
ENCODING -1
SWIDTH 744 0
DWIDTH 15 0
BBX 13 21 2 -5
BITMAP
3F00
FFC0
F9E0
38E0
30E0
30E0
71C0
73C0
FF00
FE00
6700
E780
E380
E3C0
E1F8
E0F0
0000
0C00
0C00
0C00
0800
ENDCHAR
STARTCHAR uni0210.ss01
ENCODING -1
SWIDTH 744 0
DWIDTH 15 0
BBX 13 23 2 0
BITMAP
1100
3B00
1B80
1980
0C80
0000
0000
3F00
FFC0
F9E0
38E0
30E0
30E0
71C0
73C0
FF00
FE00
6700
E780
E380
E3C0
E1F8
E0F0
ENDCHAR
STARTCHAR uni0212.ss01
ENCODING -1
SWIDTH 744 0
DWIDTH 15 0
BBX 13 22 2 0
BITMAP
0FC0
1FE0
18E0
0000
0000
0000
3F00
FFC0
F9E0
38E0
30E0
30E0
71C0
73C0
FF00
FE00
6700
E780
E380
E3C0
E1F8
E0F0
ENDCHAR
STARTCHAR T.ss01
ENCODING -1
SWIDTH 631 0
DWIDTH 13 0
BBX 14 16 1 0
BITMAP
7FFC
FFFC
0700
0700
0700
0700
0600
0E00
0E00
0E00
0E00
0E00
0C00
1C00
1C00
0C00
ENDCHAR
STARTCHAR Tbar.ss01
ENCODING -1
SWIDTH 631 0
DWIDTH 13 0
BBX 14 16 1 0
BITMAP
7FFC
FFFC
0700
0700
0700
0700
0600
7FE0
7FE0
0E00
0E00
0E00
0C00
1C00
1C00
0C00
ENDCHAR
STARTCHAR Tcaron.ss01
ENCODING -1
SWIDTH 631 0
DWIDTH 13 0
BBX 14 23 1 0
BITMAP
0C60
0660
06C0
03C0
0380
0000
0000
7FFC
FFFC
0700
0700
0700
0700
0600
0E00
0E00
0E00
0E00
0E00
0C00
1C00
1C00
0C00
ENDCHAR
STARTCHAR uni0162.ss01
ENCODING -1
SWIDTH 631 0
DWIDTH 13 0
BBX 14 21 1 -5
BITMAP
7FFC
FFFC
0700
0700
0700
0700
0600
0E00
0E00
0E00
0E00
0E00
0C00
1C00
1C00
1C00
3E00
0600
0600
7E00
7C00
ENDCHAR
STARTCHAR uni021A.ss01
ENCODING -1
SWIDTH 631 0
DWIDTH 13 0
BBX 14 21 1 -5
BITMAP
7FFC
FFFC
0700
0700
0700
0700
0600
0E00
0E00
0E00
0E00
0E00
0C00
1C00
1C00
0C00
0000
0C00
1C00
1800
1800
ENDCHAR
STARTCHAR U.ss01
ENCODING -1
SWIDTH 800 0
DWIDTH 16 0
BBX 13 16 2 0
BITMAP
3018
3818
7038
7038
7038
7038
7078
6078
E070
E0F0
E0F0
E1F0
E3F0
F770
FE60
7C60
ENDCHAR
STARTCHAR Uacute.ss01
ENCODING -1
SWIDTH 800 0
DWIDTH 16 0
BBX 13 23 2 0
BITMAP
0010
0038
0078
00E0
0180
0000
0000
3018
3818
7038
7038
7038
7038
7078
6078
E070
E0F0
E0F0
E1F0
E3F0
F770
FE60
7C60
ENDCHAR
STARTCHAR Ubreve.ss01
ENCODING -1
SWIDTH 800 0
DWIDTH 16 0
BBX 13 22 2 0
BITMAP
0410
0E30
0FF0
03C0
0000
0000
3018
3818
7038
7038
7038
7038
7078
6078
E070
E0F0
E0F0
E1F0
E3F0
F770
FE60
7C60
ENDCHAR
STARTCHAR Ucircumflex.ss01
ENCODING -1
SWIDTH 800 0
DWIDTH 16 0
BBX 13 23 2 0
BITMAP
01C0
03C0
0760
0660
0C60
0000
0000
3018
3818
7038
7038
7038
7038
7078
6078
E070
E0F0
E0F0
E1F0
E3F0
F770
FE60
7C60
ENDCHAR
STARTCHAR uni0214.ss01
ENCODING -1
SWIDTH 800 0
DWIDTH 16 0
BBX 13 23 2 0
BITMAP
0880
0DC0
0CC0
06C0
0640
0000
0000
3018
3818
7038
7038
7038
7038
7078
6078
E070
E0F0
E0F0
E1F0
E3F0
F770
FE60
7C60
ENDCHAR
STARTCHAR Udieresis.ss01
ENCODING -1
SWIDTH 800 0
DWIDTH 16 0
BBX 13 21 2 0
BITMAP
0660
0E70
0660
0000
0000
3018
3818
7038
7038
7038
7038
7078
6078
E070
E0F0
E0F0
E1F0
E3F0
F770
FE60
7C60
ENDCHAR
STARTCHAR uni1EE4.ss01
ENCODING -1
SWIDTH 800 0
DWIDTH 16 0
BBX 13 20 2 -4
BITMAP
3018
3818
7038
7038
7038
7038
7078
6078
E070
E0F0
E0F0
E1F0
E3F0
F770
FE60
7C60
0000
0E00
1E00
0E00
ENDCHAR
STARTCHAR Ugrave.ss01
ENCODING -1
SWIDTH 800 0
DWIDTH 16 0
BBX 13 23 2 0
BITMAP
1000
3800
1E00
0F00
0300
0000
0000
3018
3818
7038
7038
7038
7038
7078
6078
E070
E0F0
E0F0
E1F0
E3F0
F770
FE60
7C60
ENDCHAR
STARTCHAR uni1EE6.ss01
ENCODING -1
SWIDTH 800 0
DWIDTH 16 0
BBX 13 23 2 0
BITMAP
03C0
03E0
0060
01E0
01C0
0000
0000
3018
3818
7038
7038
7038
7038
7078
6078
E070
E0F0
E0F0
E1F0
E3F0
F770
FE60
7C60
ENDCHAR
STARTCHAR Uhorn.ss01
ENCODING -1
SWIDTH 800 0
DWIDTH 16 0
BBX 16 20 2 0
BITMAP
0001
0003
0003
0007
301E
381C
7038
7038
7038
7038
7078
6070
E070
E0F0
E0F0
E1F0
E3F0
F770
FE60
7C60
ENDCHAR
STARTCHAR uni1EE8.ss01
ENCODING -1
SWIDTH 800 0
DWIDTH 16 0
BBX 16 23 2 0
BITMAP
0010
0038
0078
00E1
0183
0003
0007
301E
381C
7038
7038
7038
7038
7078
6070
E070
E0F0
E0F0
E1F0
E3F0
F770
FE60
7C60
ENDCHAR
STARTCHAR uni1EF0.ss01
ENCODING -1
SWIDTH 800 0
DWIDTH 16 0
BBX 16 24 2 -4
BITMAP
0001
0003
0003
0007
301E
381C
7038
7038
7038
7038
7078
6070
E070
E0F0
E0F0
E1F0
E3F0
F770
FE60
7C60
0000
0E00
1E00
0E00
ENDCHAR
STARTCHAR uni1EEA.ss01
ENCODING -1
SWIDTH 800 0
DWIDTH 16 0
BBX 16 23 2 0
BITMAP
1000
3800
1E00
0F01
0303
0003
0007
301E
381C
7038
7038
7038
7038
7078
6070
E070
E0F0
E0F0
E1F0
E3F0
F770
FE60
7C60
ENDCHAR
STARTCHAR uni1EEC.ss01
ENCODING -1
SWIDTH 800 0
DWIDTH 16 0
BBX 16 23 2 0
BITMAP
03C0
03E0
0060
01E1
01C3
0003
0007
301E
381C
7038
7038
7038
7038
7078
6070
E070
E0F0
E0F0
E1F0
E3F0
F770
FE60
7C60
ENDCHAR
STARTCHAR uni1EEE.ss01
ENCODING -1
SWIDTH 800 0
DWIDTH 16 0
BBX 16 22 2 0
BITMAP
0710
0FB8
0DF1
0863
0003
0007
301E
381C
7038
7038
7038
7038
7078
6070
E070
E0F0
E0F0
E1F0
E3F0
F770
FE60
7C60
ENDCHAR
STARTCHAR Uhungarumlaut.ss01
ENCODING -1
SWIDTH 800 0
DWIDTH 16 0
BBX 13 23 2 0
BITMAP
0120
0330
0370
0760
0660
0000
0000
3018
3818
7038
7038
7038
7038
7078
6078
E070
E0F0
E0F0
E1F0
E3F0
F770
FE60
7C60
ENDCHAR
STARTCHAR uni0216.ss01
ENCODING -1
SWIDTH 800 0
DWIDTH 16 0
BBX 13 22 2 0
BITMAP
03E0
0FF0
0C30
0000
0000
0000
3018
3818
7038
7038
7038
7038
7078
6078
E070
E0F0
E0F0
E1F0
E3F0
F770
FE60
7C60
ENDCHAR
STARTCHAR Umacron.ss01
ENCODING -1
SWIDTH 800 0
DWIDTH 16 0
BBX 13 20 2 0
BITMAP
07E0
07E0
0000
0000
3018
3818
7038
7038
7038
7038
7078
6078
E070
E0F0
E0F0
E1F0
E3F0
F770
FE60
7C60
ENDCHAR
STARTCHAR Uogonek.ss01
ENCODING -1
SWIDTH 800 0
DWIDTH 16 0
BBX 13 21 2 -5
BITMAP
3018
3818
7038
7038
7038
7038
7078
6078
E070
E0F0
E0F0
E1F0
E3F0
F770
FE60
7C60
00C0
00C0
01C0
00F8
0070
ENDCHAR
STARTCHAR Uring.ss01
ENCODING -1
SWIDTH 800 0
DWIDTH 16 0
BBX 13 24 2 0
BITMAP
01C0
03E0
0660
0660
03C0
01C0
0000
0000
3018
3818
7038
7038
7038
7038
7078
6078
E070
E0F0
E0F0
E1F0
E3F0
F770
FE60
7C60
ENDCHAR
STARTCHAR Utilde.ss01
ENCODING -1
SWIDTH 800 0
DWIDTH 16 0
BBX 13 22 2 0
BITMAP
0710
0FB8
0DF0
0860
0000
0000
3018
3818
7038
7038
7038
7038
7078
6078
E070
E0F0
E0F0
E1F0
E3F0
F770
FE60
7C60
ENDCHAR
STARTCHAR V.ss01
ENCODING -1
SWIDTH 797 0
DWIDTH 16 0
BBX 14 16 2 0
BITMAP
700C
701C
701C
701C
7018
6038
E038
E030
E070
6070
70E0
70E0
71C0
7F80
3F00
1E00
ENDCHAR
STARTCHAR W.ss01
ENCODING -1
SWIDTH 1236 0
DWIDTH 25 0
BBX 23 16 2 0
BITMAP
70180E
70380E
70380E
70380E
60381C
60781C
E0781C
E07838
E0F838
60F830
60F870
71B860
7398E0
7F1FC0
3E1F80
1C0F00
ENDCHAR
STARTCHAR Wacute.ss01
ENCODING -1
SWIDTH 1236 0
DWIDTH 25 0
BBX 23 23 2 0
BITMAP
000080
000380
000780
000E00
001800
000000
000000
70180E
70380E
70380E
70380E
60381C
60781C
E0781C
E07838
E0F838
60F830
60F870
71B860
7398E0
7F1FC0
3E1F80
1C0F00
ENDCHAR
STARTCHAR Wcircumflex.ss01
ENCODING -1
SWIDTH 1236 0
DWIDTH 25 0
BBX 23 23 2 0
BITMAP
001C00
003E00
003600
006700
006200
000000
000000
70180E
70380E
70380E
70380E
60381C
60781C
E0781C
E07838
E0F838
60F830
60F870
71B860
7398E0
7F1FC0
3E1F80
1C0F00
ENDCHAR
STARTCHAR Wdieresis.ss01
ENCODING -1
SWIDTH 1236 0
DWIDTH 25 0
BBX 23 21 2 0
BITMAP
007700
007700
006700
000000
000000
70180E
70380E
70380E
70380E
60381C
60781C
E0781C
E07838
E0F838
60F830
60F870
71B860
7398E0
7F1FC0
3E1F80
1C0F00
ENDCHAR
STARTCHAR Wgrave.ss01
ENCODING -1
SWIDTH 1236 0
DWIDTH 25 0
BBX 23 23 2 0
BITMAP
010000
01C000
01E000
007000
001800
000000
000000
70180E
70380E
70380E
70380E
60381C
60781C
E0781C
E07838
E0F838
60F830
60F870
71B860
7398E0
7F1FC0
3E1F80
1C0F00
ENDCHAR
STARTCHAR X.ss01
ENCODING -1
SWIDTH 677 0
DWIDTH 14 0
BBX 16 16 -1 0
BITMAP
0C07
0E0F
0E1E
071C
0738
03F0
03E0
01C0
03C0
07E0
0EE0
1C70
3C70
7838
F038
E018
ENDCHAR
STARTCHAR Y.ss01
ENCODING -1
SWIDTH 776 0
DWIDTH 16 0
BBX 13 16 2 0
BITMAP
7038
7038
7038
7038
7038
6070
E070
E0F0
F1F0
7FF0
7F70
0060
00E0
C1C0
FF80
7F00
ENDCHAR
STARTCHAR Yacute.ss01
ENCODING -1
SWIDTH 776 0
DWIDTH 16 0
BBX 13 23 2 0
BITMAP
0010
0070
00F0
01E0
0300
0000
0000
7038
7038
7038
7038
7038
6070
E070
E0F0
F1F0
7FF0
7F70
0060
00E0
C1C0
FF80
7F00
ENDCHAR
STARTCHAR Ycircumflex.ss01
ENCODING -1
SWIDTH 776 0
DWIDTH 16 0
BBX 13 23 2 0
BITMAP
0380
03C0
06C0
0EE0
0C60
0000
0000
7038
7038
7038
7038
7038
6070
E070
E0F0
F1F0
7FF0
7F70
0060
00E0
C1C0
FF80
7F00
ENDCHAR
STARTCHAR Ydieresis.ss01
ENCODING -1
SWIDTH 776 0
DWIDTH 16 0
BBX 13 21 2 0
BITMAP
0EE0
0EE0
0EE0
0000
0000
7038
7038
7038
7038
7038
6070
E070
E0F0
F1F0
7FF0
7F70
0060
00E0
C1C0
FF80
7F00
ENDCHAR
STARTCHAR uni1EF4.ss01
ENCODING -1
SWIDTH 776 0
DWIDTH 16 0
BBX 13 20 2 -4
BITMAP
7038
7038
7038
7038
7038
6070
E070
E0F0
F1F0
7FF0
7F70
0060
00E0
C1C0
FF80
7F00
0000
1C00
1C00
1C00
ENDCHAR
STARTCHAR Ygrave.ss01
ENCODING -1
SWIDTH 776 0
DWIDTH 16 0
BBX 13 23 2 0
BITMAP
1000
3800
3C00
0E00
0300
0000
0000
7038
7038
7038
7038
7038
6070
E070
E0F0
F1F0
7FF0
7F70
0060
00E0
C1C0
FF80
7F00
ENDCHAR
STARTCHAR uni1EF6.ss01
ENCODING -1
SWIDTH 776 0
DWIDTH 16 0
BBX 13 23 2 0
BITMAP
03C0
03C0
00C0
03C0
0380
0000
0000
7038
7038
7038
7038
7038
6070
E070
E0F0
F1F0
7FF0
7F70
0060
00E0
C1C0
FF80
7F00
ENDCHAR
STARTCHAR uni0232.ss01
ENCODING -1
SWIDTH 776 0
DWIDTH 16 0
BBX 13 20 2 0
BITMAP
0FE0
0FC0
0000
0000
7038
7038
7038
7038
7038
6070
E070
E0F0
F1F0
7FF0
7F70
0060
00E0
C1C0
FF80
7F00
ENDCHAR
STARTCHAR uni1EF8.ss01
ENCODING -1
SWIDTH 776 0
DWIDTH 16 0
BBX 13 22 2 0
BITMAP
0E10
0FB0
19E0
08E0
0000
0000
7038
7038
7038
7038
7038
6070
E070
E0F0
F1F0
7FF0
7F70
0060
00E0
C1C0
FF80
7F00
ENDCHAR
STARTCHAR Z.ss01
ENCODING -1
SWIDTH 665 0
DWIDTH 13 0
BBX 14 16 0 0
BITMAP
3FF8
3FFC
0038
0078
00F0
00E0
01C0
03C0
0780
0F00
0E00
1C00
3C00
7800
FFF8
FFF8
ENDCHAR
STARTCHAR Zacute.ss01
ENCODING -1
SWIDTH 665 0
DWIDTH 13 0
BBX 14 23 0 0
BITMAP
0008
001C
003C
00F0
00C0
0000
0000
3FF8
3FFC
0038
0078
00F0
00E0
01C0
03C0
0780
0F00
0E00
1C00
3C00
7800
FFF8
FFF8
ENDCHAR
STARTCHAR Zcaron.ss01
ENCODING -1
SWIDTH 665 0
DWIDTH 13 0
BBX 14 23 0 0
BITMAP
0318
0330
0370
01E0
00C0
0000
0000
3FF8
3FFC
0038
0078
00F0
00E0
01C0
03C0
0780
0F00
0E00
1C00
3C00
7800
FFF8
FFF8
ENDCHAR
STARTCHAR Zdotaccent.ss01
ENCODING -1
SWIDTH 665 0
DWIDTH 13 0
BBX 14 21 0 0
BITMAP
01C0
01E0
01C0
0000
0000
3FF8
3FFC
0038
0078
00F0
00E0
01C0
03C0
0780
0F00
0E00
1C00
3C00
7800
FFF8
FFF8
ENDCHAR
STARTCHAR i.loclTRK
ENCODING -1
SWIDTH 246 0
DWIDTH 5 0
BBX 7 13 1 0
BITMAP
70
70
70
00
60
60
E0
E0
E0
C6
CC
F8
70
ENDCHAR
STARTCHAR a.fina
ENCODING -1
SWIDTH 458 0
DWIDTH 9 0
BBX 8 9 1 0
BITMAP
1C
3F
77
E6
C6
CE
CE
FE
76
ENDCHAR
STARTCHAR aacute.fina
ENCODING -1
SWIDTH 458 0
DWIDTH 9 0
BBX 9 16 1 0
BITMAP
0180
0380
0300
0700
0600
0C00
0000
1C00
3F00
7700
E600
C600
CE00
CE00
FE00
7600
ENDCHAR
STARTCHAR abreve.fina
ENCODING -1
SWIDTH 458 0
DWIDTH 9 0
BBX 10 15 1 0
BITMAP
2080
71C0
7180
3F80
1E00
0000
1C00
3F00
7700
E600
C600
CE00
CE00
FE00
7600
ENDCHAR
STARTCHAR uni1EAF.fina
ENCODING -1
SWIDTH 458 0
DWIDTH 9 0
BBX 10 16 1 0
BITMAP
0180
0780
2480
71C0
3F80
1F00
0000
1C00
3F00
7700
E600
C600
CE00
CE00
FE00
7600
ENDCHAR
STARTCHAR uni1EB7.fina
ENCODING -1
SWIDTH 458 0
DWIDTH 9 0
BBX 10 19 1 -4
BITMAP
2080
71C0
7180
3F80
1E00
0000
1C00
3F00
7700
E600
C600
CE00
CE00
FE00
7600
0000
3000
7800
7000
ENDCHAR
STARTCHAR uni1EB1.fina
ENCODING -1
SWIDTH 458 0
DWIDTH 9 0
BBX 10 16 1 0
BITMAP
1800
1C00
0400
71C0
3F80
1F00
0000
1C00
3F00
7700
E600
C600
CE00
CE00
FE00
7600
ENDCHAR
STARTCHAR uni1EB3.fina
ENCODING -1
SWIDTH 458 0
DWIDTH 9 0
BBX 10 17 1 0
BITMAP
0E00
0300
0300
0E00
71C0
3F80
1F00
0000
1C00
3F00
7700
E600
C600
CE00
CE00
FE00
7600
ENDCHAR
STARTCHAR uni1EB5.fina
ENCODING -1
SWIDTH 458 0
DWIDTH 9 0
BBX 10 18 1 0
BITMAP
0800
1CC0
3FC0
3380
2080
71C0
3F80
1F00
0000
1C00
3F00
7700
E600
C600
CE00
CE00
FE00
7600
ENDCHAR
STARTCHAR acircumflex.fina
ENCODING -1
SWIDTH 458 0
DWIDTH 9 0
BBX 9 17 1 0
BITMAP
0200
0E00
0F00
1B00
1B00
3380
3300
0000
1C00
3F00
7700
E600
C600
CE00
CE00
FE00
7600
ENDCHAR
STARTCHAR uni1EA5.fina
ENCODING -1
SWIDTH 458 0
DWIDTH 9 0
BBX 11 17 1 0
BITMAP
0020
0060
00E0
0E80
1F00
3B00
3180
0000
1C00
3F00
7700
E600
C600
CE00
CE00
FE00
7600
ENDCHAR
STARTCHAR uni1EAD.fina
ENCODING -1
SWIDTH 458 0
DWIDTH 9 0
BBX 9 21 1 -4
BITMAP
0200
0E00
0F00
1B00
1B00
3380
3300
0000
1C00
3F00
7700
E600
C600
CE00
CE00
FE00
7600
0000
3000
7800
7000
ENDCHAR
STARTCHAR uni1EA7.fina
ENCODING -1
SWIDTH 458 0
DWIDTH 9 0
BBX 9 17 1 0
BITMAP
4000
E000
7000
1E00
1F00
3B00
3180
0000
1C00
3F00
7700
E600
C600
CE00
CE00
FE00
7600
ENDCHAR
STARTCHAR uni1EA9.fina
ENCODING -1
SWIDTH 458 0
DWIDTH 9 0
BBX 12 16 1 0
BITMAP
00E0
0030
0030
0EE0
1B00
3380
0000
1C00
3F00
7700
E600
C600
CE00
CE00
FE00
7600
ENDCHAR
STARTCHAR uni1EAB.fina
ENCODING -1
SWIDTH 458 0
DWIDTH 9 0
BBX 10 17 1 0
BITMAP
1CC0
3F80
3300
0E00
1F00
3B00
3180
0000
1C00
3F00
7700
E600
C600
CE00
CE00
FE00
7600
ENDCHAR
STARTCHAR uni0201.fina
ENCODING -1
SWIDTH 458 0
DWIDTH 9 0
BBX 8 16 1 0
BITMAP
6C
EE
6E
76
33
13
00
1C
3F
77
E6
C6
CE
CE
FE
76
ENDCHAR
STARTCHAR adieresis.fina
ENCODING -1
SWIDTH 458 0
DWIDTH 9 0
BBX 9 13 1 0
BITMAP
3B80
3B80
3380
0000
1C00
3F00
7700
E600
C600
CE00
CE00
FE00
7600
ENDCHAR
STARTCHAR uni1EA1.fina
ENCODING -1
SWIDTH 458 0
DWIDTH 9 0
BBX 8 13 1 -4
BITMAP
1C
3F
77
E6
C6
CE
CE
FE
76
00
30
78
70
ENDCHAR
STARTCHAR agrave.fina
ENCODING -1
SWIDTH 458 0
DWIDTH 9 0
BBX 8 16 1 0
BITMAP
30
30
38
18
0C
0C
00
1C
3F
77
E6
C6
CE
CE
FE
76
ENDCHAR
STARTCHAR uni1EA3.fina
ENCODING -1
SWIDTH 458 0
DWIDTH 9 0
BBX 8 16 1 0
BITMAP
0E
1F
03
03
0F
0E
00
1C
3F
77
E6
C6
CE
CE
FE
76
ENDCHAR
STARTCHAR uni0203.fina
ENCODING -1
SWIDTH 458 0
DWIDTH 9 0
BBX 10 15 1 0
BITMAP
1F00
3F80
3180
61C0
0000
0000
1C00
3F00
7700
E600
C600
CE00
CE00
FE00
7600
ENDCHAR
STARTCHAR amacron.fina
ENCODING -1
SWIDTH 458 0
DWIDTH 9 0
BBX 8 12 1 0
BITMAP
3F
3F
00
1C
3F
77
E6
C6
CE
CE
FE
76
ENDCHAR
STARTCHAR aogonek.fina
ENCODING -1
SWIDTH 458 0
DWIDTH 9 0
BBX 9 14 1 -5
BITMAP
1C00
3F00
7700
E600
C600
CE00
CE00
FE00
7E00
0C00
1800
1C00
0F80
0700
ENDCHAR
STARTCHAR aring.fina
ENCODING -1
SWIDTH 458 0
DWIDTH 9 0
BBX 8 16 1 0
BITMAP
0E
1F
1B
1B
1F
0E
00
1C
3F
77
E6
C6
CE
CE
FE
76
ENDCHAR
STARTCHAR aringacute.fina
ENCODING -1
SWIDTH 458 0
DWIDTH 9 0
BBX 12 18 1 0
BITMAP
0010
0030
0EF0
1F40
1B00
1B00
1F00
0E00
0000
1C00
3F00
7700
E600
C600
CE00
CE00
FE00
7600
ENDCHAR
STARTCHAR atilde.fina
ENCODING -1
SWIDTH 458 0
DWIDTH 9 0
BBX 10 14 1 0
BITMAP
3880
3CC0
6F80
4300
0000
1C00
3F00
7700
E600
C600
CE00
CE00
FE00
7600
ENDCHAR
STARTCHAR ae.fina
ENCODING -1
SWIDTH 671 0
DWIDTH 13 0
BBX 13 9 1 0
BITMAP
1DE0
3FF0
7330
E630
C6E0
C7C8
CF18
FBF0
71E0
ENDCHAR
STARTCHAR aeacute.fina
ENCODING -1
SWIDTH 671 0
DWIDTH 13 0
BBX 13 16 1 0
BITMAP
0060
0060
00E0
00C0
0180
0180
0000
1DE0
3FF0
7330
E630
C6E0
C7C8
CF18
FBF0
71E0
ENDCHAR
STARTCHAR b.fina
ENCODING -1
SWIDTH 475 0
DWIDTH 10 0
BBX 8 18 1 0
BITMAP
0E
1E
3B
33
72
66
66
6C
E8
FC
FE
E7
E3
E3
E7
67
7E
3C
ENDCHAR
STARTCHAR c.fina
ENCODING -1
SWIDTH 404 0
DWIDTH 8 0
BBX 7 9 1 0
BITMAP
3C
7C
EC
CC
C0
C2
E6
FE
7C
ENDCHAR
STARTCHAR cacute.fina
ENCODING -1
SWIDTH 404 0
DWIDTH 8 0
BBX 8 16 1 0
BITMAP
03
07
06
0E
0C
08
00
3C
7C
EC
CC
C0
C2
E6
FE
7C
ENDCHAR
STARTCHAR ccaron.fina
ENCODING -1
SWIDTH 404 0
DWIDTH 8 0
BBX 8 17 1 0
BITMAP
21
33
33
36
36
1C
18
00
3C
7C
EC
CC
C0
C2
E6
FE
7C
ENDCHAR
STARTCHAR ccedilla.fina
ENCODING -1
SWIDTH 404 0
DWIDTH 8 0
BBX 7 14 1 -5
BITMAP
3C
7C
EC
CC
C0
C2
E2
FE
7C
7C
0C
0C
F8
F0
ENDCHAR
STARTCHAR ccircumflex.fina
ENCODING -1
SWIDTH 404 0
DWIDTH 8 0
BBX 8 17 1 0
BITMAP
04
1C
1E
36
36
67
62
00
3C
7C
EC
CC
C0
C2
E6
FE
7C
ENDCHAR
STARTCHAR cdotaccent.fina
ENCODING -1
SWIDTH 404 0
DWIDTH 8 0
BBX 7 13 1 0
BITMAP
1C
1C
1C
00
3C
7C
EC
CC
C0
C2
E6
FE
7C
ENDCHAR
STARTCHAR d.fina
ENCODING -1
SWIDTH 493 0
DWIDTH 10 0
BBX 11 18 1 0
BITMAP
00C0
01E0
03E0
0360
0360
0760
0760
0640
06C0
1E80
3F80
7700
E700
C600
C600
CF00
FF00
7300
ENDCHAR
STARTCHAR dcaron.fina
ENCODING -1
SWIDTH 458 0
DWIDTH 9 0
BBX 12 18 1 0
BITMAP
0030
0030
01B0
01B0
03A0
0380
0380
0300
0300
1F00
3F00
7700
E600
C600
CE00
CE00
FE00
7600
ENDCHAR
STARTCHAR dcroat.fina
ENCODING -1
SWIDTH 458 0
DWIDTH 9 0
BBX 10 16 1 0
BITMAP
0180
0380
0380
3FC0
3FC0
0300
0300
1F00
3F00
7700
E600
C600
CE00
CE00
FE00
7600
ENDCHAR
STARTCHAR uni01C6.fina
ENCODING -1
SWIDTH 876 0
DWIDTH 18 0
BBX 18 24 1 -8
BITMAP
0198C0
019980
039D80
038F00
038E00
030600
032080
1F7F80
3F7F80
770700
E60C00
C63800
CE7000
CEFC00
FFDC00
738E00
001E00
003600
006E00
00CE00
00CC00
00DC00
00F800
00E000
ENDCHAR
STARTCHAR e.fina
ENCODING -1
SWIDTH 411 0
DWIDTH 8 0
BBX 8 9 1 0
BITMAP
3C
7E
E6
CE
DC
F1
E7
FE
3C
ENDCHAR
STARTCHAR eacute.fina
ENCODING -1
SWIDTH 411 0
DWIDTH 8 0
BBX 8 16 1 0
BITMAP
03
07
06
0E
0C
08
00
3C
7E
E6
CE
DC
F1
E7
FE
3C
ENDCHAR
STARTCHAR ebreve.fina
ENCODING -1
SWIDTH 411 0
DWIDTH 8 0
BBX 9 15 1 0
BITMAP
4100
E180
6300
7F00
3E00
0000
3C00
7E00
E600
CE00
DC00
F100
E700
FE00
3C00
ENDCHAR
STARTCHAR ecaron.fina
ENCODING -1
SWIDTH 411 0
DWIDTH 8 0
BBX 9 17 1 0
BITMAP
2100
3380
3300
3600
1600
1C00
1C00
0000
3C00
7E00
E600
CE00
DC00
F100
E700
FE00
3C00
ENDCHAR
STARTCHAR ecircumflex.fina
ENCODING -1
SWIDTH 411 0
DWIDTH 8 0
BBX 8 17 1 0
BITMAP
04
0E
1E
3E
36
77
63
00
3C
7E
E6
CE
DC
F1
E7
FE
3C
ENDCHAR
STARTCHAR uni1EBF.fina
ENCODING -1
SWIDTH 411 0
DWIDTH 8 0
BBX 11 17 1 0
BITMAP
0040
00E0
01C0
1D00
3E00
3600
6300
0000
3C00
7E00
E600
CE00
DC00
F100
E700
FE00
3C00
ENDCHAR
STARTCHAR uni1EC7.fina
ENCODING -1
SWIDTH 411 0
DWIDTH 8 0
BBX 8 21 1 -4
BITMAP
04
0E
1E
3E
36
77
63
00
3C
7E
E6
CE
DC
F1
E7
FE
3C
00
38
38
38
ENDCHAR
STARTCHAR uni1EC1.fina
ENCODING -1
SWIDTH 411 0
DWIDTH 8 0
BBX 9 17 0 0
BITMAP
4000
E000
7000
1E00
1F00
1B00
3180
0000
1E00
3F00
7300
6700
6E00
7880
7380
7F00
1E00
ENDCHAR
STARTCHAR uni1EC3.fina
ENCODING -1
SWIDTH 411 0
DWIDTH 8 0
BBX 11 16 1 0
BITMAP
01C0
0060
0060
1DC0
3600
6300
0000
3C00
7E00
E600
CE00
DC00
F100
E700
FE00
3C00
ENDCHAR
STARTCHAR uni1EC5.fina
ENCODING -1
SWIDTH 411 0
DWIDTH 8 0
BBX 9 17 1 0
BITMAP
3980
3D00
6700
0C00
3E00
3600
6300
0000
3C00
7E00
E600
CE00
DC00
F100
E700
FE00
3C00
ENDCHAR
STARTCHAR uni0205.fina
ENCODING -1
SWIDTH 411 0
DWIDTH 8 0
BBX 8 16 1 0
BITMAP
D8
DC
CC
6C
66
26
00
3C
7E
E6
CE
DC
F1
E7
FE
3C
ENDCHAR
STARTCHAR edieresis.fina
ENCODING -1
SWIDTH 411 0
DWIDTH 8 0
BBX 8 13 1 0
BITMAP
73
77
77
00
3C
7E
E6
CE
DC
F1
E7
FE
3C
ENDCHAR
STARTCHAR edotaccent.fina
ENCODING -1
SWIDTH 411 0
DWIDTH 8 0
BBX 8 13 1 0
BITMAP
1C
1C
1C
00
3C
7E
E6
CE
DC
F1
E7
FE
3C
ENDCHAR
STARTCHAR uni1EB9.fina
ENCODING -1
SWIDTH 411 0
DWIDTH 8 0
BBX 8 13 1 -4
BITMAP
3C
7E
E6
CE
DC
F1
E7
FE
3C
00
38
38
38
ENDCHAR
STARTCHAR egrave.fina
ENCODING -1
SWIDTH 411 0
DWIDTH 8 0
BBX 8 16 1 0
BITMAP
60
60
70
30
18
08
00
3C
7E
E6
CE
DC
F1
E7
FE
3C
ENDCHAR
STARTCHAR uni1EBB.fina
ENCODING -1
SWIDTH 411 0
DWIDTH 8 0
BBX 8 16 1 0
BITMAP
1C
1E
06
06
1E
1C
00
3C
7E
E6
CE
DC
F1
E7
FE
3C
ENDCHAR
STARTCHAR uni0207.fina
ENCODING -1
SWIDTH 411 0
DWIDTH 8 0
BBX 9 15 1 0
BITMAP
3E00
7F00
6380
E380
0000
0000
3C00
7E00
E600
CE00
DC00
F100
E700
FE00
3C00
ENDCHAR
STARTCHAR emacron.fina
ENCODING -1
SWIDTH 411 0
DWIDTH 8 0
BBX 8 12 1 0
BITMAP
7F
7E
00
3C
7E
E6
CE
DC
F1
E7
FE
3C
ENDCHAR
STARTCHAR eogonek.fina
ENCODING -1
SWIDTH 411 0
DWIDTH 8 0
BBX 8 14 1 -5
BITMAP
3C
7E
E6
CE
DC
F9
C3
FE
7C
18
30
30
3E
1E
ENDCHAR
STARTCHAR uni1EBD.fina
ENCODING -1
SWIDTH 411 0
DWIDTH 8 0
BBX 9 14 1 0
BITMAP
3080
7D80
CF00
4700
0000
3C00
7E00
E600
CE00
DC00
F100
E700
FE00
3C00
ENDCHAR
STARTCHAR g.fina
ENCODING -1
SWIDTH 449 0
DWIDTH 9 0
BBX 9 18 0 -9
BITMAP
0E00
1F80
3B80
7300
6300
6300
6700
7F00
3F00
0E00
1E00
3600
6E00
6C00
CC00
DC00
F800
7000
ENDCHAR
STARTCHAR gbreve.fina
ENCODING -1
SWIDTH 449 0
DWIDTH 9 0
BBX 11 24 0 -9
BITMAP
1040
38E0
38C0
1FC0
0F00
0000
0E00
1F80
3B80
7300
6300
6300
6700
7F00
3F00
0E00
1E00
3600
6E00
6C00
CC00
DC00
F800
7000
ENDCHAR
STARTCHAR gcaron.fina
ENCODING -1
SWIDTH 449 0
DWIDTH 9 0
BBX 10 26 0 -9
BITMAP
0840
0CC0
0CC0
0D80
0D80
0700
0600
0000
0E00
1F80
3B80
7300
6300
6300
6700
7F00
3F00
0E00
1E00
3600
6E00
6C00
CC00
DC00
F800
7000
ENDCHAR
STARTCHAR gcircumflex.fina
ENCODING -1
SWIDTH 449 0
DWIDTH 9 0
BBX 10 26 0 -9
BITMAP
0100
0700
0780
0D80
0D80
19C0
1980
0000
0E00
1F80
3B80
7300
6300
6300
6700
7F00
3F00
0E00
1E00
3600
6E00
6C00
CC00
DC00
F800
7000
ENDCHAR
STARTCHAR uni0123.fina
ENCODING -1
SWIDTH 449 0
DWIDTH 9 0
BBX 9 24 0 -9
BITMAP
0300
0300
0300
0600
0600
0000
0E00
1F80
3B80
7300
6300
6300
6700
7F00
3F00
0E00
1E00
3600
6E00
6C00
CC00
DC00
F800
7000
ENDCHAR
STARTCHAR gdotaccent.fina
ENCODING -1
SWIDTH 449 0
DWIDTH 9 0
BBX 9 22 0 -9
BITMAP
0700
0700
0700
0000
0E00
1F80
3B80
7300
6300
6300
6700
7F00
3F00
0E00
1E00
3600
6E00
6C00
CC00
DC00
F800
7000
ENDCHAR
STARTCHAR h.fina
ENCODING -1
SWIDTH 490 0
DWIDTH 10 0
BBX 8 18 1 0
BITMAP
0E
1E
3B
33
32
66
66
6C
78
F7
FF
EF
FB
F7
F7
E7
E7
67
ENDCHAR
STARTCHAR hbar.fina
ENCODING -1
SWIDTH 490 0
DWIDTH 10 0
BBX 8 16 1 0
BITMAP
18
38
38
FF
FF
70
70
67
6F
EF
FB
F7
F7
E7
E7
67
ENDCHAR
STARTCHAR hcircumflex.fina
ENCODING -1
SWIDTH 490 0
DWIDTH 10 0
BBX 9 24 1 0
BITMAP
0700
0F00
1D80
1980
3180
0000
0E00
1E00
3B00
3300
3200
6600
6600
6C00
7800
F700
FF00
EF00
FB00
F700
F700
E700
E700
6700
ENDCHAR
STARTCHAR i.fina
ENCODING -1
SWIDTH 222 0
DWIDTH 4 0
BBX 5 13 1 0
BITMAP
30
78
70
00
60
60
E0
E0
E0
C0
C0
C0
C0
ENDCHAR
STARTCHAR dotlessi.fina
ENCODING -1
SWIDTH 222 0
DWIDTH 4 0
BBX 3 9 1 0
BITMAP
60
60
E0
E0
E0
C0
C0
C0
C0
ENDCHAR
STARTCHAR iacute.fina
ENCODING -1
SWIDTH 222 0
DWIDTH 4 0
BBX 6 16 1 0
BITMAP
0C
1C
1C
18
30
20
00
60
60
E0
E0
E0
C0
C0
C0
C0
ENDCHAR
STARTCHAR iacute_j.loclNLD.fina
ENCODING -1
SWIDTH 479 0
DWIDTH 10 0
BBX 12 25 0 -9
BITMAP
0630
0670
0E60
0CC0
18C0
1180
0000
3180
3380
7380
7300
6700
6700
7F00
7F00
3600
0E00
1E00
3600
6E00
4C00
CC00
D800
F800
7000
ENDCHAR
STARTCHAR ibreve.fina
ENCODING -1
SWIDTH 222 0
DWIDTH 4 0
BBX 8 15 0 0
BITMAP
82
C3
E7
FE
7C
00
30
30
70
70
70
60
60
60
60
ENDCHAR
STARTCHAR icircumflex.fina
ENCODING -1
SWIDTH 222 0
DWIDTH 4 0
BBX 7 17 0 0
BITMAP
08
1C
3C
3C
6E
E6
C6
00
30
30
70
70
70
60
60
60
60
ENDCHAR
STARTCHAR uni0209.fina
ENCODING -1
SWIDTH 222 0
DWIDTH 4 0
BBX 7 16 -1 0
BITMAP
CC
DC
EC
6E
66
22
00
18
18
38
38
38
30
30
30
30
ENDCHAR
STARTCHAR idieresis.fina
ENCODING -1
SWIDTH 222 0
DWIDTH 4 0
BBX 7 13 0 0
BITMAP
66
EE
E6
00
30
30
70
70
70
60
60
60
60
ENDCHAR
STARTCHAR i.loclTRK.fina
ENCODING -1
SWIDTH 222 0
DWIDTH 4 0
BBX 4 13 1 0
BITMAP
70
70
70
00
60
60
E0
E0
E0
C0
C0
C0
C0
ENDCHAR
STARTCHAR uni1ECB.fina
ENCODING -1
SWIDTH 222 0
DWIDTH 4 0
BBX 6 17 0 -4
BITMAP
18
3C
38
00
30
30
70
70
70
60
60
60
60
00
E0
E0
E0
ENDCHAR
STARTCHAR igrave.fina
ENCODING -1
SWIDTH 222 0
DWIDTH 4 0
BBX 4 16 0 0
BITMAP
C0
E0
E0
60
30
10
00
30
30
70
70
70
60
60
60
60
ENDCHAR
STARTCHAR uni1EC9.fina
ENCODING -1
SWIDTH 222 0
DWIDTH 4 0
BBX 5 16 1 0
BITMAP
78
78
08
18
78
70
00
60
60
E0
E0
E0
C0
C0
C0
C0
ENDCHAR
STARTCHAR uni020B.fina
ENCODING -1
SWIDTH 222 0
DWIDTH 4 0
BBX 8 15 0 0
BITMAP
3C
FE
C7
C3
00
00
30
30
70
70
70
60
60
60
60
ENDCHAR
STARTCHAR imacron.fina
ENCODING -1
SWIDTH 222 0
DWIDTH 4 0
BBX 7 12 0 0
BITMAP
FE
FE
00
30
30
70
70
70
60
60
60
60
ENDCHAR
STARTCHAR iogonek.fina
ENCODING -1
SWIDTH 222 0
DWIDTH 4 0
BBX 6 18 -1 -5
BITMAP
1C
1C
1C
00
18
18
38
38
38
38
30
30
30
60
60
E0
7C
38
ENDCHAR
STARTCHAR itilde.fina
ENCODING -1
SWIDTH 222 0
DWIDTH 4 0
BBX 9 14 -1 0
BITMAP
3080
7D80
EF80
4700
0000
1800
1800
3800
3800
3800
3000
3000
3000
3000
ENDCHAR
STARTCHAR j.fina
ENCODING -1
SWIDTH 229 0
DWIDTH 5 0
BBX 10 22 -5 -9
BITMAP
01C0
01C0
01C0
0000
0180
0180
0380
0380
0380
0380
0300
0300
0300
0700
0F00
1E00
3600
6600
6C00
CC00
7800
7000
ENDCHAR
STARTCHAR uni0237.fina
ENCODING -1
SWIDTH 229 0
DWIDTH 5 0
BBX 9 18 -5 -9
BITMAP
0180
0180
0380
0380
0380
0380
0300
0300
0300
0700
0F00
1E00
3600
6600
6C00
CC00
7800
7000
ENDCHAR
STARTCHAR jcircumflex.fina
ENCODING -1
SWIDTH 229 0
DWIDTH 5 0
BBX 12 26 -5 -9
BITMAP
0040
00E0
01E0
03E0
0360
0770
0630
0000
0180
0180
0380
0380
0380
0380
0300
0300
0300
0700
0F00
1E00
3600
6600
6C00
CC00
7800
7000
ENDCHAR
STARTCHAR k.fina
ENCODING -1
SWIDTH 521 0
DWIDTH 10 0
BBX 9 18 1 0
BITMAP
0E00
1E00
3B00
3300
3600
6600
6400
6C00
7800
F780
EF80
F980
F980
F700
FE00
EE00
E780
6380
ENDCHAR
STARTCHAR uni0137.fina
ENCODING -1
SWIDTH 521 0
DWIDTH 10 0
BBX 9 24 1 -6
BITMAP
0E00
1E00
3B00
3300
3600
6600
6400
6C00
7800
F780
EF80
F980
F980
F700
FE00
EE00
E780
6380
0000
1800
3800
3000
3000
3000
ENDCHAR
STARTCHAR kgreenlandic.fina
ENCODING -1
SWIDTH 541 0
DWIDTH 11 0
BBX 10 9 1 0
BITMAP
6700
6F80
FD80
D980
F800
F840
FCC0
EFC0
C780
ENDCHAR
STARTCHAR l.fina
ENCODING -1
SWIDTH 368 0
DWIDTH 7 0
BBX 8 18 1 0
BITMAP
0E
1E
3B
33
72
66
66
66
EC
EC
F8
F8
F0
E0
E0
66
7E
3C
ENDCHAR
STARTCHAR lacute.fina
ENCODING -1
SWIDTH 368 0
DWIDTH 7 0
BBX 11 24 1 0
BITMAP
0040
00E0
01E0
0780
0600
0000
0E00
1E00
3B00
3300
7200
6600
6600
6600
EC00
EC00
F800
F800
F000
E000
E000
6600
7E00
3C00
ENDCHAR
STARTCHAR lcaron.fina
ENCODING -1
SWIDTH 368 0
DWIDTH 7 0
BBX 11 19 1 0
BITMAP
0040
0EE0
1EC0
3BC0
33C0
7200
6600
6600
6600
EC00
EC00
F800
F800
F000
E000
E000
6600
7E00
3C00
ENDCHAR
STARTCHAR uni013C.fina
ENCODING -1
SWIDTH 368 0
DWIDTH 7 0
BBX 8 24 1 -6
BITMAP
0E
1E
3B
33
72
66
66
66
EC
EC
F8
F8
F0
E0
E0
66
7E
3C
00
30
70
60
60
60
ENDCHAR
STARTCHAR ldot.fina
ENCODING -1
SWIDTH 466 0
DWIDTH 9 0
BBX 9 18 1 0
BITMAP
1800
3800
3800
3800
3000
7000
7000
7000
6E00
6E00
EE00
E000
E000
E000
E180
E380
7F00
3C00
ENDCHAR
STARTCHAR uni01C9.fina
ENCODING -1
SWIDTH 555 0
DWIDTH 11 0
BBX 11 27 1 -9
BITMAP
0E00
1E00
3B00
3300
7300
66C0
67E0
67C0
EC00
EDC0
F9C0
F9C0
F180
E180
E380
6780
7F80
3F80
0700
0F00
1B00
3700
3600
6600
6E00
7C00
3800
ENDCHAR
STARTCHAR lslash.fina
ENCODING -1
SWIDTH 368 0
DWIDTH 7 0
BBX 10 20 1 0
BITMAP
07C0
1FC0
3840
3000
0E00
1E00
3300
3300
7200
6600
6600
EC00
EC00
F800
F000
F000
E000
6600
7E00
3C00
ENDCHAR
STARTCHAR m.fina
ENCODING -1
SWIDTH 732 0
DWIDTH 15 0
BBX 13 9 1 0
BITMAP
6738
6F78
FFF8
F7F8
F7B8
E738
E738
E738
C630
ENDCHAR
STARTCHAR n.fina
ENCODING -1
SWIDTH 484 0
DWIDTH 10 0
BBX 8 9 1 0
BITMAP
67
6F
FF
FF
F7
E7
E7
E7
C6
ENDCHAR
STARTCHAR nacute.fina
ENCODING -1
SWIDTH 484 0
DWIDTH 10 0
BBX 9 16 1 0
BITMAP
0180
0380
0300
0700
0600
0400
0000
6700
6F00
FF00
FF00
F700
E700
E700
E700
C600
ENDCHAR
STARTCHAR napostrophe.fina
ENCODING -1
SWIDTH 484 0
DWIDTH 10 0
BBX 9 15 0 0
BITMAP
C000
C000
C000
C000
8000
0000
3380
3780
7F80
7F80
7B80
7380
7380
7380
6300
ENDCHAR
STARTCHAR ncaron.fina
ENCODING -1
SWIDTH 484 0
DWIDTH 10 0
BBX 10 17 1 0
BITMAP
1080
19C0
1980
1B00
1B00
0E00
0E00
0000
6700
6F00
FF00
FF00
F700
E700
E700
E700
C600
ENDCHAR
STARTCHAR uni0146.fina
ENCODING -1
SWIDTH 484 0
DWIDTH 10 0
BBX 8 15 1 -6
BITMAP
67
6F
FF
FF
F7
E7
E7
E7
C6
00
18
38
30
30
30
ENDCHAR
STARTCHAR eng.fina
ENCODING -1
SWIDTH 484 0
DWIDTH 10 0
BBX 8 15 1 -6
BITMAP
67
6F
FF
FF
F7
E6
E6
E6
CE
0C
0C
0C
98
F8
F0
ENDCHAR
STARTCHAR uni01CC.fina
ENCODING -1
SWIDTH 725 0
DWIDTH 15 0
BBX 14 22 1 -9
BITMAP
001C
003C
001C
0000
6718
6F18
FF38
FF38
F738
E630
E670
E7F0
C3B0
0070
00F0
03E0
0360
0660
04C0
0CC0
0F80
0700
ENDCHAR
STARTCHAR ntilde.fina
ENCODING -1
SWIDTH 484 0
DWIDTH 10 0
BBX 10 14 1 0
BITMAP
1840
3EC0
6780
2380
0000
6700
6F00
FF00
FF00
F700
E700
E700
E700
C600
ENDCHAR
STARTCHAR o.fina
ENCODING -1
SWIDTH 453 0
DWIDTH 9 0
BBX 8 9 1 0
BITMAP
3C
7E
E6
C7
C7
C7
EE
FC
78
ENDCHAR
STARTCHAR oacute.fina
ENCODING -1
SWIDTH 453 0
DWIDTH 9 0
BBX 8 16 1 0
BITMAP
03
07
06
0E
0C
08
00
3C
7E
E6
C7
C7
C7
EE
FC
78
ENDCHAR
STARTCHAR obreve.fina
ENCODING -1
SWIDTH 453 0
DWIDTH 9 0
BBX 9 15 1 0
BITMAP
4100
E180
6300
7F00
3E00
0000
3C00
7E00
E600
C700
C700
C700
EE00
FC00
7800
ENDCHAR
STARTCHAR ocircumflex.fina
ENCODING -1
SWIDTH 453 0
DWIDTH 9 0
BBX 8 17 1 0
BITMAP
04
1E
1E
36
36
67
62
00
3C
7E
E6
C7
C7
C7
EE
FC
78
ENDCHAR
STARTCHAR uni1ED1.fina
ENCODING -1
SWIDTH 453 0
DWIDTH 9 0
BBX 11 17 1 0
BITMAP
0040
00E0
01C0
1D00
3E00
7600
6300
0000
3C00
7E00
E600
C700
C700
C700
EE00
FC00
7800
ENDCHAR
STARTCHAR uni1ED9.fina
ENCODING -1
SWIDTH 453 0
DWIDTH 9 0
BBX 8 21 1 -4
BITMAP
04
1E
1E
36
36
67
62
00
3C
7E
E6
C7
C7
C7
EE
FC
78
00
38
78
30
ENDCHAR
STARTCHAR uni1ED3.fina
ENCODING -1
SWIDTH 453 0
DWIDTH 9 0
BBX 9 17 0 0
BITMAP
4000
E000
7000
1E00
1F00
3B00
3180
0000
1E00
3F00
7300
6380
6380
6380
7700
7E00
3C00
ENDCHAR
STARTCHAR uni1ED5.fina
ENCODING -1
SWIDTH 453 0
DWIDTH 9 0
BBX 11 16 1 0
BITMAP
01C0
0060
0060
1DC0
3600
6700
0000
3C00
7E00
E600
C700
C700
C700
EE00
FC00
7800
ENDCHAR
STARTCHAR uni1ED7.fina
ENCODING -1
SWIDTH 453 0
DWIDTH 9 0
BBX 9 17 1 0
BITMAP
3980
7F00
6600
1C00
3E00
7600
6300
0000
3C00
7E00
E600
C700
C700
C700
EE00
FC00
7800
ENDCHAR
STARTCHAR uni020D.fina
ENCODING -1
SWIDTH 453 0
DWIDTH 9 0
BBX 9 16 0 0
BITMAP
6C00
EE00
6600
3600
3300
1300
0000
1E00
3F00
7300
6380
6380
6380
7700
7E00
3C00
ENDCHAR
STARTCHAR odieresis.fina
ENCODING -1
SWIDTH 453 0
DWIDTH 9 0
BBX 8 13 1 0
BITMAP
77
77
67
00
3C
7E
E6
C7
C7
C7
EE
FC
78
ENDCHAR
STARTCHAR uni022B.fina
ENCODING -1
SWIDTH 453 0
DWIDTH 9 0
BBX 8 17 1 0
BITMAP
3F
3F
00
00
77
77
67
00
3C
7E
E6
C7
C7
C7
EE
FC
78
ENDCHAR
STARTCHAR uni0231.fina
ENCODING -1
SWIDTH 453 0
DWIDTH 9 0
BBX 8 17 1 0
BITMAP
3F
3F
00
00
1C
1C
1C
00
3C
7E
E6
C7
C7
C7
EE
FC
78
ENDCHAR
STARTCHAR uni1ECD.fina
ENCODING -1
SWIDTH 453 0
DWIDTH 9 0
BBX 8 13 1 -4
BITMAP
3C
7E
E6
C7
C7
C7
EE
FC
78
00
38
78
30
ENDCHAR
STARTCHAR ograve.fina
ENCODING -1
SWIDTH 453 0
DWIDTH 9 0
BBX 8 16 1 0
BITMAP
60
60
70
30
18
08
00
3C
7E
E6
C7
C7
C7
EE
FC
78
ENDCHAR
STARTCHAR uni1ECF.fina
ENCODING -1
SWIDTH 453 0
DWIDTH 9 0
BBX 8 16 1 0
BITMAP
1C
1E
06
06
1E
1C
00
3C
7E
E6
C7
C7
C7
EE
FC
78
ENDCHAR
STARTCHAR ohorn.fina
ENCODING -1
SWIDTH 453 0
DWIDTH 9 0
BBX 9 12 1 0
BITMAP
0100
0180
0180
3F00
7E00
E600
C700
C700
C700
EE00
FE00
7800
ENDCHAR
STARTCHAR uni1EDB.fina
ENCODING -1
SWIDTH 453 0
DWIDTH 9 0
BBX 9 16 1 0
BITMAP
0600
0700
0E00
0C00
1900
1980
0180
3F00
7E00
E600
C700
C700
C700
EE00
FE00
7800
ENDCHAR
STARTCHAR uni1EE3.fina
ENCODING -1
SWIDTH 453 0
DWIDTH 9 0
BBX 9 16 1 -4
BITMAP
0100
0180
0180
3F00
7E00
E600
C700
C700
C700
EE00
FE00
7800
0000
3800
7800
3000
ENDCHAR
STARTCHAR uni1EDD.fina
ENCODING -1
SWIDTH 453 0
DWIDTH 9 0
BBX 9 16 1 0
BITMAP
C000
E000
6000
3000
3100
1980
0180
3F00
7E00
E600
C700
C700
C700
EE00
FE00
7800
ENDCHAR
STARTCHAR uni1EDF.fina
ENCODING -1
SWIDTH 453 0
DWIDTH 9 0
BBX 9 16 1 0
BITMAP
3C00
3E00
0600
0600
1D00
1980
0180
3F00
7E00
E600
C700
C700
C700
EE00
FE00
7800
ENDCHAR
STARTCHAR uni1EE1.fina
ENCODING -1
SWIDTH 453 0
DWIDTH 9 0
BBX 9 14 1 0
BITMAP
3300
7B00
CF00
4580
0180
3F00
7E00
E600
C700
C700
C700
EE00
FC00
7800
ENDCHAR
STARTCHAR ohungarumlaut.fina
ENCODING -1
SWIDTH 453 0
DWIDTH 9 0
BBX 9 16 1 0
BITMAP
1980
1D80
1B80
3300
3200
2600
0000
3C00
7E00
E600
C700
C700
C700
EE00
FC00
7800
ENDCHAR
STARTCHAR uni020F.fina
ENCODING -1
SWIDTH 453 0
DWIDTH 9 0
BBX 9 15 1 0
BITMAP
3E00
7F00
6380
E380
0000
0000
3C00
7E00
E600
C700
C700
C700
EE00
FC00
7800
ENDCHAR
STARTCHAR omacron.fina
ENCODING -1
SWIDTH 453 0
DWIDTH 9 0
BBX 8 12 1 0
BITMAP
7F
7E
00
3C
7E
E6
C7
C7
C7
EE
FC
78
ENDCHAR
STARTCHAR uni01EB.fina
ENCODING -1
SWIDTH 453 0
DWIDTH 9 0
BBX 8 14 1 -5
BITMAP
3C
7E
E6
C7
C7
C7
E6
FC
78
30
30
70
3E
1C
ENDCHAR
STARTCHAR oslash.fina
ENCODING -1
SWIDTH 463 0
DWIDTH 9 0
BBX 8 14 1 -2
BITMAP
04
0C
08
3C
7E
FF
DF
D3
D7
D6
FE
7C
30
20
ENDCHAR
STARTCHAR oslashacute.fina
ENCODING -1
SWIDTH 463 0
DWIDTH 9 0
BBX 8 18 1 -2
BITMAP
0C
1C
1C
18
34
2C
08
3C
7E
FF
DF
D3
D7
D6
FE
7C
30
20
ENDCHAR
STARTCHAR otilde.fina
ENCODING -1
SWIDTH 453 0
DWIDTH 9 0
BBX 9 14 1 0
BITMAP
3080
7980
CF00
4600
0000
3C00
7E00
E600
C700
C700
C700
EE00
FC00
7800
ENDCHAR
STARTCHAR uni022D.fina
ENCODING -1
SWIDTH 453 0
DWIDTH 9 0
BBX 9 17 1 0
BITMAP
3F00
3F00
0000
3080
7980
CF00
4600
0000
3C00
7E00
E600
C700
C700
C700
EE00
FC00
7800
ENDCHAR
STARTCHAR oe.fina
ENCODING -1
SWIDTH 686 0
DWIDTH 14 0
BBX 13 9 1 0
BITMAP
3CE0
7FF0
E730
C730
C7E0
C7C8
EF18
FFF8
79E0
ENDCHAR
STARTCHAR p.fina
ENCODING -1
SWIDTH 457 0
DWIDTH 9 0
BBX 11 18 -2 -9
BITMAP
0DC0
1FE0
1EE0
1CE0
1CE0
1CC0
3DC0
3F80
7F00
7C00
5800
D800
D800
9800
9800
F000
F000
E000
ENDCHAR
STARTCHAR thorn.fina
ENCODING -1
SWIDTH 483 0
DWIDTH 10 0
BBX 9 21 0 -6
BITMAP
1800
3800
3800
3800
3000
3000
7380
7780
7D80
7980
7180
7380
6700
7E00
7800
6000
6000
6000
E000
E000
6000
ENDCHAR
STARTCHAR q.fina
ENCODING -1
SWIDTH 449 0
DWIDTH 9 0
BBX 8 16 1 -6
BITMAP
03
1F
3F
77
E6
C6
CE
CE
FE
7C
0C
0C
1C
1C
1C
1C
ENDCHAR
STARTCHAR r.fina
ENCODING -1
SWIDTH 495 0
DWIDTH 10 0
BBX 9 9 1 0
BITMAP
6700
6F00
FF00
FB80
F780
E300
E000
E000
C000
ENDCHAR
STARTCHAR racute.fina
ENCODING -1
SWIDTH 495 0
DWIDTH 10 0
BBX 9 16 1 0
BITMAP
0300
0380
0700
0600
0C00
0C00
0000
6700
6F00
FF00
FB80
F780
E300
E000
E000
C000
ENDCHAR
STARTCHAR rcaron.fina
ENCODING -1
SWIDTH 495 0
DWIDTH 10 0
BBX 9 17 1 0
BITMAP
1080
3980
1B80
1B00
1E00
1E00
0C00
0000
6700
6F00
FF00
FB80
F780
E300
E000
E000
C000
ENDCHAR
STARTCHAR uni0157.fina
ENCODING -1
SWIDTH 495 0
DWIDTH 10 0
BBX 9 15 1 -6
BITMAP
6700
6F00
FF00
FB80
F780
E300
E000
E000
C000
0000
C000
C000
C000
C000
8000
ENDCHAR
STARTCHAR uni0211.fina
ENCODING -1
SWIDTH 495 0
DWIDTH 10 0
BBX 9 16 1 0
BITMAP
CC00
EC00
6E00
6600
3600
3200
0000
6700
6F00
FF00
FB80
F780
E300
E000
E000
C000
ENDCHAR
STARTCHAR uni0213.fina
ENCODING -1
SWIDTH 495 0
DWIDTH 10 0
BBX 9 15 1 0
BITMAP
1F00
3F80
7380
6180
0000
0000
6700
6F00
FF00
FB80
F780
E300
E000
E000
C000
ENDCHAR
STARTCHAR s.fina
ENCODING -1
SWIDTH 394 0
DWIDTH 8 0
BBX 8 9 0 0
BITMAP
0C
1C
1C
3C
3E
67
DF
9E
1C
ENDCHAR
STARTCHAR sacute.fina
ENCODING -1
SWIDTH 394 0
DWIDTH 8 0
BBX 9 16 0 0
BITMAP
0180
0380
0300
0700
0600
0400
0000
0C00
1C00
1C00
3C00
3E00
6700
DF00
9E00
1C00
ENDCHAR
STARTCHAR scaron.fina
ENCODING -1
SWIDTH 394 0
DWIDTH 8 0
BBX 10 17 0 0
BITMAP
1080
19C0
1980
1B00
1B00
0E00
0E00
0000
0C00
1C00
1C00
3C00
3E00
6700
DF00
9E00
1C00
ENDCHAR
STARTCHAR scedilla.fina
ENCODING -1
SWIDTH 394 0
DWIDTH 8 0
BBX 8 14 0 -5
BITMAP
0C
1C
1C
3C
3E
67
E7
DF
1E
3C
06
06
7C
78
ENDCHAR
STARTCHAR scircumflex.fina
ENCODING -1
SWIDTH 394 0
DWIDTH 8 0
BBX 9 17 0 0
BITMAP
0200
0700
0F00
1B00
1B00
3380
3180
0000
0C00
1C00
1C00
3C00
3E00
6700
DF00
9E00
1C00
ENDCHAR
STARTCHAR uni0219.fina
ENCODING -1
SWIDTH 394 0
DWIDTH 8 0
BBX 8 15 0 -6
BITMAP
0C
1C
1C
3C
3E
67
DF
9E
1C
00
0C
1C
18
18
18
ENDCHAR
STARTCHAR germandbls.fina
ENCODING -1
SWIDTH 580 0
DWIDTH 12 0
BBX 11 19 1 -4
BITMAP
0F80
1FC0
38C0
70C0
60C0
6380
E700
EE00
EE00
E780
E3C0
E9C0
D8E0
DFC0
CF80
C000
C000
C000
C000
ENDCHAR
STARTCHAR uni01C9.ss01.fina
ENCODING -1
SWIDTH 466 0
DWIDTH 9 0
BBX 10 25 0 -9
BITMAP
1C00
1C00
1800
39C0
3BC0
3980
3000
3180
7380
7380
7380
6300
6300
6700
7F00
3F00
0F00
1E00
3E00
7600
6E00
CC00
DC00
F800
7000
ENDCHAR
STARTCHAR eng.ss01.fina
ENCODING -1
SWIDTH 484 0
DWIDTH 10 0
BBX 8 18 1 -9
BITMAP
67
6F
FF
FF
F7
E7
E6
E6
C6
0E
1E
3C
6C
CC
D8
D8
F0
E0
ENDCHAR
STARTCHAR p.ss01.fina
ENCODING -1
SWIDTH 488 0
DWIDTH 10 0
BBX 11 18 -2 -9
BITMAP
0E60
0CE0
0DE0
0F60
0EE0
0CE0
0CE0
1CE0
3CC0
3C00
7C00
5800
D800
9800
9800
B000
F000
E000
ENDCHAR
ENDFONT
